<svg width="52" height="52" viewBox="0 0 52 52" fill="none" xmlns="http://www.w3.org/2000/svg">
<g clip-path="url(#clip0_580_2)">
<path d="M8.64031 46.2038C8.4515 46.0148 8.18947 45.9062 7.92236 45.9062C7.65525 45.9062 7.39322 46.0148 7.20432 46.2038C7.01541 46.3928 6.90674 46.6548 6.90674 46.9219C6.90674 47.189 7.01531 47.451 7.20432 47.6398C7.39322 47.8287 7.65525 47.9375 7.92236 47.9375C8.18947 47.9375 8.4515 47.8288 8.64031 47.6398C8.82921 47.451 8.93799 47.189 8.93799 46.9219C8.93799 46.6548 8.82932 46.3927 8.64031 46.2038Z" fill="white"/>
<path d="M47.6865 18.5796C47.4976 18.3906 47.2366 18.282 46.9685 18.282C46.7014 18.282 46.4394 18.3906 46.2505 18.5796C46.0617 18.7685 45.9529 19.0305 45.9529 19.2976C45.9529 19.5647 46.0616 19.8267 46.2505 20.0156C46.4394 20.2045 46.7014 20.3132 46.9685 20.3132C47.2366 20.3132 47.4976 20.2046 47.6865 20.0156C47.8764 19.8267 47.985 19.5647 47.985 19.2976C47.985 19.0305 47.8764 18.7685 47.6865 18.5796Z" fill="white"/>
<path d="M51.7027 0.297477C51.5121 0.107047 51.2538 0 50.9843 0L26.0006 0.00132031C25.4397 0.00132031 24.985 0.456117 24.985 1.01695V3.92133L15.358 6.50091C14.8162 6.64615 14.4946 7.20302 14.6399 7.74475L19.6293 26.3654L15.313 30.6817C14.7637 29.8796 13.8413 29.3521 12.7979 29.3521H3.04824C1.36819 29.3521 0.00146484 30.7189 0.00146484 32.3988V48.9531C0.00146484 50.6332 1.36819 52 3.04824 52H12.798C14.2253 52 15.426 51.0132 15.755 49.6864L16.9626 50.7395C17.8948 51.5524 19.0892 52.0001 20.3262 52.0001H50.9845C51.5454 52.0001 52.0001 51.5453 52.0001 50.9845V1.01562C51.9999 0.746281 51.8931 0.487906 51.7027 0.297477ZM13.8135 48.9532C13.8135 49.5131 13.3578 49.9689 12.7978 49.9689H3.04814C2.48812 49.9689 2.03251 49.5132 2.03251 48.9532V32.3989C2.03251 31.8389 2.48812 31.3833 3.04814 31.3833H6.90741V43.0828C6.90741 43.6436 7.36221 44.0984 7.92304 44.0984C8.48386 44.0984 8.93866 43.6436 8.93866 43.0828V31.3833H12.7979C13.3579 31.3833 13.8136 31.8389 13.8136 32.3989V48.9532H13.8135ZM16.8647 8.20005L24.985 6.02418V9.78758L24.3044 9.96998C24.0441 10.0398 23.8223 10.2099 23.6877 10.4432C23.553 10.6765 23.5164 10.9536 23.5862 11.2138C23.9765 12.6703 23.1091 14.1727 21.6526 14.563C21.3921 14.6329 21.1699 14.8033 21.0354 15.0371C20.9008 15.2708 20.8645 15.5485 20.9349 15.8089L24.8937 30.4682H22.8554L21.8049 26.3586C21.7715 26.2278 21.713 26.1072 21.6347 26.0024L16.8647 8.20005ZM24.985 14.4451V23.0151L23.1326 16.1561C23.9064 15.7565 24.5397 15.1587 24.985 14.4451ZM39.5759 49.9688H20.326C19.58 49.9688 18.8596 49.6988 18.2973 49.2086L15.8447 47.0695V33.0227L20.2787 28.5887L21.0829 31.7351C21.1979 32.1847 21.6028 32.4992 22.0668 32.4992L42.0344 32.5004C42.8185 32.5004 43.4563 33.1382 43.4563 33.9223C43.4563 34.7063 42.8185 35.3442 42.0344 35.3442H31.803C31.2422 35.3442 30.7874 35.799 30.7874 36.3598C30.7874 36.9206 31.2422 37.3754 31.803 37.3754H45.2133C45.9974 37.3754 46.6352 38.0132 46.6352 38.7973C46.6352 39.5813 45.9974 40.2192 45.2133 40.2192H31.803C31.2422 40.2192 30.7874 40.674 30.7874 41.2348C30.7874 41.7956 31.2422 42.2504 31.803 42.2504H43.0402C43.8243 42.2504 44.4621 42.8882 44.4621 43.6723C44.4621 44.4563 43.8243 45.0942 43.0402 45.0942H31.803C31.2422 45.0942 30.7874 45.549 30.7874 46.1098C30.7874 46.6706 31.2422 47.1254 31.803 47.1254H39.5759C40.36 47.1254 40.9978 47.7632 40.9978 48.5473C40.9977 49.3309 40.3599 49.9688 39.5759 49.9688ZM49.9689 49.9688H49.9688H42.7214C42.9183 49.5348 43.0289 49.0537 43.0289 48.5469C43.0289 48.0401 42.9183 47.559 42.7214 47.125H43.0402C44.9442 47.125 46.4932 45.576 46.4932 43.672C46.4932 43.1166 46.3607 42.5919 46.1267 42.1265C47.5888 41.7249 48.6663 40.3848 48.6663 38.7971C48.6663 38.0268 48.4126 37.3148 47.9847 36.7399V23.8679C47.9847 23.3071 47.5299 22.8523 46.969 22.8523C46.4082 22.8523 45.9534 23.3071 45.9534 23.8679V35.4249C45.7148 35.3726 45.4672 35.3442 45.2131 35.3442H45.1798C45.3768 34.9102 45.4874 34.4291 45.4874 33.9223C45.4874 32.0182 43.9383 30.4693 42.0343 30.4693H40.4017C42.1353 29.7258 43.3528 28.0027 43.3528 26C43.3528 23.3199 41.1725 21.1394 38.4923 21.1394C35.8123 21.1394 33.6319 23.3199 33.6319 26C33.6319 28.0027 34.8495 29.7258 36.583 30.4693H31.0312V11.158C32.8456 10.7626 34.2772 9.33105 34.6725 7.51664H42.3121C42.7074 9.33105 44.139 10.7626 45.9533 11.158V14.3155C45.9533 14.8764 46.4081 15.3312 46.9689 15.3312C47.5298 15.3312 47.9846 14.8764 47.9846 14.3155V10.2512C47.9846 9.69038 47.5298 9.23559 46.9689 9.23559C45.461 9.23559 44.2345 8.00881 44.2345 6.50102C44.2345 5.94019 43.7797 5.48539 43.2189 5.48539H33.7658C33.205 5.48539 32.7502 5.94019 32.7502 6.50102C32.7502 8.00891 31.5235 9.23559 30.0157 9.23559C29.4549 9.23559 29.0001 9.69038 29.0001 10.2512V30.4692H27.0164V2.03237L49.9689 2.03125V49.9688ZM38.4925 28.8293C36.9324 28.8293 35.6633 27.5601 35.6633 26.0001C35.6633 24.4401 36.9325 23.1708 38.4925 23.1708C40.0525 23.1708 41.3218 24.44 41.3218 26C41.3218 27.56 40.0526 28.8293 38.4925 28.8293Z" fill="white"/>
</g>
<defs>
<clipPath id="clip0_580_2">
<rect width="52" height="52" fill="white"/>
</clipPath>
</defs>
</svg>
