<svg width="52" height="50" viewBox="0 0 52 50" fill="none" xmlns="http://www.w3.org/2000/svg">
<path d="M47.125 0.625H4.875C3.79795 0.626269 2.76537 1.05469 2.00378 1.81628C1.24219 2.57787 0.813769 3.61045 0.8125 4.6875V37.1875C0.813769 38.2646 1.24219 39.2971 2.00378 40.0587C2.76537 40.8203 3.79795 41.2487 4.875 41.25H20.3125V43.6875C20.3112 44.7646 19.8828 45.7971 19.1212 46.5587C18.3596 47.3203 17.3271 47.7487 16.25 47.75H13.8125C13.597 47.75 13.3903 47.8356 13.238 47.988C13.0856 48.1403 13 48.347 13 48.5625C13 48.778 13.0856 48.9847 13.238 49.137C13.3903 49.2894 13.597 49.375 13.8125 49.375H38.1875C38.403 49.375 38.6097 49.2894 38.762 49.137C38.9144 48.9847 39 48.778 39 48.5625C39 48.347 38.9144 48.1403 38.762 47.988C38.6097 47.8356 38.403 47.75 38.1875 47.75H35.75C34.6729 47.7487 33.6404 47.3203 32.8788 46.5587C32.1172 45.7971 31.6888 44.7646 31.6875 43.6875V41.25H47.125C48.2021 41.2487 49.2346 40.8203 49.9962 40.0587C50.7578 39.2971 51.1862 38.2646 51.1875 37.1875V4.6875C51.1862 3.61045 50.7578 2.57787 49.9962 1.81628C49.2346 1.05469 48.2021 0.626269 47.125 0.625ZM2.4375 4.6875C2.43821 4.04125 2.69524 3.42168 3.15221 2.96471C3.60918 2.50774 4.22875 2.25071 4.875 2.25H47.125C47.7712 2.25071 48.3908 2.50774 48.8478 2.96471C49.3048 3.42168 49.5618 4.04125 49.5625 4.6875V33.125H2.4375V4.6875ZM31.7732 47.75H20.2268C20.7686 47.2213 21.1991 46.5895 21.4929 45.8917C21.7867 45.194 21.9379 44.4445 21.9375 43.6875V41.25H30.0625V43.6875C30.062 44.4446 30.2131 45.1941 30.5069 45.8918C30.8007 46.5895 31.2313 47.2213 31.7732 47.75ZM49.5625 37.1875C49.5618 37.8337 49.3048 38.4533 48.8478 38.9103C48.3908 39.3673 47.7712 39.6243 47.125 39.625H4.875C4.22875 39.6243 3.60918 39.3673 3.15221 38.9103C2.69524 38.4533 2.43821 37.8337 2.4375 37.1875V34.75H49.5625V37.1875Z" fill="white"/>
<path d="M47.125 3.875H4.875C4.65951 3.875 4.45285 3.9606 4.30048 4.11298C4.1481 4.26535 4.0625 4.47201 4.0625 4.6875V30.6875C4.0625 30.903 4.1481 31.1097 4.30048 31.262C4.45285 31.4144 4.65951 31.5 4.875 31.5H47.125C47.3405 31.5 47.5472 31.4144 47.6995 31.262C47.8519 31.1097 47.9375 30.903 47.9375 30.6875V4.6875C47.9375 4.47201 47.8519 4.26535 47.6995 4.11298C47.5472 3.9606 47.3405 3.875 47.125 3.875ZM46.3125 29.875H5.6875V5.5H46.3125V29.875Z" fill="white"/>
<path d="M26 26.625C27.7677 26.625 29.4956 26.1008 30.9654 25.1188C32.4352 24.1367 33.5807 22.7409 34.2572 21.1077C34.9336 19.4746 35.1106 17.6776 34.7658 15.9439C34.4209 14.2102 33.5697 12.6177 32.3198 11.3677C31.0698 10.1178 29.4773 9.26659 27.7436 8.92174C26.0099 8.57688 24.2129 8.75387 22.5798 9.43033C20.9467 10.1068 19.5508 11.2523 18.5687 12.7221C17.5867 14.1919 17.0625 15.9198 17.0625 17.6875C17.0652 20.0571 18.0077 22.3288 19.6832 24.0043C21.3587 25.6798 23.6305 26.6223 26 26.625ZM26 10.375C27.4463 10.375 28.8601 10.8039 30.0626 11.6074C31.2651 12.4109 32.2024 13.5529 32.7559 14.8891C33.3093 16.2253 33.4541 17.6956 33.172 19.1141C32.8898 20.5326 32.1934 21.8356 31.1707 22.8582C30.148 23.8809 28.8451 24.5773 27.4266 24.8595C26.0081 25.1417 24.5378 24.9968 23.2016 24.4434C21.8654 23.8899 20.7234 22.9526 19.9199 21.7501C19.1164 20.5476 18.6875 19.1338 18.6875 17.6875C18.6897 15.7488 19.4608 13.8901 20.8317 12.5192C22.2025 11.1483 24.0613 10.3772 26 10.375Z" fill="white"/>
<path d="M24.375 20.125C24.375 19.9095 24.2894 19.7028 24.137 19.5505C23.9847 19.3981 23.778 19.3125 23.5625 19.3125C23.347 19.3125 23.1403 19.3981 22.988 19.5505C22.8356 19.7028 22.75 19.9095 22.75 20.125C22.7507 20.7712 23.0077 21.3908 23.4647 21.8478C23.9217 22.3048 24.5413 22.5618 25.1875 22.5625V23.375C25.1875 23.5905 25.2731 23.7972 25.4255 23.9495C25.5779 24.1019 25.7845 24.1875 26 24.1875C26.2155 24.1875 26.4222 24.1019 26.5745 23.9495C26.7269 23.7972 26.8125 23.5905 26.8125 23.375V22.5625C27.4587 22.5618 28.0783 22.3048 28.5353 21.8478C28.9923 21.3908 29.2493 20.7712 29.25 20.125V19.6711C29.2504 19.1595 29.0896 18.6607 28.7905 18.2456C28.4914 17.8305 28.0692 17.5202 27.5837 17.3586L26.8125 17.1016V14.4375C27.0279 14.4377 27.2345 14.5234 27.3868 14.6757C27.5391 14.828 27.6248 15.0346 27.625 15.25C27.625 15.4655 27.7106 15.6722 27.863 15.8245C28.0154 15.9769 28.222 16.0625 28.4375 16.0625C28.653 16.0625 28.8597 15.9769 29.012 15.8245C29.1644 15.6722 29.25 15.4655 29.25 15.25C29.2493 14.6038 28.9923 13.9842 28.5353 13.5272C28.0783 13.0702 27.4587 12.8132 26.8125 12.8125V12C26.8125 11.7845 26.7269 11.5778 26.5745 11.4255C26.4222 11.2731 26.2155 11.1875 26 11.1875C25.7845 11.1875 25.5779 11.2731 25.4255 11.4255C25.2731 11.5778 25.1875 11.7845 25.1875 12V12.8125C24.5413 12.8132 23.9217 13.0702 23.4647 13.5272C23.0077 13.9842 22.7507 14.6038 22.75 15.25V15.7039C22.7496 16.2156 22.9104 16.7145 23.2097 17.1296C23.509 17.5448 23.9314 17.8551 24.4171 18.0164L25.1875 18.2732V20.9375C24.9721 20.9372 24.7656 20.8515 24.6133 20.6992C24.461 20.5469 24.3753 20.3404 24.375 20.125ZM24.9308 16.4747C24.7689 16.4209 24.628 16.3175 24.5283 16.1792C24.4285 16.0408 24.3748 15.8745 24.375 15.7039V15.25C24.3753 15.0346 24.461 14.8281 24.6133 14.6758C24.7656 14.5235 24.9721 14.4378 25.1875 14.4375V16.5602L24.9308 16.4747ZM26.8125 18.8147L27.0696 18.9003C27.2315 18.9541 27.3723 19.0575 27.472 19.1959C27.5717 19.3343 27.6252 19.5006 27.625 19.6711V20.125C27.6248 20.3404 27.5391 20.547 27.3868 20.6993C27.2345 20.8516 27.0279 20.9373 26.8125 20.9375V18.8147Z" fill="white"/>
<path d="M24.375 38H27.625C27.8405 38 28.0472 37.9144 28.1995 37.762C28.3519 37.6097 28.4375 37.403 28.4375 37.1875C28.4375 36.972 28.3519 36.7653 28.1995 36.613C28.0472 36.4606 27.8405 36.375 27.625 36.375H24.375C24.1595 36.375 23.9528 36.4606 23.8005 36.613C23.6481 36.7653 23.5625 36.972 23.5625 37.1875C23.5625 37.403 23.6481 37.6097 23.8005 37.762C23.9528 37.9144 24.1595 38 24.375 38Z" fill="white"/>
</svg>
