<svg width="52" height="52" viewBox="0 0 52 52" fill="none" xmlns="http://www.w3.org/2000/svg">
<path d="M26.5379 12.6284C26.3951 12.4855 26.2013 12.4053 25.9992 12.4053C25.7971 12.4053 25.6034 12.4856 25.4605 12.6284L17.5775 20.5132C17.2801 20.8107 17.2801 21.2929 17.5775 21.5903L20.4771 24.4905C20.6199 24.6334 20.8137 24.7136 21.0158 24.7136C21.2179 24.7136 21.4116 24.6333 21.5545 24.4905L25.9992 20.0451L30.4465 24.4931C30.5894 24.636 30.7831 24.7163 30.9852 24.7163C31.1873 24.7163 31.381 24.6359 31.5239 24.4931L34.4235 21.5928C34.7209 21.2953 34.7209 20.8131 34.4235 20.5158L26.5379 12.6284ZM30.9852 22.8774L26.5379 18.4294C26.395 18.2865 26.2013 18.2062 25.9992 18.2062C25.7971 18.2062 25.6034 18.2866 25.4605 18.4294L21.0158 22.8747L19.1933 21.0518L25.9992 14.2444L32.8077 21.0544L30.9852 22.8774Z" fill="white"/>
<path d="M16.069 22.3376C15.867 22.3376 15.6732 22.418 15.5303 22.5608L12.6306 25.4612C12.3332 25.7587 12.3332 26.2409 12.6306 26.5383L15.5302 29.4385C15.673 29.5814 15.8668 29.6616 16.0689 29.6616C16.271 29.6616 16.4647 29.5813 16.6076 29.4385L19.5073 26.5382C19.8047 26.2407 19.8047 25.7585 19.5073 25.4611L16.6077 22.5609C16.4648 22.418 16.271 22.3376 16.069 22.3376ZM16.0688 27.8226L14.2464 25.9998L16.069 24.1767L17.8915 25.9996L16.0688 27.8226Z" fill="white"/>
<path d="M20.4791 27.5085L17.5752 30.405C17.432 30.5478 17.3536 30.7436 17.3534 30.9458C17.3532 31.148 17.4356 31.3439 17.5785 31.4869L25.4616 39.3715C25.6045 39.5144 25.7982 39.5946 26.0003 39.5946C26.2024 39.5946 26.3961 39.5143 26.539 39.3715L34.4246 31.4843C34.4362 31.4727 34.4488 31.4592 34.4596 31.4469C34.7247 31.1451 34.71 30.6892 34.4257 30.4053L31.5245 27.5066C31.2269 27.2093 30.7448 27.2094 30.4475 27.5069L26.0004 31.9547L21.5557 27.5092C21.2586 27.212 20.7767 27.2117 20.4791 27.5085ZM26.0004 33.7937C26.2024 33.7937 26.3962 33.7134 26.5391 33.5706L30.9865 29.1224L32.8102 30.9445L26.0004 37.7556L19.1911 30.945L21.0163 29.1244L25.4618 33.5706C25.6046 33.7135 25.7983 33.7937 26.0004 33.7937Z" fill="white"/>
<path d="M35.931 29.6631C36.133 29.6631 36.3268 29.5827 36.4697 29.4399L39.3694 26.5395C39.6668 26.2421 39.6668 25.7598 39.3694 25.4625L36.4698 22.5622C36.327 22.4193 36.1332 22.3391 35.9311 22.3391C35.729 22.3391 35.5353 22.4194 35.3924 22.5622L32.4927 25.4626C32.1953 25.76 32.1953 26.2423 32.4927 26.5396L35.3923 29.4398C35.5352 29.5828 35.729 29.6631 35.931 29.6631ZM35.9311 24.1782L37.7536 26.001L35.931 27.8241L34.1084 26.0012L35.9311 24.1782Z" fill="white"/>
<path d="M26.0005 29.7062C26.2026 29.7062 26.3963 29.6259 26.5392 29.4831L29.4817 26.54C29.4964 26.5253 29.5119 26.5084 29.5253 26.4927C29.7818 26.1903 29.7635 25.7417 29.4831 25.4613L26.5393 22.5168C26.3965 22.3739 26.2028 22.2937 26.0007 22.2937C25.7985 22.2937 25.6049 22.374 25.462 22.5168L22.5181 25.4613C22.2207 25.7588 22.2207 26.2409 22.5181 26.5384L25.462 29.4831C25.6047 29.6259 25.7984 29.7062 26.0005 29.7062ZM26.0005 24.1327L27.8673 25.9999L26.0004 27.8671L24.1337 25.9998L26.0005 24.1327Z" fill="white"/>
<path d="M44.3848 7.61516C39.474 2.70451 32.9448 0 26 0C21.3408 0 16.7699 1.24709 12.7814 3.60638C12.4194 3.82058 12.2994 4.28766 12.5136 4.64973C12.7277 5.01181 13.1949 5.13185 13.557 4.91755C17.3108 2.69709 21.6135 1.52344 26 1.52344C32.538 1.52344 38.6845 4.06941 43.3076 8.69243C47.9306 13.3155 50.4766 19.462 50.4766 26C50.4766 32.538 47.9306 38.6845 43.3076 43.3076C38.6845 47.9306 32.538 50.4766 26 50.4766C19.462 50.4766 13.3155 47.9306 8.69243 43.3076C4.06941 38.6845 1.52344 32.538 1.52344 26C1.52344 18.4954 4.89612 11.5091 10.7767 6.83221C11.106 6.57028 11.1606 6.09111 10.8988 5.76184C10.6368 5.43258 10.1578 5.37804 9.82841 5.63977C3.58231 10.6075 0 18.0285 0 26C0 32.9448 2.70451 39.474 7.61516 44.3848C12.526 49.2955 19.0552 52 26 52C32.9448 52 39.474 49.2955 44.3848 44.3848C49.2955 39.474 52 32.9448 52 26C52 19.0552 49.2955 12.526 44.3848 7.61516Z" fill="white"/>
<path d="M16.192 46.5197C19.2665 47.992 22.5666 48.7384 26.0005 48.7384C32.0742 48.7384 37.7842 46.3732 42.079 42.0785C46.3737 37.7837 48.7388 32.0737 48.7388 26C48.7388 19.9264 46.3737 14.2164 42.079 9.92158C37.7842 5.62691 32.0742 3.26172 26.0005 3.26172C19.9269 3.26172 14.2168 5.62691 9.92207 9.92158C5.62739 14.2164 3.26221 19.9264 3.26221 26C3.26221 33.5037 6.96213 40.5197 13.1595 44.7679C13.5065 45.0058 13.9806 44.9172 14.2184 44.5702C14.4562 44.2232 14.3678 43.7492 14.0208 43.5113C8.23806 39.5474 4.78564 33.0011 4.78564 26C4.78564 14.3022 14.3027 4.78516 26.0005 4.78516C37.6984 4.78516 47.2154 14.3022 47.2154 26C47.2154 37.6979 37.6984 47.2149 26.0005 47.2149C22.7961 47.2149 19.7175 46.5187 16.8499 45.1456C16.4704 44.9639 16.0156 45.1243 15.8339 45.5036C15.6522 45.8829 15.8126 46.3379 16.192 46.5197Z" fill="white"/>
</svg>
