<svg width="22" height="20" viewBox="0 0 22 20" fill="none" xmlns="http://www.w3.org/2000/svg">
<path d="M10.5242 0.463526C10.6739 0.00287056 11.3256 0.00287008 11.4753 0.463525L13.5817 6.9463C13.6486 7.15232 13.8406 7.2918 14.0572 7.2918H20.8736C21.358 7.2918 21.5593 7.9116 21.1675 8.1963L15.6529 12.2029C15.4777 12.3302 15.4043 12.5559 15.4713 12.7619L17.5777 19.2447C17.7273 19.7053 17.2001 20.0884 16.8082 19.8037L11.2936 15.7971C11.1184 15.6698 10.8811 15.6698 10.7059 15.7971L5.19128 19.8037C4.79943 20.0884 4.27219 19.7053 4.42186 19.2447L6.52824 12.7619C6.59518 12.5559 6.52185 12.3302 6.34661 12.2029L0.832028 8.1963C0.440171 7.9116 0.641558 7.2918 1.12592 7.2918H7.94232C8.15893 7.2918 8.35091 7.15232 8.41784 6.9463L10.5242 0.463526Z" fill="#FCD535"/>
</svg>
