<svg width="14" height="9" viewBox="0 0 14 9" fill="none" xmlns="http://www.w3.org/2000/svg">
<path d="M13.8601 1.06566L13.1588 0.36708C13.0653 0.273792 12.9577 0.227295 12.8359 0.227295C12.7145 0.227295 12.6069 0.273792 12.5135 0.36708L7.00007 5.85877L1.48692 0.367227C1.39342 0.273939 1.28582 0.227442 1.16426 0.227442C1.04265 0.227442 0.93504 0.273939 0.841585 0.367227L0.14033 1.06586C0.0466783 1.15895 0 1.26614 0 1.38727C0 1.50831 0.0468257 1.6155 0.14033 1.70859L6.6774 8.22043C6.77086 8.31357 6.87851 8.36012 7.00007 8.36012C7.12163 8.36012 7.22909 8.31357 7.3225 8.22043L13.8601 1.70859C13.9536 1.61545 14 1.50826 14 1.38727C14 1.26614 13.9536 1.15895 13.8601 1.06566Z" fill="#0796DC"/>
</svg>
