<svg width="25" height="25" viewBox="0 0 25 25" fill="none" xmlns="http://www.w3.org/2000/svg">
<path d="M12.5 0C5.59687 0 0 5.59641 0 12.5C0 19.4035 5.59641 24.9999 12.5 24.9999C19.4035 24.9999 24.9999 19.4035 24.9999 12.5C24.9999 5.59641 19.4031 0 12.5 0ZM12.5 23.997C6.16021 23.997 1.00243 18.8392 1.00243 12.4995C1.00243 6.15974 6.16029 1.00197 12.5 1.00197C18.8392 1.00197 23.9975 6.15974 23.9975 12.4995C23.997 18.8392 18.8392 23.997 12.5 23.997ZM19.0171 17.9841C19.3109 18.2778 19.3109 18.754 19.0171 19.0477C18.7234 19.341 18.2478 19.3414 17.954 19.0477L12.6323 13.7265C12.5937 13.7305 12.5567 13.7381 12.517 13.7381C11.8419 13.7381 11.295 13.1907 11.295 12.516C11.295 12.1265 11.4804 11.7837 11.7647 11.5597V5.69109C11.7647 5.27609 12.1015 4.93924 12.5165 4.93924C12.932 4.93924 13.2689 5.27609 13.2689 5.69109V11.5602C13.5526 11.7837 13.739 12.1271 13.739 12.5165C13.739 12.5751 13.7295 12.6313 13.7219 12.6879L19.0171 17.9841Z" fill="#0796DC"/>
</svg>
