<svg width="120" height="120" viewBox="0 0 120 120" fill="none" xmlns="http://www.w3.org/2000/svg">
<path d="M8.40839 14.1026L6.90479 15.635L8.06159 16.763L9.21839 17.891L6.06719 21.101L2.91599 24.281L1.99079 27.1142C0.979192 30.179 0.949192 31.7402 1.84679 33.8798C2.25119 34.8338 2.27999 34.8338 4.13039 34.8338C5.92319 34.8338 6.03839 34.805 6.87719 33.7634C8.09159 32.3174 8.14919 30.2066 7.02119 28.4438L6.26999 27.2582L9.13199 24.2798C10.6932 22.661 12.1104 21.3014 12.2832 21.2726C12.4272 21.2726 13.0056 21.7058 13.5552 22.2554L14.538 23.267L13.902 23.9318C13.5552 24.3074 13.266 24.713 13.266 24.8858C13.266 25.0298 14.076 25.8686 15.0588 26.765L16.8516 28.3838L15.5208 31.2482C14.3064 33.9086 14.1336 34.1102 13.2948 34.1978L12.3984 34.2842V40.067V45.821H13.5552H14.712V49.8686V53.9162H13.5552H12.3984V55.073V56.2298H13.5552H14.712V66.6386V77.0474H12.9768H11.2416V78.1754C11.2416 79.3034 11.2704 79.3322 12.918 79.8518C14.4216 80.3726 14.5656 80.4878 14.6532 81.3266L14.7396 82.2518H13.0044H11.2404V83.5238V84.7958L12.9168 85.3454C14.478 85.895 14.5644 85.9526 14.652 86.9642L14.7384 88.0346H13.0032H11.2392V89.1626C11.2392 90.2906 11.268 90.3194 12.9156 90.839C14.4192 91.3598 14.5632 91.475 14.6508 92.3138L14.7372 93.239H13.002H11.238V94.511V95.783L12.9144 96.3326C14.4756 96.8822 14.562 96.9398 14.6496 97.9514L14.736 99.0218H13.0008H11.2368V100.15C11.2368 101.277 11.2656 101.307 12.9132 101.826L14.5608 102.405L14.6472 104.458L14.7336 106.54H16.1508H17.5968V102.781V99.023H19.3608H21.096L21.0096 97.9526C20.9232 96.941 20.8368 96.8822 19.2744 96.3338L17.598 95.7842V94.5122V93.2402H19.362H21.0972L21.0108 92.315C20.9244 91.4762 20.7792 91.361 19.2756 90.8402C17.628 90.3194 17.5992 90.2906 17.5992 89.1638V88.0358H19.3632H21.0984L21.012 86.9654C20.9256 85.9538 20.8392 85.895 19.2768 85.3466L17.6004 84.797V83.525V82.253H19.3644H21.0996L21.0132 81.3278C20.9268 80.489 20.7816 80.3738 19.278 79.853L17.6016 79.3034V67.7666V56.2298H18.7584H19.9152V55.073V53.9162H18.7584H17.6016V49.8686V45.821H18.7584H19.9152V40.0382V34.2554H18.7584C18.1224 34.2554 17.6016 34.169 17.6016 34.0814C17.6016 33.9662 18.0636 33.2426 18.642 32.4626C19.6836 31.0454 19.7124 31.0454 20.3184 31.595C22.0548 33.1562 64.1532 71.7566 64.9632 72.5366L65.8884 73.433L63.72 74.7338L61.5516 76.0058V81.4418V86.8778H74.8512H88.152V77.0474V67.217H90.4656H92.7792V63.1682V59.1206H87.2856H81.792V57.6746V56.2286H78.9H76.008V61.8386V67.4474L74.9664 68.0834L73.9548 68.7194L73.1748 68.0258C47.0076 43.9994 19.7712 19.0466 19.5684 18.9602C19.4244 18.9026 18.9612 19.163 18.5856 19.5386L17.8632 20.2034L14.0472 16.3874C11.9364 14.2766 10.1436 12.5702 10.086 12.5702C9.99839 12.5702 9.24599 13.2638 8.40839 14.1026ZM4.67879 25.7834C5.05439 26.2166 6.32639 29.0798 6.32639 29.4842C6.32639 29.5706 5.42999 29.6282 4.33079 29.6282H2.30759L3.05999 27.4598C3.43559 26.2742 3.86999 25.2914 3.98519 25.2914C4.12919 25.2926 4.41839 25.523 4.67879 25.7834ZM84.6816 71.5538V75.8906H83.2356H81.7896V71.5538V67.217H83.2356H84.6816V71.5538Z" fill="white"/>
<path d="M3.4356 36.0768C3.4356 36.4524 3.8112 37.3488 4.3032 38.0436C4.7652 38.7372 5.1708 39.5472 5.1708 39.8076C5.1708 40.53 4.2168 40.9644 3.3204 40.6176C2.6556 40.386 2.5692 40.4148 2.3952 41.0796C2.1348 42.1488 2.6556 42.4968 4.6212 42.4968C6.1248 42.4968 6.4716 42.3816 6.9348 41.8032C7.7736 40.7628 7.6284 39.5196 6.4728 37.8996C5.9232 37.1184 5.4612 36.222 5.4612 35.934C5.4612 35.5296 5.2296 35.4132 4.4496 35.4132C3.5796 35.412 3.4356 35.4984 3.4356 36.0768Z" fill="white"/>
<path d="M96.0156 59.5837C94.512 60.6241 94.512 60.7117 94.512 74.8789V88.0345H81.444H68.346L69.5316 88.6705C70.1964 89.0461 71.0352 89.5957 71.4396 89.9137C72.5964 90.8677 74.244 93.1813 74.5908 94.3957L74.9376 95.5525H83.4384C91.2732 95.5525 91.9392 95.5237 92.0832 95.0317C93.1524 91.8805 95.9292 88.8445 98.7624 87.7165C101.278 86.7337 104.516 86.7913 106.742 87.8317C107.668 88.2649 108.94 88.9885 109.547 89.4793C110.819 90.4909 112.496 92.8909 112.987 94.4521C113.334 95.4925 113.392 95.5513 114.635 95.5513C116.225 95.5513 117.7 94.9729 118.336 94.0765C118.74 93.4693 118.798 92.2261 118.798 84.1309C118.798 72.3625 118.826 72.4501 114.576 66.0313C110.473 59.8441 109.114 59.1205 101.336 59.1205C97.5768 59.1205 96.5364 59.2069 96.0156 59.5837ZM111.37 68.9797L114.752 74.1841V76.4689V78.7825H106.367H97.9824V71.2645V63.7465H102.984H107.957L111.37 68.9797Z" fill="white"/>
<path d="M25.698 81.3841V86.8777H26.8548H28.0116V81.3841V75.8905H26.8548H25.698V81.3841Z" fill="white"/>
<path d="M29.7468 81.3841V86.8777H30.9036H32.0604V81.3841V75.8905H30.9036H29.7468V81.3841Z" fill="white"/>
<path d="M23.8476 88.6416C22.1124 90.03 21.6216 93.0948 22.9224 94.5984L23.616 95.4084H28.1556H32.6952L33.2448 93.9624C33.9672 92.0832 35.7888 89.9436 37.668 88.902L39.1428 88.0344H31.8852C24.9468 88.0344 24.5712 88.0632 23.8476 88.6416Z" fill="white"/>
<path d="M48.6552 88.6416C50.2452 89.4804 52.356 91.6776 53.1372 93.3252L53.8308 94.7424L54.3516 93.5568C55.0452 91.9956 57.5316 89.364 59.0352 88.6416L60.2496 88.0344H53.8884L47.5272 88.0632L48.6552 88.6416Z" fill="white"/>
<path d="M41.688 90.0577C39.0852 90.5785 36.6864 92.4577 35.472 94.9441C34.4604 96.9397 34.518 100.639 35.5872 102.635C37.6116 106.48 42.15 108.331 46.17 107.001C47.934 106.393 50.334 104.341 51.1716 102.721C53.7444 97.6609 50.9988 91.6477 45.4752 90.2017C43.6248 89.7397 43.4508 89.7109 41.688 90.0577ZM46.458 94.1641C48.9444 95.8405 49.5804 99.5713 47.7588 101.855C46.458 103.445 45.2148 104.081 43.3056 104.081C40.5876 104.081 38.4192 102.144 37.9572 99.3973C37.6104 97.2577 39.114 94.5685 41.1672 93.6145C42.5256 93.0073 45.0996 93.2677 46.458 94.1641Z" fill="white"/>
<path d="M62.5056 90.0577C59.9316 90.5785 57.648 92.4001 56.3184 94.9729C55.278 96.9385 55.3356 100.323 56.4336 102.549C57.8508 105.468 60.3948 107.117 63.72 107.349C67.4208 107.58 70.6296 105.672 72.2496 102.347C73.1748 100.41 73.2324 97.1713 72.336 95.2345C70.6296 91.4461 66.4668 89.2489 62.5056 90.0577ZM66.3804 93.6721C68.4624 94.5397 69.648 96.3613 69.648 98.5873C69.648 100.323 69.0984 101.566 67.8264 102.693C66.3516 103.993 64.7616 104.428 63.1128 103.993C61.2912 103.501 60.4824 102.894 59.586 101.391C58.314 99.1933 58.6608 96.3889 60.4536 94.7989C62.1588 93.2389 64.356 92.8333 66.3804 93.6721Z" fill="white"/>
<path d="M100.961 90.0577C98.4744 90.5785 96.132 92.4001 94.86 94.8001C94.224 96.0433 94.0788 96.6505 94.0788 98.5873C94.0788 100.553 94.194 101.161 94.8888 102.549C96.306 105.468 98.85 107.117 102.175 107.349C105.876 107.58 109.086 105.672 110.705 102.347C111.63 100.41 111.688 97.1713 110.791 95.2345C109.085 91.4461 104.922 89.2489 100.961 90.0577ZM104.834 93.6721C106.916 94.5397 108.102 96.3613 108.102 98.5873C108.102 100.323 107.552 101.566 106.28 102.693C104.777 103.993 103.216 104.428 101.538 103.965C98.82 103.271 97.2876 101.275 97.3164 98.5873C97.3464 94.6849 101.22 92.1685 104.834 93.6721Z" fill="white"/>
</svg>
