<svg width="50" height="65" viewBox="0 0 50 65" fill="none" xmlns="http://www.w3.org/2000/svg">
<path fill-rule="evenodd" clip-rule="evenodd" d="M9.85143 9.88429C13.8709 5.84096 19.3202 3.57143 25 3.57143C30.6798 3.57143 36.1291 5.84096 40.1486 9.88429C44.1684 13.9279 46.4286 19.4143 46.4286 25.1373C46.4286 35.0063 40.9573 43.937 35.2562 50.5321C32.4271 53.8048 29.5934 56.442 27.4668 58.2604C26.4561 59.1245 25.608 59.8013 25 60.2709C24.392 59.8013 23.5439 59.1245 22.5332 58.2604C20.4066 56.442 17.5729 53.8048 14.7438 50.5321C9.04268 43.937 3.57143 35.0063 3.57143 25.1373C3.57143 19.4143 5.83161 13.9279 9.85143 9.88429ZM23.9707 63.9593C23.9714 63.9596 23.972 63.96 25 62.5C26.028 63.96 26.0286 63.9596 26.0293 63.9593C25.4127 64.3934 24.5873 64.3934 23.9707 63.9593ZM23.9707 63.9593L25 62.5L26.0293 63.9593L26.0357 63.9547L26.052 63.9432L26.1087 63.9025C26.1575 63.8675 26.2277 63.8168 26.3177 63.7507C26.4977 63.6184 26.7575 63.4246 27.0859 63.1723C27.7423 62.6675 28.6734 61.9275 29.7877 60.9748C32.0138 59.0714 34.9836 56.3086 37.958 52.8677C43.8641 46.0355 50 36.2848 50 25.1373C50 18.4739 47.3686 12.0813 42.6814 7.36625C37.9937 2.65096 31.6337 0 25 0C18.3662 0 12.0063 2.65096 7.31857 7.36625C2.63143 12.0813 0 18.4739 0 25.1373C0 36.2848 6.13589 46.0355 12.042 52.8677C15.0164 56.3086 17.9862 59.0714 20.2123 60.9748C21.3266 61.9275 22.2577 62.6675 22.9141 63.1723C23.2425 63.4246 23.5023 63.6184 23.6823 63.7507C23.7723 63.8168 23.8425 63.8675 23.8913 63.9025L23.948 63.9432L23.9643 63.9547L23.9707 63.9593ZM17.8571 25C17.8571 21.0552 21.0552 17.8571 25 17.8571C28.9448 17.8571 32.1429 21.0552 32.1429 25C32.1429 28.9448 28.9448 32.1429 25 32.1429C21.0552 32.1429 17.8571 28.9448 17.8571 25ZM25 14.2857C19.0827 14.2857 14.2857 19.0827 14.2857 25C14.2857 30.9173 19.0827 35.7143 25 35.7143C30.9173 35.7143 35.7143 30.9173 35.7143 25C35.7143 19.0827 30.9173 14.2857 25 14.2857Z" fill="#0796DC"/>
</svg>
