<svg width="63" height="63" viewBox="0 0 63 63" fill="none" xmlns="http://www.w3.org/2000/svg">
<path d="M61.165 15.167H44.722C48.313 13.97 51.337 12.395 52.471 10.442L52.534 10.379C53.101 9.245 53.479 7.733 51.778 5.024C50.077 2.315 48.502 2 47.431 2C42.517 2 35.398 11.072 32.626 14.978L32.5 15.167H31.177L31.051 15.041C28.279 11.135 21.223 2 16.246 2C14.797 2 13.348 3.008 12.025 5.024C11.521 5.906 10.009 8.48901 11.332 10.442L11.458 10.568C12.655 12.584 15.616 14.096 18.829 15.167H2.575C1.693 15.167 1 15.86 1 16.742V27.137C1 28.019 1.693 28.712 2.575 28.712H4.33899V59.708C4.33899 60.59 5.03199 61.283 5.91399 61.283H57.826C58.708 61.283 59.401 60.59 59.401 59.708V28.712H61.165C62.047 28.712 62.74 28.019 62.74 27.137V16.742C62.74 15.923 62.047 15.167 61.165 15.167ZM47.431 5.213C47.62 5.213 48.187 5.213 49.132 6.725C50.014 8.174 49.888 8.615 49.762 8.93C48.817 10.505 44.155 12.521 37.54 13.781C42.139 7.92201 45.793 5.213 47.431 5.213ZM14.104 8.93L13.978 8.74101L13.915 8.678C13.915 8.489 13.978 7.922 14.671 6.725C15.49 5.465 16.057 5.213 16.183 5.213C17.821 5.213 21.475 7.92201 26.137 13.907C19.207 12.521 14.923 10.505 14.104 8.93ZM4.15 25.31V18.695C4.15 18.506 4.276 18.38 4.465 18.38H30.295V25.625H4.465C4.276 25.625 4.15 25.499 4.15 25.31ZM7.48899 28.775H30.295V58.196H7.48899V28.775ZM56.251 58.196H33.445V28.775H56.251V58.196ZM59.275 25.625H33.382V18.38H59.275C59.464 18.38 59.59 18.506 59.59 18.695V25.31C59.59 25.499 59.464 25.625 59.275 25.625Z" fill="white"/>
</svg>
