<svg width="15" height="23" viewBox="0 0 15 23" fill="none" xmlns="http://www.w3.org/2000/svg">
<path d="M5.2845 11.5049L13.8887 2.90024C14.1257 2.66389 14.256 2.34787 14.256 2.01091C14.256 1.67376 14.1257 1.35793 13.8887 1.1212L13.1348 0.367626C12.8982 0.13052 12.582 0 12.2451 0C11.9081 0 11.5923 0.13052 11.3556 0.367626L1.11084 10.6122C0.873174 10.8496 0.743028 11.167 0.743963 11.5043C0.743028 11.8431 0.872987 12.1601 1.11084 12.3977L11.346 22.6324C11.5828 22.8695 11.8986 23 12.2357 23C12.5727 23 12.8885 22.8695 13.1254 22.6324L13.8792 21.8788C14.3697 21.3883 14.3697 20.5899 13.8792 20.0996L5.2845 11.5049Z" fill="#0796DC"/>
</svg>
