<svg width="42" height="42" viewBox="0 0 42 42" fill="none" xmlns="http://www.w3.org/2000/svg">
<path d="M40.8457 35.279L31.2103 25.6428C29.7746 27.8756 27.8747 29.7746 25.6418 31.2104L35.278 40.8466C36.8164 42.3846 39.3106 42.3846 40.8457 40.8466C42.3841 39.3111 42.3841 36.8169 40.8457 35.279Z" fill="white"/>
<path d="M31.4998 15.75C31.4998 7.0523 24.4479 0 15.75 0C7.05229 0 0 7.0523 0 15.75C0 24.4477 7.05229 31.4997 15.75 31.4997C24.4479 31.4997 31.4998 24.4477 31.4998 15.75ZM15.75 27.5621C9.2362 27.5621 3.93761 22.2639 3.93761 15.7501C3.93761 9.23629 9.2362 3.9377 15.75 3.9377C22.2636 3.9377 27.5627 9.23629 27.5627 15.7501C27.5627 22.2639 22.2636 27.5621 15.75 27.5621Z" fill="white"/>
<path d="M6.5625 15.75H9.18717C9.18717 12.1315 12.1314 9.18755 15.7498 9.18755V6.56262C10.6846 6.56262 6.5625 10.6847 6.5625 15.75Z" fill="white"/>
</svg>
