<svg width="25" height="19" viewBox="0 0 25 19" fill="none" xmlns="http://www.w3.org/2000/svg">
<path d="M0 0V0.994358V17.6688V18.6632H25V17.6688V0.994358V0H0ZM15.2604 9.57639L12.9913 11.9514C12.7154 12.2183 12.2837 12.2179 12.0196 11.9627L9.73917 9.57639L9.75917 9.55599L1.51958 0.868055H23.4858L15.2404 9.55642L15.2604 9.57639ZM8.55167 9.56293L0.833333 17.2982V1.48568L8.55167 9.56293ZM9.13917 10.178L11.4404 12.5864C11.7358 12.8733 12.115 13.0174 12.4958 13.0174C12.8804 13.0174 13.2667 12.8702 13.5712 12.5747L15.8612 10.178L23.46 17.7951H1.53583L9.13917 10.178ZM16.4487 9.56337L24.1667 1.48524V17.2982L16.4487 9.56337Z" fill="#0796DC"/>
</svg>
