<svg width="25" height="26" viewBox="0 0 25 26" fill="none" xmlns="http://www.w3.org/2000/svg">
<path d="M23.4574 18.575L20.4324 15.525C19.9324 15.025 19.2574 14.725 18.6324 14.725C17.9574 14.725 17.3574 15 16.8324 15.525L15.0824 17.275C15.0074 17.225 14.9074 17.175 14.8324 17.15C14.8324 17.15 14.8074 17.15 14.8074 17.125L14.7824 17.1C14.5574 16.95 14.3074 16.8 14.0074 16.675C12.4824 15.725 11.0574 14.4 9.6074 12.625C8.9324 11.775 8.4574 11.025 8.0824 10.2C8.4824 9.875 8.7824 9.55 9.0074 9.3L9.7824 8.525C10.3824 7.975 10.6824 7.35 10.6824 6.7C10.6824 6.025 10.3824 5.4 9.8074 4.8L7.4324 2.425C7.2074 2.2 6.9824 1.975 6.7324 1.75C6.2324 1.275 5.6074 1 4.9574 1C4.2324 1 3.6324 1.25 3.0824 1.8L1.2574 3.625C0.532403 4.3 0.107403 5.15 0.00740292 6.2V6.225C-0.0425971 7.525 0.157402 8.725 0.707402 10.225C1.5824 12.575 2.9074 14.775 4.8824 17.2C7.4574 20.1 10.3574 22.35 13.5824 23.9L13.6574 23.925C14.6074 24.35 16.4074 25.15 18.4074 25.275H18.6824C20.0074 25.275 21.0074 24.85 21.8324 23.95C22.1324 23.6 22.4574 23.275 22.7324 22.975C22.9574 22.8 23.1074 22.625 23.2574 22.45L23.4574 22.25L23.5074 22.2C24.5574 21.05 24.5574 19.65 23.4574 18.575ZM22.5824 21.35L22.3324 21.6L22.3074 21.65C22.1824 21.8 22.0824 21.925 21.9574 22.025L21.8824 22.1C21.5824 22.4 21.2324 22.75 20.8824 23.15C20.3074 23.775 19.6574 24.05 18.6824 24.05H18.4824C16.7324 23.925 15.1324 23.225 14.1824 22.8L14.1324 22.775C11.0574 21.3 8.2824 19.15 5.8574 16.4C3.9574 14.1 2.7074 12 1.8824 9.8C1.3824 8.425 1.2074 7.425 1.2574 6.3C1.3324 5.575 1.6074 5 2.1074 4.55L3.9574 2.7C4.2574 2.4 4.5574 2.275 4.9324 2.275C5.2574 2.275 5.5574 2.425 5.8324 2.675L5.8574 2.7C6.0824 2.9 6.3074 3.125 6.5324 3.35L8.9074 5.725C9.3574 6.175 9.4324 6.525 9.4324 6.725C9.4324 6.925 9.3824 7.225 8.9074 7.65L8.1074 8.45C7.8324 8.75 7.5074 9.075 7.0824 9.425L7.0324 9.475L6.9824 9.55C6.7574 9.85 6.7324 10.125 6.8574 10.525L6.8824 10.625L6.9074 10.725C7.3324 11.65 7.8574 12.5 8.6074 13.45C10.1574 15.35 11.7074 16.775 13.3574 17.8L13.4324 17.85C13.6324 17.95 13.8324 18.05 14.0074 18.15C14.0824 18.225 14.1824 18.275 14.2574 18.3C14.3574 18.35 14.4324 18.375 14.4824 18.425L14.6574 18.55H14.7074L14.7824 18.575C14.9324 18.625 15.0324 18.625 15.1074 18.625C15.3574 18.625 15.5824 18.525 15.8074 18.3L17.6824 16.425C17.9824 16.125 18.2574 16 18.6074 16C18.9824 16 19.3324 16.225 19.5324 16.425L22.5824 19.475C23.1824 20.075 23.2074 20.7 22.5824 21.35Z" fill="#0796DC"/>
</svg>
