<svg width="71" height="70" viewBox="0 0 71 70" fill="none" xmlns="http://www.w3.org/2000/svg">
<path d="M57.2623 27.1079C57.2451 27.0597 57.2591 26.9459 57.2418 26.8977C56.4985 24.8254 53.933 24.5489 51.7106 24.3125C50.1089 24.1255 48.3927 23.9252 47.6931 23.197C46.9762 22.4207 46.9746 20.7352 47.0075 19.146C47.0273 16.9088 47.0298 14.6235 45.1861 13.7618C43.3424 12.9001 41.5727 14.0787 39.7857 15.2091C38.5297 15.9859 37.2424 16.8284 36.1814 16.7738C35.1204 16.7192 33.9113 15.793 32.7681 14.8977C31.112 13.6423 29.2724 12.1808 27.2328 12.9123C25.1931 13.6438 24.7017 15.9414 24.2869 17.9939C23.9905 19.4599 23.6942 20.926 22.9098 21.6425C22.1254 22.3589 20.5475 22.5441 19.0667 22.6944C16.9514 22.9092 14.7875 23.1414 13.9429 24.9128C13.0672 26.7499 14.473 28.5301 15.8129 30.2796C16.8171 31.5512 17.7727 32.8402 17.7299 33.9434C17.6698 34.9984 16.552 36.1608 15.4828 37.3057C13.9831 38.9314 12.2752 40.7406 13.0011 42.7647C13.0184 42.8129 13.0529 42.9093 13.1188 42.94C13.1361 42.9882 13.1221 43.102 13.1394 43.1502C13.8653 45.1743 16.3511 45.5338 18.5248 45.7876C20.078 45.992 21.6798 46.1791 22.3967 46.9554C23.1136 47.7317 23.1637 49.3998 23.2452 51.0024C23.3226 53.2047 23.3686 55.4726 25.2123 56.3343C27.0561 57.196 28.857 55.9518 30.5781 54.7906C31.8169 53.9656 33.1528 53.1057 34.2137 53.1603C35.2747 53.2149 36.4353 54.1585 37.5958 55.1021C39.2206 56.423 41.0602 57.8845 43.0998 57.153C45.1394 56.4215 45.6794 54.1065 46.1116 52.1022C46.4252 50.6844 46.7701 49.2009 47.5545 48.4844C48.3875 47.7505 49.8509 47.552 51.3317 47.4017C53.3812 47.1561 55.5451 46.924 56.4209 45.0869C57.2967 43.2498 55.8423 41.487 54.4052 39.7724C53.3525 38.5182 52.2998 37.264 52.3599 36.209C52.42 35.154 53.5863 33.9742 54.7527 32.7944C56.3009 31.1513 58.106 29.3073 57.38 27.2832C57.3455 27.1868 57.2796 27.156 57.2623 27.1079ZM53.6061 31.7371C52.2974 33.1311 50.8915 34.56 50.81 36.1666C50.6972 37.8388 51.9993 39.3298 53.187 40.8076C54.3402 42.1889 55.476 43.5221 54.9896 44.458C54.4891 45.5078 52.8627 45.7104 51.1218 45.8996C49.381 46.0888 47.6574 46.3262 46.4565 47.4096C45.3042 48.4756 44.914 50.1385 44.5724 51.784C44.1682 53.5607 43.7953 55.2718 42.5327 55.7246C41.3186 56.1601 39.9433 55.076 38.4848 53.913C37.1579 52.8115 35.7826 51.7274 34.2154 51.6368C32.5997 51.5636 31.0868 52.5413 29.6398 53.5498C28.1755 54.5101 26.8083 55.4356 25.7721 54.9913C24.7844 54.5297 24.7169 52.8134 24.6807 51.0314C24.6099 49.1531 24.5704 47.2092 23.4379 46.038C22.3539 44.8494 20.4575 44.6049 18.6269 44.3912C16.7305 44.1467 14.9485 43.9156 14.5164 42.7107C14.4991 42.6626 14.4646 42.5662 14.3987 42.5354C14.3814 42.4872 14.3954 42.3734 14.3781 42.3252C13.9633 41.1686 15.1922 39.8576 16.4837 38.4153C17.7611 37.0869 19.0699 35.6929 19.1514 34.0863C19.2156 32.4315 18.0592 30.8882 16.9373 29.4412C15.8154 27.9943 14.7767 26.6263 15.2632 25.6903C15.7636 24.6406 17.4074 24.4862 19.1655 24.3451C20.9063 24.1559 22.713 23.9975 23.9139 22.9141C25.0663 21.8481 25.4392 20.137 25.7635 18.4433C26.1504 16.6184 26.4747 14.9247 27.7373 14.4719C28.9999 14.0191 30.3753 15.1031 31.8165 16.218C33.1746 17.2539 34.5327 18.2897 36.0513 18.3978C37.6671 18.471 39.1314 17.5107 40.6129 16.5986C42.0772 15.6383 43.4617 14.761 44.5152 15.2534C45.4857 15.6668 45.456 17.418 45.4436 19.2174C45.4173 21.1305 45.4082 23.0919 46.558 24.3112C47.642 25.4998 49.6356 25.7095 51.532 25.954C53.5255 26.1636 55.3734 26.4256 55.7882 27.5822C55.8055 27.6304 55.84 27.7268 55.9059 27.7575C55.9232 27.8057 55.9092 27.9195 55.9265 27.9677C56.3207 28.9141 55.012 30.3082 53.6061 31.7371Z" fill="white"/>
<path d="M38.1809 27.1812L29.5019 40.6767C29.3327 40.9537 29.3908 41.3655 29.7113 41.5101C29.8853 41.6208 30.0714 41.6406 30.2697 41.5694C30.3887 41.5268 30.5336 41.4315 30.5855 41.3264L39.2645 27.8308C39.4337 27.5538 39.3756 27.1421 39.0551 26.9974C38.7605 26.8002 38.3898 26.8899 38.1809 27.1812Z" fill="white"/>
<path d="M30.9148 34.9637C31.0883 34.9015 31.2618 34.8393 31.4221 34.7401C33.1211 33.8805 33.8623 31.9883 33.002 30.5453C32.6069 29.853 31.8912 29.3591 31.0381 29.1646C30.185 28.9701 29.2511 29.0965 28.4233 29.5185C27.5955 29.9406 26.9604 30.627 26.6519 31.4049C26.3434 32.1828 26.3916 32.9996 26.7867 33.6919C27.5638 35.0396 29.3531 35.5238 30.9148 34.9637ZM29.0076 30.6017C29.0944 30.5706 29.2113 30.487 29.298 30.4559C30.2524 30.1136 31.332 30.3936 31.7669 31.1968C32.2717 32.0583 31.8391 33.1726 30.8076 33.7094C29.7762 34.2461 28.5532 33.9758 28.0483 33.1143C27.5435 32.2528 28.0196 31.1229 29.0076 30.6017Z" fill="white"/>
<path d="M37.8457 33.5403C36.025 34.1933 35.0797 36.1958 35.7327 38.0164C36.3857 39.8371 38.3882 40.7823 40.2088 40.1293C42.0295 39.4764 42.9747 37.4739 42.3218 35.6532C41.6254 33.8481 39.623 32.9029 37.8457 33.5403ZM39.7269 38.7855C38.6431 39.1742 37.4063 38.5904 37.0176 37.5066C36.629 36.4229 37.2128 35.1861 38.2965 34.7974C39.3802 34.4087 40.6171 34.9926 41.0057 36.0763C41.3666 37.2189 40.8106 38.3968 39.7269 38.7855Z" fill="white"/>
</svg>
