<svg width="18" height="18" viewBox="0 0 18 18" fill="none" xmlns="http://www.w3.org/2000/svg">
<g clip-path="url(#clip0_25_38)">
<path d="M8.50372 0.721905C8.59692 0.533101 8.78919 0.413574 8.99976 0.413574C9.21033 0.413538 9.40264 0.533065 9.49584 0.721869L11.6535 5.0931C11.8564 5.50413 12.2485 5.78908 12.7022 5.85496L17.5264 6.55624C17.7347 6.58655 17.9078 6.73248 17.973 6.93275C18.038 7.13299 17.9838 7.35283 17.833 7.49982L14.3424 10.9027C14.0142 11.2227 13.8644 11.6837 13.9419 12.1355L14.7655 16.9394C14.801 17.147 14.7157 17.3567 14.5454 17.4804C14.3751 17.6042 14.1492 17.6205 13.9629 17.5225L9.6479 15.2544C9.24218 15.0411 8.75746 15.0411 8.35166 15.2545L4.0371 17.5224C3.85071 17.6204 3.62487 17.604 3.45455 17.4803C3.28418 17.3565 3.19891 17.1468 3.23448 16.9393L4.05846 12.1357C4.13599 11.6838 3.98619 11.2227 3.65789 10.9026L0.167129 7.49986C0.0163777 7.35287 -0.0379263 7.13303 0.0271508 6.93279C0.092228 6.73256 0.265329 6.58663 0.473707 6.55628L5.29774 5.85504C5.75138 5.78908 6.14356 5.50416 6.34646 5.09307L8.50372 0.721905Z" fill="#FFC107"/>
</g>
<defs>
<clipPath id="clip0_25_38">
<rect width="18" height="18" fill="white"/>
</clipPath>
</defs>
</svg>
