<svg width="27" height="28" viewBox="0 0 27 28" fill="#595959" xmlns="http://www.w3.org/2000/svg">
<path d="M23.0066 0.703369H4.15618C2.02791 0.703369 0.406372 2.35106 0.406372 4.51366V23.6681C0.406372 25.8307 2.02791 27.4784 4.15618 27.4784H23.0066C25.1348 27.4784 26.7564 25.8307 26.7564 23.6681V4.51366C26.7564 2.35106 25.1348 0.703369 23.0066 0.703369ZM13.5814 22.1234C17.9393 22.1234 21.4864 18.622 21.4864 14.3998C21.4864 13.6789 21.385 12.8551 21.1823 12.2372H23.4119V23.1532C23.4119 23.6681 23.0066 24.183 22.3985 24.183H4.76426C4.25753 24.183 3.7508 23.7711 3.7508 23.1532V12.1342H6.08176C5.87907 12.8551 5.77772 13.576 5.77772 14.2968C5.67637 18.622 9.22348 22.1234 13.5814 22.1234ZM13.5814 19.0339C10.7437 19.0339 8.51406 16.7684 8.51406 13.9879C8.51406 11.2074 10.7437 8.94183 13.5814 8.94183C16.4191 8.94183 18.6487 11.2074 18.6487 13.9879C18.6487 16.8714 16.4191 19.0339 13.5814 19.0339ZM23.3106 8.015C23.3106 8.63289 22.8039 9.14779 22.1958 9.14779H19.3581C18.75 9.14779 18.2433 8.63289 18.2433 8.015V5.23452C18.2433 4.61664 18.75 4.10173 19.3581 4.10173H22.1958C22.8039 4.10173 23.3106 4.61664 23.3106 5.23452V8.015Z"/>
</svg>
