<svg width="191" height="49" viewBox="0 0 191 49" fill="#888888" xmlns="http://www.w3.org/2000/svg">
<g style="mix-blend-mode:luminosity" opacity="0.25" clip-path="url(#clip0)">
<g opacity="0.5">
<path d="M63.9923 38.1912C63.9074 38.1082 63.8405 38.0088 63.7958 37.8992C63.751 37.7896 63.7292 37.6721 63.7318 37.5538V13.3125C63.7249 13.1897 63.7427 13.0669 63.7843 12.9511C63.8258 12.8353 63.8902 12.7289 63.9737 12.6381C64.0569 12.5508 64.1582 12.4824 64.2707 12.4378C64.3831 12.3931 64.5039 12.3732 64.6248 12.3794H75.5088C78.4298 12.3794 80.6004 13.0168 82.0206 14.2917C82.7489 14.9522 83.3216 15.764 83.6979 16.6694C84.0741 17.5748 84.2447 18.5515 84.1974 19.5299C84.2253 20.6157 83.9396 21.6868 83.3742 22.6166C82.8088 23.5465 81.9873 24.2962 81.0066 24.7772C82.1331 25.3188 83.0812 26.1676 83.7401 27.2244C84.399 28.2812 84.7415 29.5023 84.7277 30.7452C84.762 31.784 84.5684 32.8177 84.1604 33.7749C83.7524 34.732 83.1397 35.5896 82.3648 36.2881C80.5134 37.8012 78.1531 38.5606 75.76 38.413H64.6248C64.5097 38.4208 64.3943 38.4051 64.2855 38.367C64.1767 38.3289 64.0769 38.2691 63.9923 38.1912ZM74.8297 23.0958C75.8946 23.1664 76.9473 22.8366 77.7786 22.172C78.1202 21.8541 78.3885 21.4666 78.5651 21.036C78.7417 20.6055 78.8225 20.1421 78.8019 19.6777C78.828 19.2252 78.7512 18.7727 78.5773 18.3538C78.4034 17.9348 78.1368 17.56 77.7972 17.2572C76.9426 16.6291 75.8904 16.3245 74.8297 16.3981H69.0156V23.0958H74.8297ZM75.2018 34.4959C75.7547 34.5299 76.3087 34.4534 76.8312 34.2709C77.3538 34.0885 77.8341 33.8037 78.2438 33.4335C78.947 32.7073 79.3398 31.7388 79.3398 30.7313C79.3398 29.7238 78.947 28.7554 78.2438 28.0291C77.4174 27.2913 76.3301 26.9092 75.2204 26.9667H69.0156V34.4959H75.2018Z"/>
<path d="M89.9464 36.5931C89.1232 35.7835 88.4705 34.8192 88.0265 33.7565C87.5825 32.6938 87.356 31.5539 87.3603 30.4034V28.7682V27.1238C87.3599 25.9746 87.5918 24.837 88.0425 23.7785C88.4931 22.72 89.1532 21.7622 89.9836 20.9618C91.8708 19.3706 94.3031 18.5632 96.7745 18.7077C99.234 18.5671 101.653 19.3746 103.528 20.9618C104.355 21.7647 105.013 22.723 105.463 23.781C105.914 24.8389 106.148 25.9752 106.151 27.1238C106.151 27.4287 106.151 27.9737 106.151 28.7682C106.151 29.5627 106.151 30.1078 106.151 30.4034C106.154 31.5536 105.926 32.6929 105.482 33.7553C105.038 34.8178 104.387 35.7823 103.565 36.5931C101.965 38.0804 99.6955 38.801 96.7466 38.801C93.7977 38.801 91.5464 38.0804 89.9464 36.5931ZM99.8257 33.8216C100.617 32.7853 101.021 31.5087 100.97 30.2094C100.97 29.9599 100.97 29.4796 100.97 28.759C100.97 28.0384 100.97 27.558 100.97 27.3086C101.017 26.0012 100.606 24.7181 99.8071 23.6779C99.4261 23.2525 98.9524 22.919 98.4221 22.7029C97.8917 22.4867 97.3186 22.3937 96.7466 22.4307C96.1711 22.3961 95.5953 22.4911 95.0621 22.7087C94.5289 22.9262 94.0521 23.2607 93.6674 23.6871C92.8726 24.7294 92.4622 26.011 92.5046 27.3178V28.7682V30.2186C92.4588 31.5201 92.8699 32.797 93.6674 33.8308C94.0524 34.2579 94.5288 34.5941 95.0616 34.8147C95.5943 35.0353 96.1701 35.1347 96.7466 35.1057C97.3237 35.1401 97.9011 35.0432 98.4347 34.8222C98.9684 34.6013 99.4441 34.2622 99.8257 33.8308V33.8216Z"/>
<path d="M110.84 36.4174C109.393 34.569 108.614 32.2917 108.626 29.9506V28.7219V27.4932C108.613 25.1777 109.386 22.9253 110.821 21.1003C111.57 20.3257 112.468 19.7094 113.462 19.2883C114.457 18.8673 115.527 18.6503 116.607 18.6503C117.688 18.6503 118.758 18.8673 119.753 19.2883C120.747 19.7094 121.645 20.3257 122.394 21.1003V12.9337C122.387 12.8136 122.407 12.6936 122.452 12.5819C122.497 12.4703 122.566 12.3697 122.654 12.287C122.828 12.1253 123.058 12.036 123.296 12.0375H126.515C126.759 12.0312 126.997 12.1208 127.175 12.287C127.337 12.4634 127.424 12.6952 127.417 12.9337V37.5538C127.421 37.7891 127.335 38.0171 127.175 38.1912C127.09 38.2787 126.987 38.3471 126.873 38.3918C126.759 38.4364 126.637 38.4562 126.515 38.4499H123.482C123.235 38.4499 122.999 38.3525 122.824 38.1793C122.65 38.006 122.552 37.7711 122.552 37.526V36.1773C121.813 36.991 120.913 37.6458 119.91 38.1013C118.906 38.5568 117.819 38.8035 116.716 38.826C115.612 38.8485 114.516 38.6464 113.494 38.2322C112.473 37.8179 111.547 37.2003 110.775 36.4174H110.84ZM121.249 33.4427C121.965 32.4591 122.363 31.2836 122.394 30.0707C122.394 29.7751 122.394 29.3039 122.394 28.6573C122.394 28.0106 122.394 27.5025 122.394 27.2069C122.378 26.0448 121.969 24.9218 121.231 24.0196C120.841 23.5768 120.354 23.229 119.807 23.0032C119.26 22.7773 118.668 22.6794 118.077 22.717C115.398 22.717 113.972 24.3553 113.798 27.6318V28.7497V29.8675C113.972 33.144 115.398 34.7823 118.077 34.7823C118.676 34.8296 119.277 34.7325 119.829 34.4993C120.381 34.266 120.869 33.9035 121.249 33.4427Z"/>
<path d="M132.933 36.4174C131.487 34.569 130.707 32.2917 130.719 29.9506V28.7219V27.4932C130.706 25.1777 131.48 22.9253 132.915 21.1003C133.634 20.2767 134.533 19.6284 135.545 19.2055C136.556 18.7826 137.652 18.5964 138.748 18.6614C139.829 18.6177 140.906 18.8159 141.899 19.2412C142.893 19.6666 143.777 20.3082 144.487 21.1188V12.9337C144.481 12.8136 144.501 12.6936 144.546 12.5819C144.591 12.4703 144.66 12.3697 144.748 12.287C144.919 12.1275 145.145 12.0384 145.38 12.0375H148.645C148.89 12.0312 149.127 12.1208 149.306 12.287C149.468 12.4634 149.554 12.6952 149.548 12.9337V37.5538C149.552 37.7891 149.465 38.0171 149.306 38.1912C149.221 38.2787 149.118 38.3471 149.004 38.3918C148.89 38.4364 148.768 38.4562 148.645 38.4499H145.613C145.366 38.4499 145.129 38.3525 144.955 38.1793C144.781 38.006 144.683 37.7711 144.683 37.526V36.1773C143.943 36.991 143.044 37.6458 142.04 38.1013C141.037 38.5568 139.95 38.8035 138.846 38.826C137.743 38.8485 136.647 38.6464 135.625 38.2322C134.603 37.8179 133.678 37.2003 132.906 36.4174H132.933ZM143.343 33.4427C144.058 32.4591 144.457 31.2836 144.487 30.0707C144.487 29.7751 144.487 29.3039 144.487 28.6573C144.487 28.0106 144.487 27.5025 144.487 27.2069C144.472 26.0448 144.062 24.9218 143.324 24.0196C142.935 23.5768 142.447 23.229 141.901 23.0032C141.354 22.7773 140.762 22.6794 140.171 22.717C137.492 22.717 136.065 24.3553 135.892 27.6318V28.7497V29.8675C136.065 33.144 137.492 34.7823 140.171 34.7823C140.769 34.8296 141.37 34.7325 141.923 34.4993C142.475 34.266 142.962 33.9035 143.343 33.4427Z"/>
<path d="M155.353 36.4451C153.621 34.6126 152.685 32.1766 152.748 29.6642V28.7404C152.748 25.6609 153.567 23.2159 155.204 21.4051C157.059 19.6775 159.507 18.7159 162.05 18.7159C164.594 18.7159 167.042 19.6775 168.897 21.4051C170.583 23.4001 171.447 25.9544 171.316 28.5556V29.3316C171.315 29.5695 171.222 29.7978 171.055 29.9691C170.965 30.0553 170.859 30.1226 170.742 30.167C170.626 30.2115 170.501 30.2321 170.376 30.2277H157.911V30.4864C157.914 31.738 158.322 32.9556 159.074 33.96C159.418 34.407 159.866 34.7648 160.379 35.0028C160.893 35.2409 161.456 35.3522 162.023 35.3273C162.7 35.3391 163.371 35.1892 163.978 34.8902C164.585 34.5911 165.111 34.1518 165.511 33.609C165.653 33.4127 165.829 33.2437 166.032 33.1101C166.237 33.034 166.456 33.0025 166.674 33.0177H169.976C170.185 33.009 170.389 33.0746 170.553 33.2025C170.633 33.262 170.698 33.3405 170.74 33.4308C170.782 33.5211 170.801 33.6204 170.795 33.7198C170.7 34.5253 170.321 35.2714 169.725 35.8261C168.868 36.7332 167.829 37.4509 166.674 37.9325C165.208 38.5678 163.622 38.8828 162.023 38.8563C160.805 38.9172 159.587 38.7352 158.442 38.3211C157.296 37.907 156.246 37.2691 155.353 36.4451ZM166.097 27.0498V26.9758C166.163 25.7089 165.77 24.4604 164.99 23.456C164.609 23.0394 164.144 22.7065 163.626 22.4786C163.108 22.2508 162.547 22.1331 161.981 22.1331C161.414 22.1331 160.853 22.2508 160.335 22.4786C159.817 22.7065 159.352 23.0394 158.971 23.456C158.206 24.467 157.82 25.7123 157.883 26.9758V27.0498H166.097Z"/>
<path d="M176.497 38.0619C175.488 37.6139 174.613 36.9136 173.958 36.0294C173.351 35.1963 173.025 34.1938 173.027 33.1656C173.011 32.3668 173.19 31.5759 173.55 30.8613C173.91 30.1467 174.439 29.5298 175.093 29.0638C176.776 27.9038 178.722 27.174 180.758 26.9389L185.893 26.1999V25.4146C185.927 24.9765 185.872 24.536 185.729 24.12C185.587 23.7039 185.361 23.3209 185.065 22.9942C184.704 22.6926 184.286 22.4648 183.836 22.3237C183.386 22.1826 182.912 22.1311 182.442 22.172C181.752 22.1373 181.066 22.294 180.46 22.6246C180.016 22.8838 179.604 23.1938 179.232 23.5485L178.618 24.1674C178.59 24.2953 178.518 24.4095 178.415 24.4904C178.311 24.5713 178.183 24.6139 178.051 24.6109H175.167C174.95 24.6133 174.741 24.5341 174.581 24.3892C174.501 24.3129 174.438 24.2209 174.397 24.119C174.355 24.0172 174.335 23.9078 174.339 23.7979C174.432 23.0196 174.755 22.2863 175.269 21.6916C175.995 20.8006 176.927 20.097 177.986 19.6407C179.414 19.0168 180.965 18.717 182.525 18.763C185.474 18.763 187.632 19.419 188.981 20.74C189.661 21.4166 190.192 22.2255 190.541 23.1159C190.89 24.0063 191.049 24.9588 191.009 25.9135V37.5538C191.011 37.7903 190.921 38.0185 190.758 38.1912C190.675 38.2785 190.574 38.3469 190.461 38.3915C190.349 38.4362 190.228 38.4561 190.107 38.4499H186.981C186.863 38.4534 186.746 38.4322 186.637 38.3876C186.528 38.3431 186.43 38.2761 186.349 38.1912C186.262 38.109 186.194 38.0099 186.147 37.9003C186.101 37.7906 186.078 37.6727 186.079 37.5538V36.1033C185.483 36.9408 184.683 37.6146 183.753 38.0619C182.591 38.6041 181.316 38.8668 180.032 38.8286C178.81 38.8455 177.601 38.5831 176.497 38.0619ZM184.656 33.9046C185.121 33.3773 185.476 32.7637 185.701 32.0994C185.926 31.435 186.017 30.733 185.967 30.0338V29.2855L182.246 29.886C179.372 30.3294 177.93 31.2902 177.93 32.7498C177.918 33.1174 178.004 33.4817 178.179 33.806C178.353 34.1303 178.611 34.4033 178.925 34.5975C179.636 35.0438 180.466 35.269 181.307 35.2442C181.928 35.263 182.546 35.1537 183.123 34.9231C183.699 34.6926 184.221 34.3458 184.656 33.9046Z"/>
</g>
<path d="M24.6518 48.963C38.2666 48.963 49.3035 38.0023 49.3035 24.4815C49.3035 10.9608 38.2666 0 24.6518 0C11.037 0 0 10.9608 0 24.4815C0 38.0023 11.037 48.963 24.6518 48.963Z" fill="#888888"/>
<path d="M5.86987 8.6102C7.20202 8.2133 8.60578 8.11237 9.9816 8.31458C10.6928 8.3785 11.3985 8.49273 12.0933 8.6564C12.6582 8.79011 13.2026 8.99828 13.7119 9.27536L14.8096 9.88509C14.9957 9.99595 15.8422 10.4024 16.0097 10.541L17.126 11.1969C17.5378 11.4285 17.9271 11.6976 18.2888 12.0007C18.7911 12.3979 19.5167 12.9799 19.619 13.0723L20.9028 14.2548C21.8331 15.1325 22.6331 15.8161 23.0796 16.2595C23.2377 16.4258 23.4703 16.6568 23.8517 17.1002C24.3162 17.6439 24.7158 18.2391 25.0424 18.874C25.2864 19.2159 25.4515 19.607 25.5262 20.0195C25.6826 20.8665 25.5722 21.7408 25.2099 22.5231C25.1164 22.7458 25.0076 22.9619 24.8843 23.1698C24.5611 23.655 24.1937 24.1095 23.7866 24.5278C23.3906 24.9219 23.0324 25.3518 22.7168 25.8119C22.3096 26.4545 21.9964 27.1513 21.7865 27.8813L21.7214 28.1123C21.5879 28.9682 21.566 29.8376 21.6563 30.699L22.0191 34.3019L22.3633 38.1728L22.8005 45.1015C22.8115 45.3368 22.8364 45.5713 22.8749 45.8036L23.2563 48.3165C23.2563 48.5289 23.3308 48.7322 23.3773 48.9354L23.9912 48.9909H24.6889L26.0471 48.9631H26.3076L27.1355 48.8615L27.1913 48.6306C27.2564 48.3996 27.303 48.1779 27.3495 47.9469L27.5541 46.7829C27.6005 46.4987 27.6657 46.2179 27.7495 45.9422L29.4611 39.9835L30.8565 34.7546C30.8565 34.7546 31.7868 30.3572 31.7868 29.9322C31.806 29.5938 31.806 29.2545 31.7868 28.916C31.7868 28.5372 31.6658 28.3063 31.5914 27.8906C31.517 27.4748 30.5588 21.821 30.5588 21.6732C30.5337 21.3645 30.5493 21.054 30.6054 20.7493C30.6438 20.5548 30.6967 20.3634 30.7635 20.1766C30.8169 19.9959 30.8919 19.8222 30.9868 19.6592C31.1356 19.3728 31.2565 19.1326 31.6658 18.1811C31.8372 17.8036 31.926 17.3942 31.9263 16.9801C31.903 16.4882 31.7593 16.0094 31.5077 15.5851C31.3682 15.4004 31.4147 15.4004 31.0426 14.8368C30.7121 14.4467 30.4965 13.9736 30.4193 13.4696C30.4195 13.0727 30.4888 12.6789 30.624 12.3055L31.1356 11.0306C31.4054 10.384 31.5821 9.97747 31.917 9.32155C32.1031 8.94278 32.4287 8.27762 32.6426 7.88038C32.9713 7.26224 33.3411 6.66659 33.7496 6.09738C34.0661 5.64845 34.4142 5.22241 34.7915 4.8225C35.4645 4.12723 36.3336 3.65057 37.2846 3.45523L36.9032 3.24275L36.5962 3.05798L36.2241 2.85474C35.7642 2.95917 35.3156 3.10768 34.8845 3.29818C33.2654 4.16735 31.9026 5.44109 30.9309 6.9935C29.8612 8.60097 28.689 11.2708 28.1867 12.0099C27.8785 12.446 27.4543 12.7884 26.9615 12.9988C26.4687 13.2093 25.9266 13.2795 25.3959 13.2016C24.5153 13.1265 23.6536 12.9048 22.847 12.5457C22.6331 12.4533 22.0098 12.1023 21.8051 11.9822C20.6051 11.2524 19.9911 10.8921 18.0841 9.65413C15.5724 7.8232 12.4969 6.91835 9.38624 7.09512C8.57376 7.13403 7.76531 7.23284 6.96757 7.39075L5.86987 8.6102Z" fill="white"/>
<path d="M26.4426 10.3616C27.3944 9.41639 27.2059 7.69667 26.0216 6.52054C24.8373 5.3444 23.1056 5.15722 22.1538 6.10246C21.202 7.0477 21.3905 8.76741 22.5748 9.94355C23.7591 11.1197 25.4908 11.3069 26.4426 10.3616Z" fill="white"/>
<path d="M22.5773 26.0427C21.5029 26.1705 20.4156 26.1425 19.3493 25.9596C17.0516 25.3868 18.6702 24.4168 19.1726 24.1119C20.4536 23.4404 21.8589 23.0349 23.3029 22.9202C23.4982 22.9202 23.7401 22.9202 23.9448 22.8648C24.2047 22.8886 24.4663 22.8886 24.7262 22.8648C24.7891 22.7931 24.8452 22.7158 24.8936 22.6338C24.8936 22.6338 24.9774 22.6338 24.5401 22.6338C23.1658 22.5683 21.7898 22.7243 20.4656 23.0957C19.4214 23.3881 18.4318 23.8468 17.5353 24.4537C16.8004 25.1281 17.0609 26.015 17.926 26.4954C18.9611 26.9822 20.1042 27.1984 21.247 27.1236H22.075L22.5773 26.0427Z" fill="white"/>
<path d="M34.7636 24.1951C34.6613 24.1027 34.6055 23.9918 34.559 23.9918C34.4779 24.0246 34.4 24.0648 34.3264 24.1119C34.4294 24.221 34.5142 24.3458 34.5776 24.4815C34.8038 24.9439 34.9094 25.4553 34.8846 25.9688C34.8195 27.0959 33.8055 28.1029 32.9589 28.7403C31.146 30.1066 29.0781 31.102 26.8751 31.6689C23.6407 32.715 20.1808 32.8683 16.8655 32.1123C16.2143 31.983 13.7027 31.3086 13.2189 31.1885C12.7352 31.0684 9.8328 29.812 9.8142 29.7935C7.34902 28.7496 3.93498 27.1144 0.16745 27.3823C0.249257 28.4547 0.439364 29.5163 0.734906 30.551C0.874444 30.551 1.46981 30.3663 1.60004 30.3478C2.4424 30.2877 3.28889 30.3721 4.10243 30.5972C4.65128 30.8097 6.05597 31.1608 7.20948 31.6134C8.69169 32.1508 10.2044 32.6011 11.7398 32.9622C13.2997 33.357 14.8805 33.6655 16.4748 33.8861C22.1775 34.6732 27.9686 33.2833 32.6799 29.9967C33.5682 29.373 34.3212 28.5781 34.8939 27.6594C35.2535 27.1461 35.4353 26.5306 35.4118 25.9056C35.3883 25.2807 35.1608 24.6803 34.7636 24.1951Z" fill="white"/>
<path d="M21.8982 32.602L22.0284 33.9323C25.443 33.5884 28.73 32.4592 31.6287 30.6343C31.6952 30.4377 31.7298 30.2319 31.731 30.0245C31.731 29.9137 31.731 29.7012 31.731 29.618C30.2216 30.531 28.5899 31.2276 26.8844 31.6874C25.2565 32.154 23.5864 32.4603 21.8982 32.602Z" fill="url(#paint1_linear)"/>
<path d="M23.2564 25.9595L22.5494 26.0426L22.4005 26.3106C22.257 26.5647 22.1357 26.8305 22.0377 27.1051C25.1398 26.983 28.1953 26.3136 31.0612 25.1281C31.0612 24.8509 30.9496 24.4814 30.9031 24.2042C28.4236 25.0554 25.8604 25.6437 23.2564 25.9595Z" fill="#888888"/>
<path d="M36.5683 20.6384C34.8762 22.0961 32.9766 23.2977 30.931 24.2043L31.0891 25.1282C34.3111 23.926 37.2475 22.0741 39.7131 19.6891C42.1787 17.3041 44.1202 14.4378 45.415 11.2707C44.744 10.2257 43.988 9.23696 43.1545 8.31445C43.0243 8.73942 42.7173 9.64477 42.5871 10.0605C41.3126 14.0607 39.7963 17.8669 36.5683 20.6384Z" fill="white"/>
<path d="M33.0706 23.5208L32.6241 23.7517L32.5403 23.7979L32.8566 24.3799H32.9311L33.3776 24.1582H33.4613L33.1543 23.5485L33.0706 23.5208Z" fill="url(#paint3_linear)"/>
<path d="M43.629 11.936L43.3685 12.5827L44.4848 13.2571V13.2017C44.5965 12.9707 44.6802 12.8229 44.6988 12.7767L44.8011 12.5642L43.629 11.936Z" fill="url(#paint4_linear)"/>
<path d="M41.4708 15.9915L41.1638 16.4072L41.108 16.4811L41.9638 17.1833L42.122 16.9708L42.2894 16.7583L42.4196 16.5735L41.4894 15.9176L41.4708 15.9915Z" fill="url(#paint5_linear)"/>
<path d="M40.0568 17.7559L39.7219 18.1532L39.6661 18.2178L40.4289 18.9661L40.5033 18.8922C40.6149 18.7721 40.708 18.6797 40.801 18.5689L40.9312 18.4765V18.3841L40.0847 17.682L40.0568 17.7559Z" fill="#888888"/>
<path d="M34.5218 22.6985L34.8939 23.3082L35.5079 22.9387L35.1265 22.3197L34.5218 22.6985Z" fill="#888888"/>
<path d="M36.8753 20.9985L36.4846 21.3311L36.4195 21.3865L36.9032 22.0332L37.1451 21.8484L37.4614 21.6175L36.9497 20.9338L36.8753 20.9985Z" fill="url(#paint8_linear)"/>
<path d="M38.1033 19.8624L38.7545 20.5737L39.0056 20.3612L39.2847 20.1025L38.6242 19.382L38.1033 19.8624Z" fill="#888888"/>
<path d="M42.6615 14.07L42.4103 14.5319V14.6058L43.3406 15.2432L43.3871 15.1693C43.4894 15.0215 43.5825 14.8552 43.6755 14.7074L43.722 14.6243L42.7173 13.9868L42.6615 14.07Z" fill="#888888"/>
<path d="M12.791 33.2578H12.8747L13.3957 33.3687H13.4794L13.6655 32.5372L13.0236 32.334L12.791 33.2578Z" fill="#888888"/>
<path d="M17.3865 33.96H17.4702H17.8423H18.0935V33.0361L17.3865 32.9807V33.96Z" fill="url(#paint12_linear)"/>
<path d="M15.2097 32.7867L15.0887 33.5627V33.6643H15.1725L15.6748 33.7474H15.7864L15.8981 32.8236L15.4888 32.7682L15.2097 32.7867Z" fill="url(#paint13_linear)"/>
<path d="M20.354 33.1378H19.6749V34.0616H20.4656L20.354 33.1378Z" fill="#888888"/>
<path d="M8.37231 32.0016H8.45604L8.96768 32.1679H9.0514L9.30257 31.087L8.62348 30.8745L8.37231 32.0016Z" fill="#888888"/>
<path d="M1.72095 30.3293H2.50236L2.85586 28.8512L2.12096 28.6387L1.72095 30.3293Z" fill="#888888"/>
<path d="M3.89777 30.5512H4.00009H4.05591H4.12103C4.23266 30.5512 4.29778 30.6158 4.4001 30.6436L4.65127 30.7637L5.05128 29.4703L4.3722 29.2578L3.89777 30.5512Z" fill="#888888"/>
<path d="M10.5398 32.6574H10.6235L11.1352 32.796H11.2189L11.4701 31.8721L10.8003 31.595L10.5398 32.6574Z" fill="#888888"/>
<path d="M6.13965 31.2348H6.22337L6.6978 31.4103L6.80943 31.4565L7.19084 30.3294L6.51175 30.0892L6.13965 31.2348Z" fill="#888888"/>
</g>
<defs>
<linearGradient id="paint0_linear" x1="24.6518" y1="42.7364" x2="24.6518" y2="4.53601" gradientUnits="userSpaceOnUse">
<stop offset="0.14" stop-color="#888888"/>
<stop offset="0.96" stop-color="#888888"/>
</linearGradient>
<linearGradient id="paint1_linear" x1="253.362" y1="177.986" x2="357.688" y2="177.986" gradientUnits="userSpaceOnUse">
<stop offset="0.14" stop-color="#888888"/>
<stop offset="0.96" stop-color="#888888"/>
</linearGradient>
<linearGradient id="paint2_linear" x1="236.075" y1="104.76" x2="323.602" y2="104.76" gradientUnits="userSpaceOnUse">
<stop offset="0.14" stop-color="#888888"/>
<stop offset="0.96" stop-color="#888888"/>
</linearGradient>
<linearGradient id="paint3_linear" x1="64.7552" y1="45.7732" x2="65.667" y2="45.7732" gradientUnits="userSpaceOnUse">
<stop offset="0.14" stop-color="#888888"/>
<stop offset="0.96" stop-color="#888888"/>
</linearGradient>
<linearGradient id="paint4_linear" x1="110.156" y1="29.9423" x2="112.405" y2="29.9423" gradientUnits="userSpaceOnUse">
<stop offset="0.14" stop-color="#888888"/>
<stop offset="0.96" stop-color="#888888"/>
</linearGradient>
<linearGradient id="paint5_linear" x1="99.0703" y1="38.5854" x2="100.92" y2="38.5854" gradientUnits="userSpaceOnUse">
<stop offset="0.14" stop-color="#888888"/>
<stop offset="0.96" stop-color="#888888"/>
</linearGradient>
<linearGradient id="paint6_linear" x1="93.6115" y1="43.1462" x2="95.3827" y2="43.1462" gradientUnits="userSpaceOnUse">
<stop offset="0.14" stop-color="#888888"/>
<stop offset="0.96" stop-color="#888888"/>
</linearGradient>
<linearGradient id="paint7_linear" x1="71.1152" y1="46.7258" x2="72.1605" y2="46.7258" gradientUnits="userSpaceOnUse">
<stop offset="0.14" stop-color="#888888"/>
<stop offset="0.96" stop-color="#888888"/>
</linearGradient>
<linearGradient id="paint8_linear" x1="77.2095" y1="46.4939" x2="78.3764" y2="46.4939" gradientUnits="userSpaceOnUse">
<stop offset="0.14" stop-color="#888888"/>
<stop offset="0.96" stop-color="#888888"/>
</linearGradient>
<linearGradient id="paint9_linear" x1="86.4944" y1="45.1593" x2="87.9948" y2="45.1593" gradientUnits="userSpaceOnUse">
<stop offset="0.14" stop-color="#888888"/>
<stop offset="0.96" stop-color="#888888"/>
</linearGradient>
<linearGradient id="paint10_linear" x1="102.156" y1="33.8632" x2="104.045" y2="33.8632" gradientUnits="userSpaceOnUse">
<stop offset="0.14" stop-color="#888888"/>
<stop offset="0.96" stop-color="#FFC200"/>
</linearGradient>
<linearGradient id="paint11_linear" x1="24.8145" y1="69.1483" x2="25.6365" y2="69.1483" gradientUnits="userSpaceOnUse">
<stop offset="0.14" stop-color="#888888"/>
<stop offset="0.96" stop-color="#888888"/>
</linearGradient>
<linearGradient id="paint12_linear" x1="30.6002" y1="68.5277" x2="31.1517" y2="68.5277" gradientUnits="userSpaceOnUse">
<stop offset="0.14" stop-color="#888888"/>
<stop offset="0.96" stop-color="#888888"/>
</linearGradient>
<linearGradient id="paint13_linear" x1="28.2078" y1="68.0411" x2="28.912" y2="68.0411" gradientUnits="userSpaceOnUse">
<stop offset="0.14" stop-color="#888888"/>
<stop offset="0.96" stop-color="#888888"/>
</linearGradient>
<linearGradient id="paint14_linear" x1="36.3986" y1="66.7282" x2="37.0311" y2="66.7282" gradientUnits="userSpaceOnUse">
<stop offset="0.14" stop-color="#888888"/>
<stop offset="0.96" stop-color="#888888"/>
</linearGradient>
<linearGradient id="paint15_linear" x1="16.6981" y1="75.0429" x2="17.7028" y2="75.0429" gradientUnits="userSpaceOnUse">
<stop offset="0.14" stop-color="#888888"/>
<stop offset="0.96" stop-color="#888888"/>
</linearGradient>
<linearGradient id="paint16_linear" x1="3.82053" y1="82.6199" x2="5.20512" y2="82.6199" gradientUnits="userSpaceOnUse">
<stop offset="0.14" stop-color="#888888"/>
<stop offset="0.96" stop-color="#888888"/>
</linearGradient>
<linearGradient id="paint17_linear" x1="8.731" y1="78.1827" x2="10.1037" y2="78.1827" gradientUnits="userSpaceOnUse">
<stop offset="0.14" stop-color="#888888"/>
<stop offset="0.96" stop-color="#888888"/>
</linearGradient>
<linearGradient id="paint18_linear" x1="21.0796" y1="73.5213" x2="22.0098" y2="73.5213" gradientUnits="userSpaceOnUse">
<stop offset="0.14" stop-color="#888888"/>
<stop offset="0.96" stop-color="#888888"/>
</linearGradient>
<linearGradient id="paint19_linear" x1="13.0775" y1="75.6467" x2="14.2653" y2="75.6467" gradientUnits="userSpaceOnUse">
<stop offset="0.14" stop-color="#888888"/>
<stop offset="0.96" stop-color="#888888"/>
</linearGradient>
<clipPath id="clip0">
<rect width="191" height="49" fill="white"/>
</clipPath>
</defs>
</svg>
