<svg width="36" height="21" viewBox="0 0 36 21" fill="#595959" xmlns="http://www.w3.org/2000/svg">
<path d="M34.9904 18.0975C34.9904 17.9608 34.8525 17.9608 34.8525 17.8242C34.3011 16.731 33.0604 15.3646 31.4061 13.8615C30.5789 13.1783 30.1653 12.6317 29.8896 12.3584C29.476 11.8118 29.4761 11.4019 29.6139 10.8553C29.7518 10.4454 30.3032 9.76215 31.2682 8.53235C31.8196 7.84912 32.0953 7.4392 32.5089 7.02927C34.5768 4.29637 35.5418 2.51997 35.2661 1.7001L35.1283 1.56347C34.9904 1.42683 34.8525 1.29018 34.5768 1.29018C34.3011 1.15354 33.8875 1.15354 33.4739 1.29018H28.2353C28.0975 1.29018 28.0975 1.29018 27.8217 1.29018C27.6839 1.29018 27.546 1.29018 27.546 1.29018H27.4082H27.2703L27.1324 1.42682C26.9946 1.56346 26.9946 1.56346 26.9946 1.7001C26.4431 3.2032 25.7539 4.433 25.0646 5.79945C24.651 6.48267 24.2374 7.16591 23.8239 7.71249C23.4103 8.25907 23.1345 8.669 22.8588 8.94229C22.5831 9.21558 22.3074 9.35222 22.1695 9.62551C22.0317 9.76216 21.756 9.89881 21.756 9.76216C21.6181 9.76216 21.4802 9.76216 21.4802 9.62551C21.3424 9.48887 21.2045 9.35222 21.0667 9.21557C20.9288 9.07893 20.9288 8.80564 20.7909 8.53235C20.7909 8.25906 20.7909 7.98577 20.7909 7.84912C20.7909 7.71248 20.7909 7.30256 20.7909 7.02927C20.7909 6.61933 20.7909 6.34603 20.7909 6.20939C20.7909 5.79945 20.7909 5.25289 20.7909 4.70631C20.7909 4.15973 20.7909 3.74978 20.7909 3.47649C20.7909 3.2032 20.7909 2.79327 20.7909 2.51998C20.7909 2.11005 20.7909 1.83675 20.7909 1.7001C20.7909 1.56346 20.6531 1.29018 20.6531 1.15353C20.5153 1.01689 20.3774 0.880238 20.2395 0.743593C20.1017 0.606948 19.826 0.606952 19.6881 0.470307C18.9988 0.333662 18.1717 0.197021 17.2067 0.197021C15.0009 0.197021 13.4845 0.333671 12.933 0.60696C12.6573 0.743605 12.3816 0.880242 12.2438 1.15353C11.968 1.42682 11.968 1.56347 12.1059 1.56347C12.7952 1.70012 13.3466 1.97339 13.6223 2.38333L13.7602 2.65663C13.8981 2.79328 13.898 3.06656 14.0359 3.47649C14.1738 3.88643 14.1738 4.29636 14.1738 4.84294C14.1738 5.66281 14.1738 6.48269 14.1738 7.02927C14.1738 7.71249 14.0359 8.12241 14.0359 8.53235C14.0359 8.94228 13.8981 9.21558 13.7602 9.35222C13.6223 9.62551 13.6223 9.76216 13.4845 9.76216C13.4845 9.76216 13.4845 9.8988 13.3466 9.8988C13.2087 9.8988 13.0709 10.0354 12.7952 10.0354C12.6573 10.0354 12.3816 9.89881 12.2438 9.76216C11.968 9.62552 11.6923 9.35223 11.5545 9.07894C11.2787 8.80565 11.003 8.3957 10.7273 7.84912C10.4516 7.30254 10.038 6.75597 9.76228 5.9361L9.48659 5.38953C9.34873 5.11624 9.07301 4.56965 8.79729 3.88643C8.52158 3.2032 8.24585 2.65663 7.97013 1.97341C7.83228 1.70012 7.69443 1.56346 7.55658 1.42682H7.41871C7.41871 1.42682 7.28083 1.29018 7.14298 1.29018C7.00512 1.29018 6.86728 1.15353 6.72942 1.15353H1.76651C1.21507 1.15353 0.93936 1.29017 0.801502 1.42682L0.663635 1.56347C0.663635 1.56347 0.663635 1.70011 0.663635 1.83676C0.663635 1.9734 0.663644 2.11004 0.801502 2.38333C1.49079 4.02307 2.31794 5.66281 3.14509 7.30255C3.97224 8.80565 4.7994 10.1721 5.35083 11.1286C6.04013 12.0851 6.59155 13.0416 7.28084 13.8615C7.97013 14.6814 8.3837 15.228 8.52156 15.5012C8.79728 15.7745 8.93513 15.9112 9.07299 16.0478L9.48659 16.4578C9.7623 16.731 10.1759 17.141 10.7273 17.5509C11.2787 17.9609 11.968 18.3708 12.6573 18.7807C13.3466 19.1906 14.1738 19.464 15.0009 19.7372C15.9659 20.0105 16.7931 20.1472 17.6202 20.0105H19.6881C20.1017 20.0105 20.3774 19.8739 20.6531 19.6006L20.7909 19.4639C20.7909 19.3273 20.9288 19.3273 20.9288 19.1907C20.9288 19.054 20.9288 18.9174 20.9288 18.6441C20.9288 18.0975 20.9288 17.6876 21.0667 17.2776C21.2045 16.8677 21.2046 16.5944 21.3424 16.3211C21.4803 16.0478 21.6181 15.9112 21.756 15.7745C21.8938 15.6379 22.0317 15.5012 22.0317 15.5012H22.1695C22.4453 15.3646 22.8588 15.5012 23.1346 15.7745C23.5481 16.0478 23.9617 16.4578 24.2374 16.8677C24.5131 17.2776 24.9267 17.6876 25.4782 18.2341C26.0296 18.7807 26.4432 19.1907 26.7189 19.3273L27.1324 19.6006C27.4082 19.7372 27.6839 19.8739 28.0975 20.0105C28.511 20.1472 28.7867 20.1472 29.0625 20.1472L33.7497 20.0105C34.1632 20.0105 34.5768 19.8739 34.8525 19.7372C35.1282 19.6006 35.2661 19.4639 35.2661 19.1907C35.2661 19.054 35.2661 18.7807 35.2661 18.6441C34.9904 18.3708 34.9904 18.2341 34.9904 18.0975Z"/>
</svg>
