<svg width="28" height="22" viewBox="0 0 28 22" fill="#595959" xmlns="http://www.w3.org/2000/svg">
<path d="M27.9545 8.61595C27.9545 7.99931 27.8537 7.27991 27.8537 6.45772C27.7529 5.63553 27.6521 4.81334 27.5513 4.09392C27.3497 3.27174 27.0473 2.6551 26.4425 2.14123C25.9385 1.62737 25.2328 1.31904 24.5272 1.21626C22.2087 0.907943 18.7814 0.805176 14.1444 0.805176C9.50745 0.805176 5.9793 0.907943 3.76161 1.21626C3.05599 1.31904 2.35037 1.62737 1.84635 2.14123C1.34233 2.6551 0.939106 3.27174 0.737499 4.09392C0.535891 4.81334 0.4351 5.53276 0.4351 6.45772C0.334296 7.27991 0.33429 7.99931 0.33429 8.61595C0.33429 9.23259 0.33429 9.95201 0.33429 10.9797C0.33429 12.0075 0.33429 12.8297 0.33429 13.3435C0.33429 13.9602 0.4351 14.6796 0.4351 15.5018C0.535903 16.324 0.636695 17.1462 0.737499 17.8656C0.939106 18.6878 1.24152 19.3044 1.84635 19.8183C2.35037 20.3321 3.05599 20.6405 3.76161 20.7432C6.0801 21.0515 9.50745 21.1543 14.1444 21.1543C18.7814 21.1543 22.3095 21.0515 24.5272 20.7432C25.2328 20.6405 25.9385 20.3321 26.4425 19.8183C26.9465 19.3044 27.3497 18.6878 27.5513 17.8656C27.7529 17.1462 27.8537 16.4268 27.8537 15.5018C27.9546 14.6796 27.9545 13.9602 27.9545 13.3435C27.9545 12.7269 27.9545 12.0075 27.9545 10.9797C27.9545 9.95201 27.9545 9.12982 27.9545 8.61595ZM19.487 11.8019L11.5235 16.8378C11.4227 16.9406 11.2211 17.0434 11.0195 17.0434C10.8179 17.0434 10.7171 17.0434 10.5155 16.9406C10.2131 16.7351 10.0115 16.4268 10.0115 16.0157V5.84107C10.0115 5.42998 10.2131 5.12166 10.5155 4.91612C10.8179 4.71057 11.2211 4.71057 11.5235 4.91612L19.487 9.95201C19.7894 10.1576 19.991 10.4659 19.991 10.7742C19.991 11.0825 19.7894 11.5964 19.487 11.8019Z"/>
</svg>
