<svg width="52" height="52" viewBox="0 0 52 52" fill="none" xmlns="http://www.w3.org/2000/svg">
<path d="M25.1875 44.538V47.9375H26.8125V44.538C27.7558 44.2016 28.4375 43.3078 28.4375 42.25C28.4375 40.9061 27.3439 39.8125 26 39.8125C24.6561 39.8125 23.5625 40.9061 23.5625 42.25C23.5625 43.3078 24.2442 44.2016 25.1875 44.538ZM26 41.4375C26.4485 41.4375 26.8125 41.8023 26.8125 42.25C26.8125 42.6977 26.4485 43.0625 26 43.0625C25.5515 43.0625 25.1875 42.6977 25.1875 42.25C25.1875 41.8023 25.5515 41.4375 26 41.4375Z" fill="#53CF46"/>
<path d="M39.8125 41.4375C40.0286 41.4375 40.235 41.3522 40.3869 41.1994L41.7739 39.8125H43.875V38.1875H41.4375C41.2214 38.1875 41.015 38.2728 40.8631 38.4255L39.4761 39.8125H36.5625V37.375C36.5625 36.9265 36.1993 36.5625 35.75 36.5625H33.3125V30.875C33.3125 30.0251 33.1597 29.2126 32.8916 28.4537L34.0202 27.6258C37.1386 25.3394 39 21.6653 39 17.7986V5.68747C39 5.23897 38.6368 4.87497 38.1875 4.87497H37.9364C34.0186 4.87497 30.2624 3.67166 27.0741 1.39422L26.4721 0.963593C26.1893 0.761281 25.8107 0.761281 25.5279 0.963593L24.9259 1.39341C21.7376 3.67166 17.9814 4.87497 14.0636 4.87497H13.8125C13.3632 4.87497 13 5.23897 13 5.68747V17.7986C13 21.6653 14.8614 25.3394 17.9798 27.6266L19.1076 28.4537C18.8337 29.2288 18.6875 30.0405 18.6875 30.875V36.5625H16.25C15.8007 36.5625 15.4375 36.9265 15.4375 37.375V39.8125H12.5239L11.1369 38.4255C10.985 38.2728 10.7786 38.1875 10.5625 38.1875H8.125V39.8125H10.2261L11.6131 41.1994C11.765 41.3522 11.9714 41.4375 12.1875 41.4375H15.4375V43.0625H8.125V44.6875H15.4375V46.3125H12.1875C11.9714 46.3125 11.765 46.3978 11.6131 46.5505L10.2261 47.9375H8.125V49.5625H10.5625C10.7786 49.5625 10.985 49.4772 11.1369 49.3244L12.5239 47.9375H15.4375V50.375C15.4375 50.8235 15.8007 51.1875 16.25 51.1875H35.75C36.1993 51.1875 36.5625 50.8235 36.5625 50.375V47.9375H39.4761L40.8631 49.3244C41.015 49.4772 41.2214 49.5625 41.4375 49.5625H43.875V47.9375H41.7739L40.3869 46.5505C40.235 46.3978 40.0286 46.3125 39.8125 46.3125H36.5625V44.6875H43.875V43.0625H36.5625V41.4375H39.8125ZM14.625 17.7986V6.49266C18.6802 6.38297 22.5574 5.08297 25.87 2.71697L26 2.62353L26.13 2.71697C29.4426 5.08216 33.3198 6.38216 37.375 6.49266V17.7986C37.375 21.1502 35.7614 24.3335 33.059 26.316L32.1709 26.9677C31.4568 25.8432 30.4452 24.9299 29.2467 24.3327C29.2216 22.5598 27.7778 21.125 26 21.125C24.2076 21.125 22.75 22.5826 22.75 24.375C22.75 26.1673 24.2076 27.625 26 27.625C27.2196 27.625 28.2709 26.9425 28.8267 25.9472C29.6595 26.4265 30.3574 27.1107 30.8563 27.9313L26 31.4925L18.941 26.316C16.2386 24.3335 14.625 21.1493 14.625 17.7986ZM26 23.5625C25.4971 23.5625 25.0022 23.6161 24.5172 23.7168C24.7707 23.1481 25.3386 22.75 26 22.75C26.6597 22.75 27.2269 23.1473 27.4812 23.7136C27.0026 23.6145 26.507 23.5625 26 23.5625ZM27.2976 25.3427C27.001 25.7392 26.5322 26 26 26C25.4678 26 24.9982 25.7392 24.7016 25.3418C25.1249 25.2435 25.558 25.1875 26 25.1875C26.4469 25.1875 26.8799 25.2443 27.2976 25.3427ZM20.3125 30.875C20.3125 30.3948 20.3775 29.926 20.4937 29.4702L25.5198 33.1557C25.6628 33.2605 25.831 33.3125 26 33.3125C26.169 33.3125 26.3372 33.2605 26.481 33.1557L31.5047 29.471C31.6201 29.9211 31.6875 30.3899 31.6875 30.875V36.5625H20.3125V30.875ZM34.9375 49.5625H17.0625V38.1875H34.9375V49.5625Z" fill="#53CF46"/>
<path d="M25.1875 13.7304V19.5H26.8125V17.875H28.4375V16.25H26.8125V13.7304C28.6642 13.3526 30.0625 11.7122 30.0625 9.75C30.0625 7.50994 28.2401 5.6875 26 5.6875C23.7599 5.6875 21.9375 7.50994 21.9375 9.75C21.9375 11.7114 23.3358 13.3526 25.1875 13.7304ZM26 7.3125C27.3439 7.3125 28.4375 8.40612 28.4375 9.75C28.4375 11.0939 27.3439 12.1875 26 12.1875C24.6561 12.1875 23.5625 11.0939 23.5625 9.75C23.5625 8.40612 24.6561 7.3125 26 7.3125Z" fill="#53CF46"/>
</svg>
