<svg width="44" height="44" viewBox="0 0 44 44" fill="none" xmlns="http://www.w3.org/2000/svg">
<path d="M42.3734 7.64019L38.7558 1.61013C38.4141 1.04156 37.7891 0.6875 37.125 0.6875C36.4609 0.6875 35.8359 1.04156 35.4942 1.61081L31.8766 7.64019C31.7123 7.9145 31.625 8.228 31.625 8.54838C31.625 9.52119 32.4163 10.3125 33.3891 10.3125H34.375V19.9375H35.75V8.9375H33.3891C33.1746 8.9375 33 8.76287 33 8.54838C33 8.47825 33.0193 8.40881 33.0557 8.34831L36.6733 2.31825C36.8624 2.00269 37.3876 2.00269 37.5767 2.31825L41.1943 8.34831C41.2307 8.40881 41.25 8.47825 41.25 8.54838C41.25 8.76287 41.0754 8.9375 40.8609 8.9375H38.5V21.3125H39.875V10.3125H40.8609C41.8337 10.3125 42.625 9.52119 42.625 8.54838C42.625 8.228 42.5377 7.9145 42.3734 7.64019Z" fill="#53CF46"/>
<path d="M5.04831 7.81825C5.23737 7.50269 5.76262 7.50269 5.95169 7.81825L9.56931 13.8483C9.60575 13.9088 9.625 13.9783 9.625 14.0484C9.625 14.2629 9.45037 14.4375 9.23588 14.4375H6.875V21.3125H8.25V15.8125H9.23588C10.2087 15.8125 11 15.0212 11 14.0484C11 13.7287 10.9127 13.4145 10.7484 13.1409L7.13075 7.11081C6.78906 6.54156 6.16412 6.1875 5.5 6.1875C4.83588 6.1875 4.21094 6.54156 3.86925 7.11081L0.251625 13.1402C0.0873125 13.4145 0 13.728 0 14.0484C0 15.0212 0.791313 15.8125 1.76412 15.8125H2.75V24.75H4.125V14.4375H1.76412C1.54963 14.4375 1.375 14.2629 1.375 14.0484C1.375 13.9783 1.39425 13.9088 1.43069 13.8483L5.04831 7.81825Z" fill="#53CF46"/>
<path d="M22 29.6622V28.1875H20.625V29.6622C19.8309 29.9138 19.25 30.6488 19.25 31.5246C19.25 32.2726 19.6652 32.945 20.3349 33.2798L21.6748 33.9501C21.8756 34.0498 22 34.2512 22 34.4754C22 34.7992 21.736 35.0625 21.4129 35.0625H21.2128C20.889 35.0625 20.625 34.7992 20.625 34.4754V33.6875H19.25V34.4754C19.25 35.3513 19.8309 36.0862 20.625 36.3378V37.8125H22V36.3378C22.7941 36.0862 23.375 35.3513 23.375 34.4754C23.375 33.7274 22.9598 33.055 22.2901 32.7202L20.9502 32.0499C20.7494 31.9502 20.625 31.7487 20.625 31.5246C20.625 31.2008 20.889 30.9375 21.2121 30.9375H21.4122C21.736 30.9375 22 31.2008 22 31.5246V31.625H23.375V31.5246C23.375 30.6488 22.7941 29.9138 22 29.6622Z" fill="#53CF46"/>
<path d="M35.0625 22.6875H27.5V20.625C27.5 19.7299 26.9232 18.9736 26.125 18.689V14.4375H23.7641C23.5496 14.4375 23.375 14.2629 23.375 14.0484C23.375 13.9783 23.3943 13.9088 23.4307 13.8483L27.0483 7.81825C27.2374 7.50269 27.7626 7.50269 27.9517 7.81825L31.5693 13.8483C31.6057 13.9088 31.625 13.9783 31.625 14.0484C31.625 14.2629 31.4504 14.4375 31.2359 14.4375H28.875V22H30.25V15.8125H31.2359C32.2087 15.8125 33 15.0212 33 14.0484C33 13.7287 32.9127 13.4145 32.7484 13.1409L29.1308 7.11081C28.7891 6.54156 28.1641 6.1875 27.5 6.1875C26.8359 6.1875 26.2109 6.54156 25.8692 7.11081L22.2516 13.1402C22.0873 13.4145 22 13.728 22 14.0484C22 15.0212 22.7913 15.8125 23.7641 15.8125H24.75V18.5625H17.1875C16.0504 18.5625 15.125 19.4879 15.125 20.625V22.6875H7.5625C6.42537 22.6875 5.5 23.6129 5.5 24.75V41.25C5.5 42.3871 6.42537 43.3125 7.5625 43.3125H35.0625C36.1996 43.3125 37.125 42.3871 37.125 41.25V24.75C37.125 23.6129 36.1996 22.6875 35.0625 22.6875ZM16.5 20.625C16.5 20.2462 16.808 19.9375 17.1875 19.9375H25.4375C25.817 19.9375 26.125 20.2462 26.125 20.625V22.6875H16.5V20.625ZM28.1875 33.6875C31.3727 33.6875 34.1667 32.0072 35.75 29.491V41.25C35.75 41.6288 35.442 41.9375 35.0625 41.9375H7.5625C7.183 41.9375 6.875 41.6288 6.875 41.25V29.491C8.45831 32.0072 11.2523 33.6875 14.4375 33.6875H17.875V32.3125H14.4375C10.2678 32.3125 6.875 28.9197 6.875 24.75C6.875 24.3712 7.183 24.0625 7.5625 24.0625H35.0625C35.442 24.0625 35.75 24.3712 35.75 24.75C35.75 28.9197 32.3572 32.3125 28.1875 32.3125H24.75V33.6875H28.1875Z" fill="#53CF46"/>
<path d="M33 39.1875H34.375V40.5625H33V39.1875Z" fill="#53CF46"/>
<path d="M27.5 39.1875H28.875V40.5625H27.5V39.1875Z" fill="#53CF46"/>
<path d="M30.25 39.1875H31.625V40.5625H30.25V39.1875Z" fill="#53CF46"/>
<path d="M2.75 26.125H4.125V27.5H2.75V26.125Z" fill="#53CF46"/>
<path d="M2.75 28.875H4.125V30.25H2.75V28.875Z" fill="#53CF46"/>
<path d="M12.7641 11H13.75V17.1875H15.125V9.625H12.7641C12.5496 9.625 12.375 9.45037 12.375 9.23588C12.375 9.16575 12.3942 9.09631 12.4307 9.03581L16.0483 3.00575C16.2374 2.69019 16.7626 2.69019 16.9517 3.00575L20.5693 9.03581C20.6058 9.09631 20.625 9.16575 20.625 9.23588C20.625 9.45037 20.4504 9.625 20.2359 9.625H17.875V17.1875H19.25V11H20.2359C21.2087 11 22 10.2087 22 9.23588C22 8.91619 21.9127 8.602 21.7484 8.32838L18.1307 2.29831C17.7891 1.72906 17.1641 1.375 16.5 1.375C15.8359 1.375 15.2109 1.72906 14.8693 2.29831L11.2516 8.32769C11.0873 8.602 11 8.9155 11 9.23588C11 10.2087 11.7913 11 12.7641 11Z" fill="#53CF46"/>
<path d="M38.5 22.6875H39.875V24.0625H38.5V22.6875Z" fill="#53CF46"/>
<path d="M38.5 25.4375H39.875V26.8125H38.5V25.4375Z" fill="#53CF46"/>
<path d="M12.375 36.4375H9.625C8.86669 36.4375 8.25 37.0542 8.25 37.8125V39.1875C8.25 39.9458 8.86669 40.5625 9.625 40.5625H12.375C13.1333 40.5625 13.75 39.9458 13.75 39.1875V37.8125C13.75 37.0542 13.1333 36.4375 12.375 36.4375ZM9.625 39.1875V37.8125H12.375L12.3757 39.1875H9.625Z" fill="#53CF46"/>
</svg>
