<svg width="47" height="43" viewBox="0 0 47 43" fill="none" xmlns="http://www.w3.org/2000/svg">
<path d="M44.6903 0.147858H29.243C27.9696 0.147858 26.9336 1.18379 26.9336 2.45719V17.2614C26.9336 18.5348 27.9696 19.5707 29.243 19.5707H44.6903C45.9637 19.5707 46.9997 18.5348 46.9997 17.2614V2.45719C46.9997 1.18379 45.9637 0.147858 44.6903 0.147858ZM39.3067 1.9838V5.09635L39.0141 4.92928C38.7209 4.76184 38.3595 4.76864 38.0731 4.94746L37.0468 5.58737L36.0959 4.96012C35.8102 4.77167 35.433 4.75937 35.1357 4.92901L34.8399 5.09773V1.9838H39.3067ZM45.1638 17.2614C45.1638 17.5224 44.9514 17.7348 44.6903 17.7348H29.243C28.9819 17.7348 28.7695 17.5224 28.7695 17.2614V2.45719C28.7695 2.19612 28.9819 1.9838 29.243 1.9838H33.004V6.67792C33.004 7.36823 33.7752 7.8185 34.3767 7.47536L35.5556 6.80313L36.5275 7.44424C36.8239 7.63977 37.2174 7.64472 37.5186 7.45691L38.5795 6.79542L39.7693 7.47508C40.371 7.81868 41.1426 7.3686 41.1426 6.67792V1.9838H44.6903C44.9514 1.9838 45.1638 2.19612 45.1638 2.45719V17.2614Z" fill="#53CF46"/>
<path d="M35.6507 13.5317H32.1941C31.6871 13.5317 31.2761 13.9428 31.2761 14.4497C31.2761 14.9566 31.6871 15.3677 32.1941 15.3677H35.6507C36.1577 15.3677 36.5687 14.9566 36.5687 14.4497C36.5687 13.9428 36.1577 13.5317 35.6507 13.5317Z" fill="#53CF46"/>
<path d="M33.5655 22.4961H7.69542C4.46454 22.4961 1.83594 19.8676 1.83594 16.6367C1.83594 13.4058 4.46445 10.7772 7.69542 10.7772H19.4929C19.9999 10.7772 20.4109 10.3662 20.4109 9.85925C20.4109 9.35235 19.9999 8.94128 19.4929 8.94128H7.69542C3.45211 8.94128 0 12.3935 0 16.6367C0 20.8799 3.45211 24.332 7.69542 24.332H33.5655C35.5418 24.332 37.1496 25.94 37.1496 27.9162C37.1496 29.8925 35.5418 31.5004 33.5655 31.5004H26.3882L27.3405 30.5481C27.699 30.1896 27.699 29.6083 27.3405 29.2498C26.982 28.8914 26.4008 28.8914 26.0422 29.2498L23.5229 31.7691C23.1695 32.1231 23.1695 32.7134 23.5229 33.0674L26.0422 35.5868C26.3959 35.9404 26.9868 35.9404 27.3405 35.5868C27.699 35.2283 27.699 34.6471 27.3405 34.2885L26.3882 33.3362H33.5655C36.5542 33.3362 38.9856 30.9048 38.9856 27.9162C38.9856 24.9276 36.5542 22.4961 33.5655 22.4961Z" fill="#53CF46"/>
<path d="M14.7445 26.5711C11.2631 26.5711 8.43066 29.4035 8.43066 32.885C8.43066 34.1848 8.83503 35.5171 9.61411 36.5655L14.0073 42.4871C14.3684 42.9738 15.1207 42.9737 15.4818 42.4871L19.875 36.5655C20.6545 35.518 21.0584 34.1842 21.0584 32.885C21.0584 29.4035 18.226 26.5711 14.7445 26.5711ZM18.3897 35.4841C18.3829 35.4937 18.3763 35.5034 18.3698 35.5131L14.7445 40.3995L11.1194 35.5131C10.5922 34.715 10.2666 33.8526 10.2666 32.885C10.2666 30.4158 12.2754 28.407 14.7445 28.407C17.2137 28.407 19.2225 30.4158 19.2225 32.885C19.2225 33.8228 18.9345 34.7216 18.3897 35.4841Z" fill="#53CF46"/>
<path d="M14.7446 30.011C13.1599 30.011 11.8706 31.3002 11.8706 32.8849C11.8706 34.4696 13.1598 35.7589 14.7446 35.7589C16.3294 35.7589 17.6186 34.4696 17.6186 32.8849C17.6186 31.3002 16.3293 30.011 14.7446 30.011ZM14.7446 33.923C14.1722 33.923 13.7065 33.4574 13.7065 32.8849C13.7065 32.3125 14.1722 31.8469 14.7446 31.8469C15.3169 31.8469 15.7826 32.3125 15.7826 32.8849C15.7826 33.4574 15.3169 33.923 14.7446 33.923Z" fill="#53CF46"/>
<path d="M22.819 10.2101C23.0086 10.6732 23.5567 10.8977 24.0179 10.7067C24.4797 10.5154 24.7061 9.96974 24.5145 9.50781C24.3228 9.04562 23.7776 8.82035 23.3156 9.01119C22.8541 9.20185 22.6267 9.74887 22.819 10.2101Z" fill="#53CF46"/>
</svg>
