<svg width="43" height="43" viewBox="0 0 43 43" fill="none" xmlns="http://www.w3.org/2000/svg">
<path fill-rule="evenodd" clip-rule="evenodd" d="M29.129 3.46774C29.129 1.55563 27.5734 0 25.6613 0H3.46774C1.55563 0 0 1.55563 0 3.46774V35.371C0 37.2831 1.55563 38.8387 3.46774 38.8387H7.4175C7.55552 39.13 7.71226 39.4123 7.90645 39.6703L9.01613 41.1503V43H21.5V41.1503L22.6097 39.671C22.8039 39.4123 22.9606 39.13 23.0986 38.8387H25.6613C27.5734 38.8387 29.129 37.2831 29.129 35.371V31.2097V29.8226V27.0484H37.4516H43V11.7903H37.564H37.4516H29.129V9.01613V7.62903V4.85484V3.46774ZM21.5 38.8387C21.9473 38.243 22.1935 37.5036 22.1935 36.7581V29.8226C22.1935 29.4397 21.8828 29.129 21.5 29.129C21.1172 29.129 20.8065 29.4397 20.8065 29.8226V31.2097H19.4194V29.129C19.4194 28.7462 19.1086 28.4355 18.7258 28.4355C18.343 28.4355 18.0323 28.7462 18.0323 29.129V31.2097H16.6452V28.4355C16.6452 28.0526 16.3345 27.7419 15.9516 27.7419C15.5688 27.7419 15.2581 28.0526 15.2581 28.4355V31.2097H13.871V21.5C13.871 21.1172 13.5603 20.8065 13.1774 20.8065C12.7946 20.8065 12.4839 21.1172 12.4839 21.5V35.371H11.0968V32.8617C11.0968 30.8033 9.42255 29.129 7.3641 29.129C7.1276 29.129 6.93548 29.3211 6.93548 29.5576C6.93548 29.6242 6.95074 29.6908 6.98126 29.7491L7.81005 31.408C8.14503 32.078 8.32258 32.8291 8.32258 33.5788V36.7581C8.32258 37.5036 8.56879 38.243 9.01613 38.838L10.4032 40.6884V41.6129H20.1129V40.6884L21.5 38.8387ZM6.93548 13.871H22.1935V13.1774C22.1935 12.7946 21.8828 12.4839 21.5 12.4839H7.62903C7.24619 12.4839 6.93548 12.7946 6.93548 13.1774V13.871ZM22.1935 15.2581H6.93548V16.6452H22.1935V15.2581ZM22.1935 18.0323H6.93548V21.5C6.93548 21.8828 7.24619 22.1935 7.62903 22.1935H11.0968V21.5C11.0968 20.3529 12.0303 19.4194 13.1774 19.4194C14.3245 19.4194 15.2581 20.3529 15.2581 21.5V22.1935H21.5C21.8828 22.1935 22.1935 21.8828 22.1935 21.5V18.0323ZM20.4798 28.0201C20.7829 27.848 21.1276 27.7419 21.5 27.7419C22.6471 27.7419 23.5806 28.6755 23.5806 29.8226V31.9032H24.9677V4.16129H20.6546L20.355 5.35974C20.1233 6.28702 19.2931 6.93548 18.3367 6.93548H10.793C9.8366 6.93548 9.00573 6.28702 8.77477 5.36044L8.47447 4.16129H4.16129V31.9032H6.50618L5.73981 30.3698C5.61497 30.1194 5.54839 29.8378 5.54839 29.5576C5.54839 28.5569 6.36331 27.7419 7.3641 27.7419C8.8365 27.7419 10.1619 28.3703 11.0968 29.369V23.5806H7.62903C6.4819 23.5806 5.54839 22.6471 5.54839 21.5V13.1774C5.54839 12.0303 6.4819 11.0968 7.62903 11.0968H21.5C22.6471 11.0968 23.5806 12.0303 23.5806 13.1774V21.5C23.5806 22.6471 22.6471 23.5806 21.5 23.5806H15.2581V26.4825C15.4758 26.4048 15.7075 26.3548 15.9516 26.3548C16.6902 26.3548 17.3366 26.7446 17.7056 27.3265C18.0087 27.1545 18.3534 27.0484 18.7258 27.0484C19.4644 27.0484 20.1108 27.4382 20.4798 28.0201ZM25.6613 37.4516C26.8084 37.4516 27.7419 36.5181 27.7419 35.371V3.46774C27.7419 2.32061 26.8084 1.3871 25.6613 1.3871H3.46774C2.32061 1.3871 1.3871 2.32061 1.3871 3.46774V35.371C1.3871 36.5181 2.32061 37.4516 3.46774 37.4516H6.99235C6.95837 37.222 6.93548 36.9904 6.93548 36.7581V33.5788C6.93548 33.4948 6.92864 33.4108 6.92183 33.3273L6.91884 33.2903H4.16129C3.39631 33.2903 2.77419 32.6682 2.77419 31.9032V4.16129C2.77419 3.39631 3.39631 2.77419 4.16129 2.77419H9.55779L10.1196 5.02337C10.1979 5.332 10.474 5.54839 10.793 5.54839H18.336C18.6551 5.54839 18.9318 5.332 19.0095 5.02268L19.5712 2.77419H24.9677C25.7327 2.77419 26.3548 3.39631 26.3548 4.16129V31.9032C26.3548 32.6682 25.7327 33.2903 24.9677 33.2903H23.5806V36.7581C23.5806 36.9904 23.5578 37.222 23.5238 37.4516H25.6613ZM31.9032 22.7865V24.2742H30.5161V22.7865C29.7151 22.5334 29.129 21.792 29.129 20.9077V25.6613H30.5161C33.9582 25.6613 36.7581 22.8614 36.7581 19.4194C36.7581 15.9773 33.9582 13.1774 30.5161 13.1774H29.129V17.931V20.1129H30.5161V20.9077C30.5161 21.2337 30.7825 21.5 31.1091 21.5H31.3109C31.6369 21.5 31.9032 21.2337 31.9032 20.9077C31.9032 20.6816 31.7777 20.4784 31.5752 20.3778L30.2235 19.7016C29.5479 19.3632 29.129 18.6856 29.129 17.931C29.129 17.0474 29.7151 16.306 30.5161 16.0522V14.5645H31.9032V16.0522C32.7043 16.3053 33.2903 17.0467 33.2903 17.931V18.7258H31.9032V17.931C31.9032 17.605 31.6369 17.3387 31.3102 17.3387H31.1084C30.7824 17.3387 30.5161 17.605 30.5161 17.931C30.5161 18.1571 30.6417 18.3603 30.8442 18.4609L32.1959 19.1371C32.8714 19.4755 33.2903 20.1531 33.2903 20.9077C33.2903 21.7913 32.7043 22.5327 31.9032 22.7865ZM34.889 25.6613H41.6129V13.1774H34.889C36.8545 14.559 38.1452 16.8394 38.1452 19.4194C38.1452 21.9994 36.8545 24.2797 34.889 25.6613Z" fill="#53CF46"/>
</svg>
