<svg width="46" height="46" viewBox="0 0 46 46" fill="none" xmlns="http://www.w3.org/2000/svg">
<path d="M11.2288 13.6296C11.4588 13.6296 11.6888 13.5417 11.8642 13.3662C17.5698 7.42235 27.748 7.23503 33.6867 12.9354C34.051 13.2723 34.6193 13.2503 34.9563 12.8858C35.2933 12.5215 35.2711 11.9531 34.9067 11.6162C31.6567 8.61036 27.4282 6.95499 22.9999 6.95499C18.313 6.95499 13.9068 8.7807 10.5933 12.0959C10.2426 12.4469 10.2427 13.0158 10.5936 13.3666C10.7691 13.5419 10.999 13.6296 11.2288 13.6296Z" fill="#53CF46"/>
<path d="M43.5733 38.7001L45.9034 34.0675C46.1989 33.48 45.7567 32.7654 45.1006 32.7654L44.3834 32.7655C44.6295 31.9701 44.6525 31.1101 44.4275 30.2887C44.0132 28.9037 44.1629 28.178 45.0704 27.0588C46.3098 25.4626 46.3099 23.233 45.0691 21.6351C44.2542 20.5907 44.0747 19.6878 44.4276 18.407C44.9613 16.4583 44.1077 14.3981 42.3522 13.3973C41.1923 12.7354 40.6907 11.9849 40.5225 10.6595C40.2709 8.65474 38.6943 7.07789 36.6893 6.82516C35.3644 6.65688 34.6131 6.1569 33.9508 4.99603C32.9513 3.24075 30.8913 2.38715 28.9391 2.92028C27.6564 3.274 26.7551 3.08856 25.7112 2.27835C24.1149 1.03743 21.8849 1.03752 20.2889 2.27808C19.2413 3.09134 18.3419 3.27346 17.0587 2.91974C15.1087 2.38688 13.0486 3.24057 12.0494 4.99531C11.3874 6.15546 10.637 6.65688 9.31116 6.82498C7.3054 7.0778 5.72873 8.65456 5.47735 10.6582C5.30916 11.9833 4.809 12.7345 3.64786 13.3971C1.89195 14.398 1.03835 16.4581 1.57256 18.4083C1.926 19.6902 1.74236 20.5946 0.929456 21.6366C-0.309938 23.2329 -0.309938 25.4625 0.930175 27.0596C1.7447 28.1058 1.92448 29.0064 1.57229 30.2888C1.34705 31.1096 1.37014 31.9696 1.61658 32.7651H0.896753C0.241163 32.7651 -0.200778 33.4787 0.0935499 34.066L2.41565 38.6998L0.0933702 43.3338C-0.200868 43.9211 0.240894 44.6347 0.896573 44.6347H13.1164C13.8036 44.6347 14.2423 43.8587 13.8841 43.2693L12.0184 40.1998H19.0689C19.5651 40.1998 19.9673 39.7975 19.9673 39.3013C19.9673 38.8051 19.5651 38.4029 19.0689 38.4029L7.57601 38.403L7.57619 28.9256H38.4497L38.4505 38.403H26.9715C26.4754 38.403 26.073 38.8052 26.073 39.3014C26.073 39.7976 26.4753 40.1999 26.9715 40.1999H34.572L32.7063 43.2694C32.3486 43.8578 32.7877 44.6345 33.474 44.6345L45.1008 44.6348C45.7569 44.6348 46.1989 43.92 45.9034 43.3327L43.5733 38.7001ZM2.34737 22.7404C3.50995 21.2507 3.81021 19.7641 3.30519 17.9323C2.98841 16.7754 3.49521 15.5524 4.53803 14.958C6.18352 14.0191 7.02113 12.7663 7.26021 10.8832C7.40944 9.69369 8.34534 8.75797 9.53685 8.60775C11.4201 8.36877 12.6728 7.52909 13.6106 5.88512C14.2039 4.84321 15.4266 4.33622 16.5831 4.65256C18.4165 5.15793 19.8982 4.85641 21.3914 3.69707C22.3385 2.96107 23.6615 2.9608 24.609 3.69743C26.1012 4.85561 27.5823 5.15847 29.4149 4.6531C30.5729 4.33631 31.7961 4.84321 32.3898 5.88584C33.3285 7.53097 34.5811 8.36859 36.4639 8.60793C37.6546 8.75797 38.5904 9.69369 38.7399 10.8846C38.9789 12.7673 39.8185 14.0203 41.4622 14.9582C42.5047 15.5525 43.0116 16.7754 42.6951 17.9308C42.1904 19.7619 42.4889 21.2489 43.6513 22.7387C44.3867 23.6859 44.387 25.0086 43.652 25.9559C42.4905 27.448 42.191 28.9306 42.6949 30.7642C42.8805 31.4417 42.7833 32.1645 42.4379 32.7658L40.2476 32.7662L40.2472 28.0269C40.2472 27.9583 40.2389 27.8918 40.2243 27.8276C40.9414 24.128 40.4402 20.2072 38.7826 16.8319C38.5655 16.3857 38.0278 16.1999 37.5817 16.4171C37.1354 16.6341 36.9498 17.1718 37.1669 17.618C38.6005 20.5388 39.0699 23.9107 38.5257 27.1285H7.47448C6.97352 24.1681 7.33271 21.0595 8.51802 18.31C8.71316 17.8538 8.50158 17.3257 8.04544 17.1306C7.58912 16.935 7.0612 17.1469 6.86597 17.6032C5.48202 20.8112 5.10845 24.4631 5.78964 27.8963C5.78335 27.9391 5.77904 27.9825 5.77904 28.0269V32.7649H3.56206C3.21661 32.1636 3.1194 31.4414 3.3051 30.7647C3.8085 28.9318 3.5104 27.4487 2.34872 25.9568C1.61308 25.0094 1.61308 23.6862 2.34737 22.7404ZM9.91563 40.2L11.5191 42.838H2.35186L4.22358 39.1027C4.35053 38.8493 4.35053 38.551 4.22358 38.2977L2.35186 34.5623H5.77913V39.3015C5.77913 39.7906 6.18846 40.2 6.67757 40.2H9.91563ZM35.0714 42.8377L36.6748 40.2H39.349C39.8378 40.2 40.2474 39.7904 40.2474 39.3015V34.5634L42.909 34.5628C42.9098 34.5628 42.9106 34.5627 42.9114 34.5627L43.6431 34.5626L41.7651 38.2966C41.6374 38.5506 41.6374 38.85 41.7651 39.104L43.6432 42.838L35.0714 42.8377Z" fill="#53CF46"/>
<path d="M23.66 30.4059C23.6575 30.4059 23.6549 30.4059 23.6524 30.4059C23.2307 30.41 22.8921 30.7552 22.8962 31.1769L22.9204 33.6764L20.8959 30.7448C20.7061 30.4698 20.3596 30.3503 20.0403 30.4496C19.7212 30.5491 19.5039 30.8446 19.5039 31.1787V36.0761C19.5352 37.0858 21.0003 37.085 21.0313 36.0761V33.6285L22.9507 36.4082C23.1692 36.7237 23.5359 36.857 23.885 36.7481C24.2399 36.6373 24.4693 36.3085 24.4693 35.9034L24.4235 31.1622C24.4194 30.743 24.0784 30.4059 23.66 30.4059Z" fill="#53CF46"/>
<path d="M16.2505 31.1696V36.0761C16.2818 37.0858 17.7468 37.0851 17.7778 36.0761V31.1696C17.7466 30.1598 16.2815 30.1606 16.2505 31.1696Z" fill="#53CF46"/>
<path d="M34.9979 31.9557C36.0076 31.9244 36.0069 30.4593 34.9979 30.4283H33.5951C33.1734 30.4283 32.8314 30.7703 32.8314 31.192V36.0537C32.8314 36.4755 33.1734 36.8174 33.5951 36.8174H34.9979C36.0076 36.7861 36.0069 35.3211 34.9979 35.2901H34.3588V34.3865H34.847C35.8566 34.3552 35.8559 32.8902 34.847 32.8592H34.3588V31.9557H34.9979Z" fill="#53CF46"/>
<path d="M29.1447 31.9332C29.4835 31.9332 29.8099 32.0329 30.089 32.2214C30.4385 32.4578 30.9133 32.3657 31.1493 32.0161C31.3854 31.6666 31.2934 31.1919 30.944 30.9558C28.8615 29.5083 25.8949 31.0839 25.9279 33.6229C25.858 36.3349 29.4329 38.0073 31.2754 35.8743C31.5464 35.5512 31.5041 35.0695 31.181 34.7985C30.8578 34.5272 30.3761 34.5697 30.1051 34.8929C29.8643 35.1796 29.514 35.3125 29.1447 35.3125C26.9062 35.2276 26.9072 32.0178 29.1447 31.9332Z" fill="#53CF46"/>
<path d="M12.6511 35.3124C12.2052 35.3124 11.7776 35.1344 11.5073 34.836C11.2242 34.5233 10.7412 34.4996 10.4287 34.7828C10.1161 35.066 10.0923 35.5489 10.3756 35.8615C11.6115 37.2942 14.4475 37.2043 14.864 35.1469C14.9969 34.403 14.6667 33.4338 13.3418 32.9451C12.7655 32.7325 12.2272 32.5015 12.0352 32.4179C11.9801 32.3649 11.9753 32.2983 11.9824 32.2484C12 32.1258 12.1039 32.0271 12.2672 31.9779C12.8763 31.7944 13.4566 32.2448 13.4791 32.2627C13.8021 32.5296 14.2803 32.4867 14.5501 32.1654C14.8216 31.8425 14.7798 31.3608 14.4569 31.0893C14.0124 30.7158 12.9583 30.1744 11.8265 30.5154C11.0926 30.7365 10.5729 31.3174 10.4704 32.0313C10.3738 32.7047 10.6658 33.3528 11.2328 33.7223C11.2664 33.7443 11.3019 33.7636 11.3387 33.7801C11.3673 33.7928 12.0474 34.0955 12.8129 34.3779C13.1017 34.4844 13.3971 34.6718 13.3603 34.8783C13.329 35.0535 13.082 35.3124 12.6511 35.3124Z" fill="#53CF46"/>
<path d="M25.1944 14.6711C24.1847 14.7023 24.1854 16.1674 25.1944 16.1984H26.1068V23.2771C26.1381 24.2868 27.6032 24.2861 27.6342 23.2771V15.4348C27.6342 15.013 27.2922 14.6711 26.8705 14.6711H25.1944Z" fill="#53CF46"/>
<path d="M10.1888 17.687C10.6027 17.7677 11.004 17.4987 11.0853 17.0848C11.4027 15.648 13.4649 15.8159 13.5472 17.2837C13.4713 17.8781 13.1523 18.4105 12.8135 18.8946C11.5699 20.6715 10.8276 21.6436 10.4287 22.1657C9.9364 22.8101 9.75231 23.0512 9.88492 23.4824C9.96183 23.7327 10.1518 23.9249 10.4061 24.0097C10.8486 24.1367 13.3231 24.0641 14.6536 24.0611C15.6633 24.017 15.6433 22.5519 14.6344 22.5339C13.7416 22.5452 12.7954 22.552 12.0532 22.5519C12.4952 21.965 13.1454 21.0838 14.0647 19.7703C14.5485 19.079 15.0753 18.2028 15.0753 17.3265C15.0753 15.7989 13.8325 14.5561 12.3049 14.5561C10.984 14.5561 9.84072 15.4956 9.58646 16.7903C9.50524 17.2044 9.77486 17.6058 10.1888 17.687Z" fill="#53CF46"/>
<path d="M20.2992 14.5091C18.6277 14.5091 17.2677 15.8691 17.2677 17.5406V21.1673C17.4205 25.1845 23.1792 25.1815 23.3306 21.1673V17.5405C23.3306 15.8691 21.9708 14.5091 20.2992 14.5091ZM21.8033 21.1673C21.7275 23.1605 18.8702 23.159 18.795 21.1673V17.5406C18.8709 15.5474 21.7282 15.5489 21.8033 17.5406V21.1673Z" fill="#53CF46"/>
<path d="M29.4686 17.5406C29.4686 15.869 30.8286 14.5091 32.5001 14.5091C33.2873 14.5091 34.0053 14.8107 34.5448 15.3043C34.9063 15.6351 34.7245 16.2081 34.5448 16.3878C34.2753 16.6573 33.9159 16.6573 33.6167 16.5225C32.8165 15.6429 31.0553 15.9815 30.996 17.5406V21.1673C31.0711 23.159 33.9284 23.1605 34.0042 21.1673V20.835H35.5316V21.1673C35.3802 25.1814 29.6215 25.1845 29.4686 21.1673V17.5406Z" fill="#53CF46"/>
<path d="M29.4688 20.9104C29.4688 19.2389 30.8288 17.8789 32.5003 17.8789C34.1718 17.8789 35.5317 19.2389 35.5317 20.9103V21.1133H34.0044V20.9104C33.9293 18.9188 31.072 18.9173 30.9961 20.9104V21.1133H29.4688V20.9104Z" fill="#53CF46"/>
<path d="M23.9133 38.9574C23.725 38.5052 23.1926 38.285 22.7399 38.4722C21.6639 38.9786 22.3083 40.5343 23.4272 40.1307C23.8807 39.9425 24.0993 39.411 23.9133 38.9574Z" fill="#53CF46"/>
</svg>
