<svg width="52" height="52" viewBox="0 0 52 52" fill="none" xmlns="http://www.w3.org/2000/svg">
<path d="M25.1875 14.625C25.1875 9.69719 21.1778 5.6875 16.25 5.6875C11.3222 5.6875 7.3125 9.69719 7.3125 14.625C7.3125 16.6782 8.01612 18.5664 9.1845 20.0777C9.0285 20.4027 8.9375 20.7569 8.9375 21.125V26.0349C8.00069 24.5383 6.34075 23.5625 4.49719 23.5625C3.36212 23.5625 2.4375 24.4863 2.4375 25.6222C2.4375 26.0301 2.55694 26.4249 2.78363 26.7646L3.61969 28.0183C3.92925 28.483 4.12912 29.0209 4.19819 29.575L4.77425 34.1811C4.86119 34.8814 5.13094 35.5501 5.55587 36.1148L7.3125 38.4581V39.8125H5.6875V51.1875H23.5625V39.8125H21.9375V38.3792L23.1343 35.9864C23.4138 35.4258 23.5625 34.7969 23.5625 34.1705V21.125C23.5625 20.7569 23.4707 20.4027 23.3155 20.0777C24.4839 18.5673 25.1875 16.679 25.1875 14.625ZM16.25 7.3125C20.2824 7.3125 23.5625 10.5934 23.5625 14.625C23.5625 18.6566 20.2824 21.9375 16.25 21.9375C12.2176 21.9375 8.9375 18.6566 8.9375 14.625C8.9375 10.5934 12.2176 7.3125 16.25 7.3125ZM21.9375 41.4375V43.0625H7.3125V41.4375H21.9375ZM7.3125 49.5625V44.6875H21.9375V49.5625H7.3125ZM21.6807 35.2601L20.3125 37.9958V39.8125H8.9375V37.9169L6.85588 35.1406C6.60156 34.8018 6.43906 34.4013 6.38706 33.9812L5.811 29.3751C5.71106 28.5732 5.42181 27.7924 4.9725 27.1188L4.13563 25.8635C4.08769 25.792 4.0625 25.7083 4.0625 25.6222C4.0625 25.3825 4.2575 25.1875 4.49719 25.1875C6.21237 25.1875 7.7025 26.4087 8.03969 28.0914L9.05369 33.163L9.55256 33.2881C11.1044 33.6765 12.1875 35.0634 12.1875 36.6624V38.1875H13.8125V36.6624C13.8125 34.5361 12.5028 32.6714 10.5625 31.9158V21.5142C11.0606 21.9261 11.6074 22.2787 12.1875 22.5761V30.875H13.8125V23.2164C14.3366 23.3651 14.8785 23.4707 15.4375 23.5219V30.875H17.0625V23.5211C17.6215 23.4707 18.1634 23.3651 18.6875 23.2156V30.875H20.3125V22.5761C20.8926 22.2787 21.4394 21.9261 21.9375 21.5142V34.1705C21.9375 34.5467 21.8489 34.9237 21.6807 35.2601Z" fill="#53CF46"/>
<path d="M16.25 17.0625C15.8015 17.0625 15.4375 16.6977 15.4375 16.25H13.8125C13.8125 17.3079 14.4942 18.2016 15.4375 18.538V20.3125H17.0625V18.6875H18.6875V16.25C18.6875 14.9061 17.5939 13.8125 16.25 13.8125C15.8015 13.8125 15.4375 13.4477 15.4375 13V12.1875H16.25C16.6985 12.1875 17.0625 12.5523 17.0625 13H18.6875C18.6875 11.9421 18.0058 11.0484 17.0625 10.712V8.9375H15.4375V10.5625H13.8125V13C13.8125 14.3439 14.9061 15.4375 16.25 15.4375C16.6985 15.4375 17.0625 15.8023 17.0625 16.25V17.0625H16.25Z" fill="#53CF46"/>
<path d="M49.2164 25.2354L48.3803 23.9818C48.0707 23.517 47.8709 22.9791 47.8018 22.425L47.2257 17.8189C47.1388 17.1186 46.8691 16.4499 46.4441 15.8852L44.6875 13.5419V12.1875H46.3125V0.8125H28.4375V12.1875H30.0625V13.6208L28.8657 16.0136C28.5862 16.5742 28.4375 17.2031 28.4375 17.8295V30.875C28.4375 31.0367 28.4554 31.1959 28.4863 31.3511C26.4599 33.2767 25.1875 35.9897 25.1875 39C25.1875 44.824 29.926 49.5625 35.75 49.5625C41.574 49.5625 46.3125 44.824 46.3125 39C46.3125 35.9897 45.0401 33.2767 43.0137 31.3511C43.0446 31.1959 43.0625 31.0367 43.0625 30.875V25.9651C43.9993 27.4617 45.6593 28.4375 47.5028 28.4375C48.6379 28.4375 49.5625 27.5137 49.5625 26.3778C49.5625 25.9699 49.4431 25.5751 49.2164 25.2354ZM44.6875 2.4375V10.5625H30.0625V7.3125H36.5625V5.6875H30.0625V2.4375H44.6875ZM44.6875 39C44.6875 43.9278 40.6778 47.9375 35.75 47.9375C30.8222 47.9375 26.8125 43.9278 26.8125 39C26.8125 34.0722 30.8222 30.0625 35.75 30.0625C40.6778 30.0625 44.6875 34.0722 44.6875 39ZM47.5028 26.8125C45.7876 26.8125 44.2975 25.5913 43.9603 23.9086L42.9463 18.837L42.4474 18.7119C40.8956 18.3235 39.8125 16.9366 39.8125 15.3376V13.8125H38.1875V15.3376C38.1875 17.4639 39.4972 19.3286 41.4375 20.0842V30.1137C40.9232 29.783 40.3821 29.4905 39.8125 29.2524V21.125H38.1875V28.7324C37.6594 28.6073 37.1174 28.5212 36.5625 28.4781V21.125H34.9375V28.4789C34.3826 28.5212 33.8406 28.6073 33.3125 28.7332V21.125H31.6875V29.2524C31.1179 29.4905 30.5768 29.7838 30.0625 30.1137V17.8295C30.0625 17.4533 30.1511 17.0763 30.3193 16.7391L31.6875 14.0042V12.1875H43.0625V14.0831L45.1441 16.8594C45.3984 17.1982 45.5609 17.5987 45.6129 18.0188L46.189 22.6249C46.2889 23.4268 46.5782 24.2076 47.0275 24.8812L47.8636 26.1349C47.9115 26.2064 47.9367 26.2901 47.9367 26.3762C47.9375 26.6175 47.7425 26.8125 47.5028 26.8125Z" fill="#53CF46"/>
<path d="M30.2933 43.2997L40.0421 33.5509L41.191 34.6998L31.4422 44.4485L30.2933 43.2997Z" fill="#53CF46"/>
<path d="M39 39.8125C37.6561 39.8125 36.5625 40.9061 36.5625 42.25C36.5625 43.5939 37.6561 44.6875 39 44.6875C40.3439 44.6875 41.4375 43.5939 41.4375 42.25C41.4375 40.9061 40.3439 39.8125 39 39.8125ZM39 43.0625C38.5515 43.0625 38.1875 42.6977 38.1875 42.25C38.1875 41.8023 38.5515 41.4375 39 41.4375C39.4485 41.4375 39.8125 41.8023 39.8125 42.25C39.8125 42.6977 39.4485 43.0625 39 43.0625Z" fill="#53CF46"/>
<path d="M32.5 38.1875C33.8439 38.1875 34.9375 37.0939 34.9375 35.75C34.9375 34.4061 33.8439 33.3125 32.5 33.3125C31.1561 33.3125 30.0625 34.4061 30.0625 35.75C30.0625 37.0939 31.1561 38.1875 32.5 38.1875ZM32.5 34.9375C32.9485 34.9375 33.3125 35.3023 33.3125 35.75C33.3125 36.1977 32.9485 36.5625 32.5 36.5625C32.0515 36.5625 31.6875 36.1977 31.6875 35.75C31.6875 35.3023 32.0515 34.9375 32.5 34.9375Z" fill="#53CF46"/>
<path d="M40.625 8.9375C41.9689 8.9375 43.0625 7.84387 43.0625 6.5C43.0625 5.15612 41.9689 4.0625 40.625 4.0625C39.2811 4.0625 38.1875 5.15612 38.1875 6.5C38.1875 7.84387 39.2811 8.9375 40.625 8.9375ZM40.625 5.6875C41.0735 5.6875 41.4375 6.05231 41.4375 6.5C41.4375 6.94769 41.0735 7.3125 40.625 7.3125C40.1765 7.3125 39.8125 6.94769 39.8125 6.5C39.8125 6.05231 40.1765 5.6875 40.625 5.6875Z" fill="#53CF46"/>
</svg>
