<svg width="148" height="27" viewBox="0 0 148 27" fill="none" xmlns="http://www.w3.org/2000/svg">
<g clip-path="url(#clip0)">
<path fill-rule="evenodd" clip-rule="evenodd" d="M28.0213 9.2143H7.32755L14.4039 2.70001H10.4046L3.32827 9.2143L0.348785 11.9572H4.34806H26.1253L28.0213 9.2143Z" fill="#37CF4F"/>
<path fill-rule="evenodd" clip-rule="evenodd" d="M0.014183 17.7858H20.7094L13.6331 24.3H17.6323L24.7087 17.7858L27.6882 15.0428H23.6888H1.91022L0.014183 17.7858Z" fill="#37CF4F"/>
<path d="M46.7277 21.6C43.987 21.6 41.9009 20.88 40.4692 19.44C39.0579 18 38.3012 16.01 38.199 13.47C38.1784 12.93 38.1682 12.05 38.1682 10.83C38.1682 9.59 38.1784 8.69001 38.199 8.13C38.3012 5.61 39.0683 3.63001 40.4998 2.19C41.9315 0.73 44.0075 0 46.7277 0C48.5479 0 50.0922 0.32 51.3602 0.960001C52.6283 1.58 53.5896 2.4 54.244 3.42C54.8985 4.43999 55.2564 5.53 55.3178 6.69V6.75C55.3178 6.91 55.2462 7.05 55.1031 7.17001C54.9804 7.27001 54.8372 7.32 54.6736 7.32H52.9863C52.5772 7.32 52.3215 7.09 52.2192 6.63001C51.8715 5.13 51.2477 4.08 50.3478 3.48C49.4479 2.86 48.2412 2.55001 46.7277 2.55001C43.2099 2.55001 41.3896 4.46 41.2669 8.28001C41.2464 8.82001 41.2362 9.65 41.2362 10.77C41.2362 11.89 41.2464 12.74 41.2669 13.32C41.3896 17.14 43.2099 19.0501 46.7277 19.0501C48.2412 19.0501 49.4479 18.7499 50.3478 18.15C51.2682 17.53 51.892 16.47 52.2192 14.9699C52.2806 14.71 52.3726 14.53 52.4953 14.4299C52.6181 14.33 52.7817 14.28 52.9863 14.28H54.6736C54.8576 14.28 55.0111 14.34 55.1338 14.4601C55.2769 14.56 55.3382 14.6999 55.3178 14.88C55.2564 16.06 54.8985 17.1601 54.244 18.18C53.5896 19.2 52.6283 20.03 51.3602 20.6701C50.0922 21.2901 48.5479 21.6 46.7277 21.6Z" fill="white"/>
<path d="M59.736 21.3C59.5315 21.3 59.3576 21.2401 59.2145 21.12C59.0918 20.98 59.0304 20.8101 59.0304 20.61V6.42002C59.0304 6.22002 59.0918 6.05002 59.2145 5.91002C59.3576 5.77001 59.5315 5.70001 59.736 5.70001H61.1473C61.3517 5.70001 61.5257 5.77001 61.6688 5.91002C61.8119 6.05002 61.8835 6.22002 61.8835 6.42002V7.74002C62.7221 6.38001 64.1538 5.70001 66.1786 5.70001H67.375C67.5796 5.70001 67.7432 5.77001 67.8659 5.91002C68.0091 6.03001 68.0807 6.19002 68.0807 6.39002V7.62001C68.0807 7.82001 68.0091 7.98002 67.8659 8.10001C67.7432 8.22001 67.5796 8.28002 67.375 8.28002H65.5344C64.4298 8.28002 63.5607 8.60001 62.9267 9.24001C62.2926 9.86002 61.9756 10.71 61.9756 11.79V20.61C61.9756 20.8101 61.9041 20.98 61.7608 21.12C61.6177 21.2401 61.4439 21.3 61.2393 21.3H59.736Z" fill="white"/>
<path d="M73.4766 27C73.3129 27 73.1698 26.94 73.0471 26.82C72.9244 26.7 72.8631 26.5601 72.8631 26.4C72.8631 26.2601 72.9142 26.08 73.0164 25.86L75.3786 20.37L69.519 6.84001C69.4168 6.58001 69.3657 6.41001 69.3657 6.33001C69.3657 6.15002 69.427 6.00001 69.5497 5.88002C69.6724 5.76001 69.8259 5.70001 70.0099 5.70001H71.5132C71.8405 5.70001 72.0858 5.87001 72.2494 6.21001L76.9127 17.13L81.6985 6.21001C81.8621 5.87001 82.1178 5.70001 82.4656 5.70001H83.9075C84.0915 5.70001 84.2449 5.76001 84.3677 5.88002C84.4903 6.00001 84.5517 6.14001 84.5517 6.30001C84.5517 6.36002 84.5006 6.54001 84.3983 6.84001L75.6855 26.49C75.5219 26.8301 75.2662 27 74.9186 27H73.4766Z" fill="white"/>
<path d="M88.3485 27C88.1439 27 87.9701 26.93 87.827 26.79C87.7043 26.6701 87.6428 26.51 87.6428 26.31V6.39003C87.6428 6.19003 87.7043 6.03002 87.827 5.91003C87.9701 5.77002 88.1439 5.70002 88.3485 5.70002H89.7596C89.9642 5.70002 90.1278 5.77002 90.2505 5.91003C90.3937 6.03002 90.4653 6.19003 90.4653 6.39003V7.71003C91.6106 6.17002 93.2878 5.40002 95.4966 5.40002C97.6441 5.40002 99.2497 6.06002 100.313 7.38002C101.397 8.70002 101.98 10.4 102.062 12.48C102.082 12.7 102.093 13.04 102.093 13.5C102.093 13.96 102.082 14.3001 102.062 14.5201C101.98 16.58 101.397 18.28 100.313 19.6201C99.2293 20.9401 97.6237 21.6 95.4966 21.6C93.3696 21.6 91.713 20.85 90.5267 19.3501V26.31C90.5267 26.51 90.4653 26.6701 90.3426 26.79C90.2198 26.93 90.0562 27 89.8518 27H88.3485ZM94.8524 19.17C96.3046 19.17 97.3579 18.7301 98.0123 17.85C98.6873 16.9701 99.0554 15.8101 99.1167 14.37C99.1373 14.17 99.1475 13.88 99.1475 13.5C99.1475 9.72002 97.7158 7.83002 94.8524 7.83002C93.4412 7.83002 92.3777 8.29002 91.6619 9.21002C90.9664 10.11 90.588 11.19 90.5267 12.45L90.496 13.59L90.5267 14.7601C90.5676 15.94 90.9562 16.9701 91.6924 17.85C92.4288 18.7301 93.4821 19.17 94.8524 19.17Z" fill="white"/>
<path d="M111.936 21.3C108.704 21.3 107.088 19.54 107.088 16.02V8.1H104.695C104.491 8.1 104.317 8.04 104.174 7.92C104.051 7.77999 103.99 7.61001 103.99 7.40999V6.39001C103.99 6.19001 104.051 6.03 104.174 5.91C104.317 5.77 104.491 5.7 104.695 5.7H107.088V0.690001C107.088 0.49 107.15 0.330001 107.273 0.21C107.416 0.0700003 107.59 0 107.794 0H109.236C109.441 0 109.604 0.0700003 109.727 0.21C109.87 0.330001 109.942 0.49 109.942 0.690001V5.7H113.746C113.95 5.7 114.114 5.77 114.237 5.91C114.38 6.03 114.451 6.19001 114.451 6.39001V7.40999C114.451 7.61001 114.38 7.77999 114.237 7.92C114.114 8.04 113.95 8.1 113.746 8.1H109.942V15.8101C109.942 16.8101 110.116 17.57 110.463 18.09C110.811 18.5901 111.384 18.84 112.181 18.84H114.053C114.257 18.84 114.421 18.9099 114.543 19.0501C114.687 19.17 114.758 19.33 114.758 19.53V20.61C114.758 20.81 114.687 20.98 114.543 21.12C114.421 21.24 114.257 21.3 114.053 21.3H111.936Z" fill="white"/>
<path d="M124.073 21.6C121.967 21.6 120.279 20.9701 119.011 19.71C117.763 18.4301 117.078 16.69 116.956 14.4901L116.925 13.47L116.956 12.48C117.099 10.32 117.794 8.60002 119.042 7.32002C120.31 6.04002 121.977 5.40002 124.042 5.40002C126.313 5.40002 128.072 6.11002 129.319 7.53003C130.567 8.93002 131.191 10.83 131.191 13.23V13.74C131.191 13.94 131.119 14.11 130.976 14.2501C130.853 14.37 130.69 14.43 130.485 14.43H119.87V14.7C119.932 16.0001 120.33 17.1101 121.067 18.0301C121.823 18.93 122.815 19.3801 124.042 19.3801C124.983 19.3801 125.75 19.2 126.343 18.8401C126.957 18.4601 127.407 18.07 127.693 17.67C127.877 17.4301 128.01 17.29 128.092 17.25C128.194 17.1901 128.368 17.1601 128.614 17.1601H130.117C130.301 17.1601 130.454 17.21 130.577 17.31C130.7 17.41 130.761 17.55 130.761 17.7301C130.761 18.17 130.475 18.7001 129.902 19.3201C129.35 19.9401 128.562 20.4801 127.54 20.9401C126.538 21.38 125.382 21.6 124.073 21.6ZM128.276 12.36V12.27C128.276 10.89 127.887 9.77003 127.11 8.91002C126.354 8.03002 125.331 7.59002 124.042 7.59002C122.754 7.59002 121.731 8.03002 120.974 8.91002C120.238 9.77003 119.87 10.89 119.87 12.27V12.36H128.276Z" fill="white"/>
<path d="M133.793 21.3C133.629 21.3 133.476 21.2401 133.333 21.12C133.21 21 133.149 20.85 133.149 20.6701C133.149 20.49 133.22 20.31 133.364 20.1301L138.702 13.32L133.701 6.87001C133.558 6.71001 133.486 6.53002 133.486 6.33001C133.486 6.15002 133.548 6.00001 133.67 5.88002C133.793 5.76001 133.946 5.70001 134.131 5.70001H135.695C136.002 5.70001 136.268 5.86001 136.493 6.18002L140.573 11.37L144.653 6.21001C144.776 6.05002 144.889 5.93001 144.991 5.85002C145.114 5.75002 145.268 5.70001 145.45 5.70001H146.954C147.138 5.70001 147.292 5.76001 147.415 5.88002C147.538 6.00001 147.599 6.15002 147.599 6.33001C147.599 6.53002 147.527 6.71001 147.384 6.87001L142.322 13.38L147.659 20.1301C147.803 20.31 147.874 20.49 147.874 20.6701C147.874 20.85 147.813 21 147.69 21.12C147.569 21.2401 147.415 21.3 147.231 21.3H145.604C145.298 21.3 145.032 21.15 144.807 20.85L140.512 15.36L136.155 20.85C136.033 20.99 135.91 21.0999 135.787 21.18C135.685 21.26 135.542 21.3 135.358 21.3H133.793Z" fill="white"/>
</g>
<defs>
<clipPath id="clip0">
<rect width="148" height="27" fill="white"/>
</clipPath>
</defs>
</svg>
