<svg width="3000" height="841" viewBox="0 0 1920 841" xmlns="http://www.w3.org/2000/svg">
<g style="mix-blend-mode:overlay">
<path d="M-599.838 76.0166C-805.011 76.0166 -886 288.063 -886 288.063V972H2143V76.0166C2143 76.0166 2097.07 9.40912e-05 2040.41 0C1932.43 -0.000179334 1745.98 397.499 1557 397.5C1432.82 397.5 1404.99 203.5 1297 203.5C1192.63 203.5 1183.71 340.074 1079.34 340.074C1019.95 340.074 1012.6 276 947 276C882.208 276 880 314 753 314C618.018 314 572.794 572.125 334.239 572.125C204.656 572.125 129.066 363.837 21.0802 340.074C-77.9637 318.279 -140.166 340.074 -243.485 340.074C-346.071 340.074 -403.029 76.0166 -599.838 76.0166Z" fill="url(#paint0_linear)"/>
</g>
<defs>
<linearGradient id="paint0_linear" x1="628.5" y1="243" x2="628.5" y2="972" gradientUnits="userSpaceOnUse">
<stop stop-color="white" stop-opacity="0.3"/>
<stop offset="1" stop-color="white" stop-opacity="0.3"/>
</linearGradient>
</defs>
</svg>
