<?xml version="1.0" encoding="utf-8"?>
<!-- Generator: Adobe Illustrator 26.0.3, SVG Export Plug-In . SVG Version: 6.00 Build 0)  -->
<svg version="1.1" id="Слой_1" xmlns="http://www.w3.org/2000/svg" fill="white" xmlns:xlink="http://www.w3.org/1999/xlink" x="0px" y="0px"
	 viewBox="0 0 1000 1000" style="enable-background:new 0 0 1000 1000;" xml:space="preserve">
<path d="M-1435.5-715.6c-13.2,0-23.9,10.7-23.9,23.9c0,13.2,10.7,23.9,23.9,23.9c13.2,0,23.9-10.7,23.9-23.9
	C-1411.6-704.9-1422.3-715.6-1435.5-715.6z M-1435.5-715.6c-13.2,0-23.9,10.7-23.9,23.9c0,13.2,10.7,23.9,23.9,23.9
	c13.2,0,23.9-10.7,23.9-23.9C-1411.6-704.9-1422.3-715.6-1435.5-715.6z M-1435.5-715.6c-13.2,0-23.9,10.7-23.9,23.9
	c0,13.2,10.7,23.9,23.9,23.9c13.2,0,23.9-10.7,23.9-23.9C-1411.6-704.9-1422.3-715.6-1435.5-715.6z M-1435.5-715.6
	c-13.2,0-23.9,10.7-23.9,23.9c0,13.2,10.7,23.9,23.9,23.9c13.2,0,23.9-10.7,23.9-23.9C-1411.6-704.9-1422.3-715.6-1435.5-715.6z"/>
<path d="M109.8,438.7c-15.8,0-28.6,12.8-28.6,28.6c0,11.7,7.1,21.9,17.2,26.3c3.5,1.5,7.3,2.4,11.4,2.4c4.4,0,8.5-1,12.3-2.8
	c9.7-4.6,16.4-14.5,16.4-25.9C138.4,451.6,125.6,438.7,109.8,438.7z M385.8,302.1c-15.8,0-28.6,12.8-28.6,28.6s12.8,28.6,28.6,28.6
	s28.6-12.8,28.6-28.6S401.5,302.1,385.8,302.1z M834.1,690.2c-5.6-7.9-14.5-12.2-23.5-12.2c-5.7,0-11.4,1.7-16.4,5.2
	c-12.9,9.1-16,27-7,39.9c5.6,7.9,14.4,12.2,23.5,12.2c5.7,0,11.4-1.7,16.4-5.2C840,721,843.1,703.1,834.1,690.2z M822.8,584.8
	l-45.1-64L581.5,242.1h-83l292.3,416.4c22-9.1,48.3-2.1,62.5,18.2c16.5,23.5,10.8,56.1-12.7,72.6c-9.1,6.4-19.5,9.4-29.8,9.4
	c-16.4,0-32.6-7.7-42.7-22.1c-6.4-9.1-9.4-19.5-9.4-29.9c0-12.5,4.5-24.9,13.1-34.6l-46.1-65.7H199.8c-51.4,0-93.9-38.4-100.5-88
	c-23.7-4.9-41.6-25.9-41.6-51c0-28.7,23.4-52.1,52.1-52.1s52.1,23.4,52.1,52.1c0,9.4-2.5,18.2-6.9,25.9
	c-6.3,10.9-16.4,19.3-28.5,23.5c-1.2,0.4-2.4,0.8-3.6,1.1c6.1,36.9,38.3,65.1,76.9,65.1h174.6V381.6c-23.3-5.2-40.7-26-40.7-50.8
	c0-28.7,23.4-52.1,52.1-52.1c28.7,0,52.1,23.4,52.1,52.1c0,24.6-17.1,45.2-40,50.7v201.5H709L469.8,242.1H247.4
	c-122.5,0-222.2,99.7-222.2,222.2s99.7,222.2,222.2,222.2H304v114.5h70.4v-66.1c-23.3-5.2-40.7-26-40.7-50.8
	c0-28.7,23.4-52.1,52.1-52.1c28.7,0,52.1,23.4,52.1,52.1c0,24.6-17.1,45.2-40,50.7v66.3h71.8V686.4h222.2l80.7,114.5H975
	L822.8,584.8z M469.6,370.8l105.6,150H469.6V370.8z M247.4,407.7H304v113.2h-56.6c-31.2,0-56.6-25.4-56.6-56.6
	S216.2,407.7,247.4,407.7z M414.4,684c0-15.8-12.8-28.6-28.6-28.6s-28.6,12.8-28.6,28.6s12.8,28.6,28.6,28.6S414.4,699.8,414.4,684z
	"/>
</svg>
