<svg width="20" height="15" viewBox="0 0 20 15" fill="none" xmlns="http://www.w3.org/2000/svg">
<path d="M19 0.00658076C18.9148 -0.00219359 18.829 -0.00219359 18.7438 0.00658076H1.24376C1.1316 0.00830819 1.02019 0.0251182 0.912514 0.0565581L9.94376 9.04623L19 0.00658076Z" fill="#007AE2"/>
<path d="M19.925 0.875153L10.825 9.93355C10.5908 10.1663 10.274 10.2969 9.94375 10.2969C9.61352 10.2969 9.2967 10.1663 9.0625 9.93355L0.04375 0.943872C0.0160246 1.04573 0.00132418 1.15068 0 1.25623V13.7506C0 14.0819 0.131696 14.3997 0.366117 14.634C0.600537 14.8684 0.918479 15 1.25 15H18.75C19.0815 15 19.3995 14.8684 19.6339 14.634C19.8683 14.3997 20 14.0819 20 13.7506V1.25623C19.995 1.12607 19.9697 0.997494 19.925 0.875153ZM2.10625 13.7506H1.2375V12.8572L5.78125 8.35301L6.6625 9.23386L2.10625 13.7506ZM18.7375 13.7506H17.8625L13.3062 9.23386L14.1875 8.35301L18.7312 12.8572L18.7375 13.7506Z" fill="#007AE2"/>
</svg>
