<svg width="26" height="22" viewBox="0 0 26 22" fill="none" xmlns="http://www.w3.org/2000/svg">
<path d="M6.69164 1.23737H0.929565V20.8319H6.69164V1.23737Z" fill="#90D9AE"/>
<path d="M15.8783 7.50345H10.1162V21.2037H15.8783V7.50345Z" fill="#90D9AE"/>
<path d="M25.1575 14.3958H19.3954V21.522H25.1575V14.3958Z" fill="#90D9AE"/>
<path d="M24.5921 13.594H19.9553C19.1834 13.594 18.5528 14.21 18.5528 14.964V20.391H16.7209V8.16703C16.7209 7.41299 16.0903 6.79701 15.3184 6.79701H10.6816C9.90968 6.79701 9.27911 7.41299 9.27911 8.16703V20.391H7.44721V1.37002C7.44721 0.615979 6.81664 0 6.04474 0H1.40247C0.630567 0 0 0.615979 0 1.37002V21.1929C0 21.6389 0.347899 22 0.777336 22H0.820824H6.62095H10.0999H15.9001H19.379H25.1737H25.2227C25.6521 22 26 21.6389 26 21.1929V14.964C26 14.21 25.3694 13.594 24.5921 13.594ZM5.79469 20.391H1.64708V1.60898H5.79469V20.391ZM15.0738 20.391H10.9262V8.40599H15.0738V20.391ZM24.3475 20.391H20.1999V15.203H24.3475V20.391Z" fill="black"/>
</svg>
