<svg width="26" height="26" viewBox="0 0 26 26" fill="none" xmlns="http://www.w3.org/2000/svg">
<path d="M22.1914 3.80859C19.7387 1.35078 16.4734 0 13 0C9.52656 0 6.26133 1.35078 3.80859 3.80859C1.35078 6.26133 0 9.52656 0 13C0 16.4734 1.35078 19.7387 3.80859 22.1914C6.26641 24.6492 9.52656 26 13 26C16.4734 26 19.7387 24.6492 22.1914 22.1914C24.6492 19.7336 26 16.4734 26 13C26 9.52656 24.6492 6.26133 22.1914 3.80859Z" fill="#F3CE63"/>
<path d="M22.1914 3.80859C19.7387 1.35078 16.4734 0 13 0C9.52656 0 6.26133 1.35078 3.80859 3.80859C1.35078 6.26133 0 9.52656 0 13C0 16.4734 1.35078 19.7387 3.80859 22.1914C6.26641 24.6492 9.52656 26 13 26C16.4734 26 19.7387 24.6492 22.1914 22.1914C24.6492 19.7336 26 16.4734 26 13C26 9.52656 24.6492 6.26133 22.1914 3.80859ZM13 23.9688C6.95195 23.9688 2.03125 19.048 2.03125 13C2.03125 6.95195 6.95195 2.03125 13 2.03125C19.048 2.03125 23.9688 6.95195 23.9688 13C23.9688 19.048 19.048 23.9688 13 23.9688Z" fill="black"/>
<path d="M18.7382 14.5133C18.7331 14.5234 18.3675 15.6102 17.4687 16.6664C16.321 18.007 14.8636 18.6875 13.1218 18.6875C11.3698 18.6875 9.86162 17.9969 8.63779 16.641C7.67803 15.5746 7.25146 14.4828 7.25146 14.4727L5.34717 15.1836C5.36748 15.2395 5.88037 16.5953 7.07373 17.941C8.6835 19.759 10.7757 20.7188 13.1218 20.7188C15.478 20.7188 17.5347 19.7488 19.0683 17.9156C20.2007 16.5598 20.6526 15.1988 20.6679 15.1379L18.7382 14.5133Z" fill="black"/>
<path d="M8.53125 10.7706C9.42871 10.7706 10.1562 10.0431 10.1562 9.14562C10.1562 8.24816 9.42871 7.52062 8.53125 7.52062C7.63379 7.52062 6.90625 8.24816 6.90625 9.14562C6.90625 10.0431 7.63379 10.7706 8.53125 10.7706Z" fill="black"/>
<path d="M17.4688 10.7706C18.3662 10.7706 19.0938 10.0431 19.0938 9.14562C19.0938 8.24816 18.3662 7.52062 17.4688 7.52062C16.5713 7.52062 15.8438 8.24816 15.8438 9.14562C15.8438 10.0431 16.5713 10.7706 17.4688 10.7706Z" fill="black"/>
</svg>
