<svg width="26" height="26" viewBox="0 0 26 26" fill="none" xmlns="http://www.w3.org/2000/svg">
<path d="M22.7007 3.29568C18.0425 2.06156 13.5693 10.6547 15.0176 16.678C15.0843 16.9675 15.3103 17.196 15.5979 17.2722L21.7814 18.9076C22.069 18.9837 22.3771 18.8974 22.5877 18.6841C26.912 14.1539 27.3178 4.51965 22.7007 3.29568Z" fill="#5792F0"/>
<path d="M21.0213 20.3805L15.5106 18.9179C15.074 18.8011 14.6272 19.0601 14.5142 19.4867L13.9853 21.4318C13.4614 23.3617 14.6272 25.3576 16.5788 25.8757C18.5356 26.3937 20.5488 25.2459 21.0726 23.3109L21.6016 21.3658C21.7146 20.9341 21.4578 20.4923 21.0213 20.3805Z" fill="#5792F0"/>
<path d="M10.9962 13.4988C11.895 9.75072 10.4929 4.5857 7.79149 1.80258C4.84869 -1.2294 1.31528 -0.350786 0.288123 3.79342C-0.641453 7.53133 0.750343 12.7014 3.42608 15.5049C3.63151 15.7233 3.93966 15.8045 4.2324 15.7283L10.4159 14.0879C10.7035 14.0117 10.9295 13.7832 10.9962 13.4988Z" fill="#5792F0"/>
<path d="M11.4995 16.3073C11.3814 15.8807 10.9346 15.6217 10.5032 15.7385L4.98736 17.1961C4.55082 17.3129 4.29403 17.7547 4.41215 18.1813L4.936 20.1315C5.37254 21.7516 6.86192 22.8232 8.47968 22.8232C10.873 22.8232 12.6499 20.5734 12.0234 18.2575L11.4995 16.3073Z" fill="#5792F0"/>
<path d="M22.7007 3.29568C18.0425 2.06156 13.5693 10.6547 15.0176 16.678C15.0843 16.9675 15.3103 17.196 15.5979 17.2722L21.7814 18.9076C22.069 18.9837 22.3771 18.8974 22.5877 18.6841C26.912 14.1539 27.3178 4.51965 22.7007 3.29568ZM21.7198 17.2214L16.5069 15.84C16.2502 14.3825 16.3631 12.6557 16.8356 10.9188C18.3507 5.33223 22.8907 2.32565 24.1438 7.35355C24.9142 10.4769 23.7638 14.7989 21.7198 17.2214Z" fill="black"/>
<path d="M21.0213 20.3805L15.5106 18.9179C15.074 18.8011 14.6272 19.0601 14.5142 19.4867L13.9853 21.4318C13.4614 23.3617 14.6272 25.3576 16.5788 25.8757C18.5356 26.3937 20.5488 25.2459 21.0726 23.3109L21.6016 21.3658C21.7146 20.9341 21.4578 20.4923 21.0213 20.3805ZM19.4959 22.8945C19.2032 23.9712 18.0887 24.606 17 24.3216C15.9163 24.0321 15.2692 22.9249 15.5568 21.8533L15.8752 20.6852L19.8144 21.7264L19.4959 22.8945Z" fill="black"/>
<path d="M10.9962 13.4988C11.895 9.75072 10.4929 4.5857 7.79149 1.80258C4.84869 -1.2294 1.31528 -0.350786 0.288123 3.79342C-0.641453 7.53133 0.750343 12.7014 3.42608 15.5049C3.63151 15.7233 3.93966 15.8045 4.2324 15.7283L10.4159 14.0879C10.7035 14.0117 10.9295 13.7832 10.9962 13.4988ZM9.50684 12.6608L4.29403 14.0422C3.33364 12.9046 2.56327 11.3556 2.09078 9.61867C0.580862 4.05751 2.97413 -0.838339 6.6154 2.91989C8.83919 5.21037 10.0564 9.50694 9.50684 12.6608Z" fill="black"/>
<path d="M11.4995 16.3073C11.3814 15.8807 10.9346 15.6217 10.5032 15.7385L4.98736 17.1961C4.55082 17.3129 4.29403 17.7547 4.41215 18.1813L4.936 20.1315C5.37254 21.7516 6.86192 22.8232 8.47968 22.8232C10.873 22.8232 12.6499 20.5734 12.0234 18.2575L11.4995 16.3073ZM9.00867 21.1371C7.92502 21.4266 6.80542 20.7867 6.51268 19.71L6.19426 18.5419L10.1334 17.5008L10.4518 18.6689C10.7446 19.7456 10.0975 20.8527 9.00867 21.1371Z" fill="black"/>
</svg>
