<svg width="26" height="26" viewBox="0 0 26 26" fill="none" xmlns="http://www.w3.org/2000/svg">
<path d="M22.293 2.79309H1.26953V7.05872H22.293V2.79309Z" fill="#F36C85" stroke="black" stroke-miterlimit="10"/>
<path d="M23.5523 12.0961V2.3918C23.5523 1.97031 23.2121 1.63008 22.7906 1.63008H19.0633V0.761719C19.0633 0.340234 18.723 0 18.3016 0C17.8801 0 17.5398 0.340234 17.5398 0.761719V1.63008H12.5379V0.761719C12.5379 0.340234 12.1977 0 11.7762 0C11.3547 0 11.0145 0.340234 11.0145 0.761719V1.63008H6.0125V0.761719C6.0125 0.340234 5.67227 0 5.25078 0C4.8293 0 4.48906 0.340234 4.48906 0.761719V1.63008H0.761719C0.340234 1.63008 0 1.97031 0 2.3918V22.7906C0 23.2121 0.340234 23.5523 0.761719 23.5523H12.0961C13.5687 25.0605 15.6254 26 17.8953 26C22.3641 26 26 22.3641 26 17.8953C26 15.6254 25.0605 13.5687 23.5523 12.0961ZM1.52344 3.15352H22.0289V6.52539H1.52344V3.15352ZM1.52344 22.0289V8.04883H22.0289V10.923C20.8203 10.202 19.4035 9.78555 17.8953 9.78555C13.4266 9.78555 9.79063 13.4215 9.79063 17.8902C9.79063 19.3984 10.207 20.8152 10.9281 22.0238L1.52344 22.0289ZM17.8953 24.4766C14.2645 24.4766 11.3141 21.5262 11.3141 17.8953C11.3141 14.2645 14.2645 11.3141 17.8953 11.3141C21.5262 11.3141 24.4766 14.2645 24.4766 17.8953C24.4766 21.5262 21.5262 24.4766 17.8953 24.4766Z" fill="black"/>
<path d="M20.3429 17.1334H18.657V15.4475C18.657 15.026 18.3167 14.6858 17.8953 14.6858C17.4738 14.6858 17.1335 15.026 17.1335 15.4475V17.8952C17.1335 18.3167 17.4738 18.6569 17.8953 18.6569H20.3429C20.7644 18.6569 21.1046 18.3167 21.1046 17.8952C21.1046 17.4737 20.7644 17.1334 20.3429 17.1334Z" fill="black"/>
</svg>
