<svg width="17" height="26" viewBox="0 0 17 26" fill="none" xmlns="http://www.w3.org/2000/svg">
<path d="M12.4152 13.4402C11.9618 12.9254 11.3385 12.6475 10.6482 12.6475C9.68486 12.6475 9.07183 13.224 8.72668 13.7078C8.6391 13.8314 8.56183 13.9601 8.50001 14.0785C8.43819 13.9601 8.36092 13.8365 8.27334 13.7078C7.92819 13.224 7.32031 12.6475 6.35183 12.6475C5.66668 12.6475 5.03819 12.9306 4.58486 13.4402C4.15213 13.9292 3.91516 14.5829 3.91516 15.283C3.91516 16.0448 4.21395 16.7552 4.85274 17.5118C5.42456 18.1913 6.24365 18.8914 7.19668 19.6995C7.55213 20.0032 7.91789 20.3121 8.3094 20.657L8.31971 20.6673C8.37122 20.7136 8.43304 20.7342 8.49486 20.7342C8.55668 20.7342 8.62365 20.7136 8.67001 20.6673L8.68031 20.657C9.07183 20.3172 9.43759 20.0032 9.79304 19.6995C10.7461 18.8914 11.5652 18.1913 12.137 17.5118C12.7758 16.75 13.0746 16.0448 13.0746 15.283C13.0797 14.5829 12.8427 13.9292 12.4152 13.4402Z" fill="#57BEFC"/>
<path d="M12.7243 13.1673C12.1937 12.565 11.457 12.2356 10.6482 12.2356C9.6076 12.2356 8.91729 12.7967 8.50002 13.3217C7.93851 12.6114 7.19669 12.2356 6.35184 12.2356C5.5482 12.2356 4.81154 12.565 4.27578 13.1673C3.77608 13.7284 3.50305 14.4799 3.50305 15.2829C3.50305 16.1477 3.83275 16.9404 4.53851 17.7743C5.14639 18.5001 6.01699 19.2362 6.92881 20.0083L7.15032 20.1988C7.42851 20.4356 7.72214 20.6878 8.02608 20.9555L8.04154 20.9709C8.16517 21.0841 8.32487 21.1459 8.49487 21.1459C8.67002 21.1459 8.84002 21.079 8.96366 20.9606C9.29851 20.6723 9.64881 20.3686 10.0609 20.0135C10.9779 19.2362 11.8434 18.5001 12.4564 17.7743C13.1621 16.9353 13.4918 16.1425 13.4918 15.2829C13.4918 14.4902 13.224 13.7387 12.7243 13.1673ZM7.50578 14.2534C7.72214 14.5571 7.83032 14.866 7.86123 14.9638C7.95396 15.2417 8.21669 15.4322 8.51032 15.4322C8.80396 15.4322 9.06669 15.2469 9.15941 14.9638L9.16457 14.9535C9.17487 14.9174 9.2779 14.5931 9.52002 14.2483C9.73123 13.9497 10.1021 13.5894 10.6688 13.5894C11.0809 13.5894 11.457 13.7593 11.7249 14.063C12.0031 14.377 12.1576 14.8093 12.1576 15.2726C12.137 16.4617 10.9676 17.4603 9.19032 18.9737C9.02032 19.1178 8.85032 19.2671 8.67517 19.4164C8.61851 19.4627 8.56699 19.509 8.51032 19.5553C8.27336 19.3494 8.04154 19.1538 7.82517 18.9685C6.0376 17.4706 4.8682 16.4771 4.8682 15.2829C4.8682 14.8145 5.02275 14.3821 5.30093 14.0681C5.56881 13.7644 5.94487 13.5945 6.35699 13.5945C6.80517 13.5945 7.19154 13.8159 7.50578 14.2534Z" fill="black"/>
<path d="M16.4024 11.412L13.2497 8.42645C13.1776 8.35953 13.1364 8.26173 13.1364 8.16393V4.95704H13.1879C13.9864 4.95704 14.6406 4.30845 14.6406 3.50544V1.45159C14.6406 0.653732 13.9915 0 13.1879 0H3.81212C3.01364 0 2.35939 0.648584 2.35939 1.45159V3.50544C2.35939 4.30331 3.00848 4.95704 3.81212 4.95704H3.86364V8.16393C3.86364 8.26173 3.82242 8.35953 3.7503 8.42645L0.597576 11.412C0.216364 11.7723 0 12.2768 0 12.7967V24.0903C0 25.1404 0.855152 26 1.91121 26H8.5H15.0888C16.1397 26 17 25.1455 17 24.0903V12.7967C16.9948 12.2768 16.7785 11.7723 16.4024 11.412ZM3.90485 1.54425H13.0952V3.41279H3.90485V1.54425ZM15.4494 24.0903C15.4494 24.291 15.2845 24.4558 15.0836 24.4558H8.5H1.91121C1.7103 24.4558 1.54545 24.291 1.54545 24.0903V12.7967C1.54545 12.6989 1.58667 12.6011 1.65879 12.5342L4.81151 9.5486C5.19273 9.18828 5.40909 8.68383 5.40909 8.16393V4.95704H11.5909V8.16393C11.5909 8.68383 11.8073 9.19343 12.1885 9.5486L15.3412 12.5342C15.4133 12.6011 15.4545 12.6989 15.4545 12.7967V24.0903H15.4494Z" fill="black"/>
</svg>
