<svg width="26" height="26" viewBox="0 0 26 26" fill="none" xmlns="http://www.w3.org/2000/svg">
<path d="M5.63672 11.9844H2.03125V20.2618H5.63672V11.9844Z" fill="#5792F0"/>
<path d="M23.9687 11.9844H20.3633V20.2618H23.9687V11.9844Z" fill="#5792F0"/>
<path d="M6.09375 10.3086H4.08789C4.42812 5.6875 8.29258 2.03125 13 2.03125C16.7223 2.03125 20.0941 4.37734 21.384 7.86601C21.577 8.39414 22.1609 8.6582 22.6891 8.46523C23.2172 8.27226 23.4863 7.68828 23.2883 7.16016C22.5164 5.07812 21.1504 3.30078 19.3324 2.01094C17.4789 0.695703 15.2852 0 13 0C10.0699 0 7.31758 1.14258 5.2457 3.21445C3.19922 5.25586 2.06172 7.96758 2.03125 10.852C0.817578 11.5578 0 12.868 0 14.3711V17.8242C0 20.0637 1.82305 21.8867 4.0625 21.8867H6.09375C6.65234 21.8867 7.10937 21.4297 7.10937 20.8711V11.3242C7.10937 10.7656 6.65234 10.3086 6.09375 10.3086ZM5.07812 19.8555H4.0625C2.94023 19.8555 2.03125 18.9465 2.03125 17.8242V14.3711C2.03125 13.2488 2.94023 12.3398 4.0625 12.3398H5.07812V19.8555Z" fill="black"/>
<path d="M21.9375 10.3087H19.9062C19.3477 10.3087 18.8906 10.7657 18.8906 11.3243V18.2813V20.8712V21.9376C18.8906 22.4962 18.4336 22.9532 17.875 22.9532H14.7773V22.9837C14.432 22.359 13.7668 21.9376 13 21.9376C11.8777 21.9376 10.9688 22.8465 10.9688 23.9688C10.9688 25.0911 11.8777 26.0001 13 26.0001C13.7668 26.0001 14.432 25.5786 14.7773 24.954V24.9844H17.875C19.5559 24.9844 20.9219 23.6184 20.9219 21.9376V21.8868H21.9375C24.177 21.8868 26 20.0637 26 17.8243V14.3712C26 12.1317 24.177 10.3087 21.9375 10.3087ZM23.9688 17.8243C23.9688 18.9465 23.0598 19.8555 21.9375 19.8555H20.9219V18.2813V12.3399H21.9375C23.0598 12.3399 23.9688 13.2489 23.9688 14.3712V17.8243Z" fill="black"/>
</svg>
