<svg width="26" height="23" viewBox="0 0 26 23" fill="none" xmlns="http://www.w3.org/2000/svg">
<path d="M24.1008 2.25779C22.816 0.798364 21.0387 0 19.0938 0C16.3566 0 14.6199 1.63741 13.6449 3.01039C13.391 3.36635 13.1777 3.72231 13 4.06301C12.8223 3.72739 12.6039 3.36635 12.3551 3.01039C11.3801 1.63741 9.64844 0 6.90625 0C4.95625 0 3.17891 0.803449 1.89922 2.25779C0.675391 3.64603 0 5.50719 0 7.50055C0 9.66681 0.842969 11.6805 2.65586 13.8417C4.27578 15.774 6.60664 17.7623 9.3082 20.0659C10.3137 20.9253 11.3547 21.8101 12.4617 22.7813L12.4973 22.8118C12.6395 22.939 12.8223 23 13 23C13.1777 23 13.3605 22.939 13.5027 22.8118L13.5383 22.7813C14.6453 21.8101 15.6863 20.9253 16.6918 20.0659C19.3934 17.7623 21.7242 15.774 23.3441 13.8417C25.157 11.6805 26 9.66681 26 7.50055C26 5.50719 25.3246 3.64603 24.1008 2.25779Z" fill="#F36C85"/>
<path d="M24.1008 2.25779C22.816 0.798364 21.0387 0 19.0938 0C16.3566 0 14.6199 1.63741 13.6449 3.01039C13.391 3.36635 13.1777 3.72231 13 4.06301C12.8223 3.72739 12.6039 3.36635 12.3551 3.01039C11.3801 1.63741 9.64844 0 6.90625 0C4.95625 0 3.17891 0.803449 1.89922 2.25779C0.675391 3.64603 0 5.50719 0 7.50055C0 9.66681 0.842969 11.6805 2.65586 13.8417C4.27578 15.774 6.60664 17.7623 9.3082 20.0659C10.3137 20.9253 11.3547 21.8101 12.4617 22.7813L12.4973 22.8118C12.6395 22.939 12.8223 23 13 23C13.1777 23 13.3605 22.939 13.5027 22.8118L13.5383 22.7813C14.6453 21.8101 15.6863 20.9253 16.6918 20.0659C19.3934 17.7623 21.7242 15.774 23.3441 13.8417C25.157 11.6805 26 9.66681 26 7.50055C26 5.50719 25.3246 3.64603 24.1008 2.25779ZM15.7016 18.9014C14.8332 19.6438 13.9395 20.4015 13 21.2202C12.0605 20.4015 11.1668 19.6387 10.2984 18.9014C5.01211 14.3909 1.52344 11.4161 1.52344 7.50055C1.52344 5.88348 2.06172 4.37829 3.0418 3.26973C4.02695 2.14084 5.40312 1.52045 6.90625 1.52045C8.99336 1.52045 10.3441 2.80699 11.1109 3.89012C11.7965 4.86137 12.157 5.83772 12.2789 6.21402C12.3805 6.52929 12.675 6.74287 13.0051 6.74287C13.3352 6.74287 13.6297 6.52929 13.7312 6.21402C13.8531 5.83772 14.2137 4.86137 14.8992 3.89012C15.666 2.80699 17.0117 1.52045 19.1039 1.52045C20.607 1.52045 21.9832 2.14084 22.9684 3.26465C23.9484 4.37829 24.4867 5.8784 24.4867 7.49547C24.4766 11.4161 20.9879 14.3909 15.7016 18.9014Z" fill="black"/>
</svg>
