<svg width="44" height="43" viewBox="0 0 44 43" fill="none" xmlns="http://www.w3.org/2000/svg">
<path d="M36.1517 5.375H7.48503C6.49423 5.375 5.69336 6.17767 5.69336 7.16667V35.8333C5.69336 36.8223 6.49423 37.625 7.48503 37.625H22.9202V25.155H18.7313V20.2727H22.9202V16.6894C22.9202 12.5237 25.4644 10.2537 29.1911 10.2537C30.4434 10.2501 31.6976 10.3146 32.9446 10.4454V14.7812H30.3736C28.3526 14.7812 27.9584 15.7452 27.9584 17.1552V20.2638H32.7905L32.1634 25.146H27.9566V37.625H36.1517C37.1425 37.625 37.9434 36.8223 37.9434 35.8333V7.16667C37.9434 6.17767 37.1425 5.375 36.1517 5.375Z" fill="white"/>
</svg>
