<svg width="44" height="43" viewBox="0 0 44 43" fill="none" xmlns="http://www.w3.org/2000/svg">
<path d="M38.2117 14.8797C38.192 13.5234 37.9411 12.1778 37.461 10.9093C36.6207 8.7432 34.9096 7.03036 32.7435 6.19186C31.4911 5.72065 30.1671 5.46803 28.8269 5.43936C27.1034 5.36232 26.5569 5.34082 22.1816 5.34082C17.8064 5.34082 17.2456 5.34082 15.5346 5.43936C14.1962 5.46803 12.8721 5.72065 11.6198 6.19186C9.45364 7.03036 7.74081 8.7432 6.90231 10.9093C6.4311 12.1617 6.17669 13.4857 6.1516 14.8241C6.07456 16.5495 6.05127 17.0959 6.05127 21.4712C6.05127 25.8464 6.05127 26.4054 6.1516 28.1183C6.17848 29.4584 6.4311 30.7807 6.90231 32.0367C7.7426 34.201 9.45364 35.9138 11.6216 36.7523C12.8686 37.2397 14.1926 37.5156 15.5364 37.5586C17.2617 37.6356 17.8082 37.6589 22.1834 37.6589C26.5587 37.6589 27.1195 37.6589 28.8305 37.5586C30.1689 37.5317 31.4929 37.2791 32.7471 36.8079C34.9132 35.9676 36.6243 34.2547 37.4646 32.0904C37.9358 30.8362 38.1884 29.514 38.2153 28.172C38.2923 26.4484 38.3156 25.902 38.3156 21.5249C38.312 17.1497 38.312 16.5943 38.2117 14.8797ZM22.1709 29.7451C17.595 29.7451 13.888 26.0382 13.888 21.4622C13.888 16.8863 17.595 13.1794 22.1709 13.1794C26.7432 13.1794 30.4538 16.8863 30.4538 21.4622C30.4538 26.0382 26.7432 29.7451 22.1709 29.7451ZM30.7834 14.8044C29.7138 14.8044 28.852 13.9408 28.852 12.873C28.852 11.8052 29.7138 10.9416 30.7834 10.9416C31.8495 10.9416 32.7131 11.8052 32.7131 12.873C32.7131 13.9408 31.8495 14.8044 30.7834 14.8044Z" fill="#B30000"/>
<path d="M22.1709 26.8428C25.1424 26.8428 27.5513 24.4339 27.5513 21.4624C27.5513 18.4909 25.1424 16.082 22.1709 16.082C19.1994 16.082 16.7905 18.4909 16.7905 21.4624C16.7905 24.4339 19.1994 26.8428 22.1709 26.8428Z" fill="#B30000"/>
</svg>
