<svg width="32" height="33" viewBox="0 0 32 33" fill="none" xmlns="http://www.w3.org/2000/svg">
<g clip-path="url(#clip0)">
<path fill-rule="evenodd" clip-rule="evenodd" d="M10.932 0.863525H20.5223C29.2787 0.863525 31.3635 2.94837 31.3635 11.7047V21.295C31.3635 30.0514 29.2787 32.1363 20.5223 32.1363H10.932C2.17567 32.1363 0.0908203 30.0514 0.0908203 21.295V11.7047C0.0908203 2.94837 2.17567 0.863525 10.932 0.863525Z" fill="#B30000"/>
<path fill-rule="evenodd" clip-rule="evenodd" d="M25.7008 11.6375C25.8457 11.1544 25.7008 10.7993 25.0112 10.7993H22.7309C22.1511 10.7993 21.8838 11.106 21.7388 11.4442C21.7388 11.4442 20.5792 14.2707 18.9365 16.1068C18.405 16.6382 18.1634 16.8073 17.8735 16.8073C17.7286 16.8073 17.5188 16.6382 17.5188 16.1551V11.6375C17.5188 11.0577 17.3505 10.7993 16.8673 10.7993H13.2839C12.9216 10.7993 12.7037 11.0684 12.7037 11.3235C12.7037 11.8731 13.525 11.9999 13.6097 13.546V16.904C13.6097 17.6402 13.4767 17.7737 13.1868 17.7737C12.4138 17.7737 10.5334 14.9346 9.41814 11.6858C9.19958 11.0544 8.98036 10.7993 8.39758 10.7993H6.11727C5.46576 10.7993 5.33545 11.106 5.33545 11.4442C5.33545 12.0482 6.10852 15.0438 8.93501 19.0057C10.8193 21.7114 13.4742 23.1781 15.89 23.1781C17.3395 23.1781 17.5188 22.8523 17.5188 22.2912V20.2463C17.5188 19.5948 17.6561 19.4647 18.1151 19.4647C18.4533 19.4647 19.0331 19.6338 20.386 20.9384C21.9321 22.4845 22.187 23.1781 23.0567 23.1781H25.337C25.9885 23.1781 26.3142 22.8523 26.1263 22.2095C25.9207 21.5688 25.1825 20.6392 24.203 19.5372C23.6715 18.9091 22.8743 18.2327 22.6327 17.8944C22.2945 17.4596 22.3911 17.2663 22.6327 16.8798C22.6327 16.8798 25.4109 12.9662 25.7008 11.6375Z" fill="black"/>
</g>
<defs>
<clipPath id="clip0">
<rect width="31.2727" height="31.2727" fill="white" transform="translate(0.0908203 0.863525)"/>
</clipPath>
</defs>
</svg>
