<svg width="37" height="27" viewBox="0 0 37 27" fill="none" xmlns="http://www.w3.org/2000/svg">
<path d="M35.6873 4.9058C35.2752 3.36855 34.0659 2.15559 32.5304 1.74171C29.7247 0.971295 18.4999 0.958754 18.4999 0.958754C18.4999 0.958754 7.27686 0.946212 4.46932 1.68259C2.96432 2.09288 1.7209 3.33271 1.30523 4.86817C0.565275 7.67392 0.558108 13.4933 0.558108 13.4933C0.558108 13.4933 0.550941 19.3413 1.28552 22.1183C1.69761 23.6538 2.90698 24.8668 4.44423 25.2806C7.27865 26.0511 18.473 26.0636 18.473 26.0636C18.473 26.0636 29.6978 26.0761 32.5035 25.3415C34.0372 24.9295 35.2519 23.7183 35.6694 22.1828C36.4112 19.3789 36.4165 13.5613 36.4165 13.5613C36.4165 13.5613 36.4524 7.71155 35.6873 4.9058ZM14.9094 18.8844L14.9183 8.13438L24.2475 13.5183L14.9094 18.8844Z" fill="#B30000"/>
</svg>
