<?xml version="1.0" encoding="iso-8859-1"?>
<!-- Generator: Adobe Illustrator 19.0.0, SVG Export Plug-In . SVG Version: 6.00 Build 0)  -->
<svg version="1.1" id="Capa_1" xmlns="http://www.w3.org/2000/svg" xmlns:xlink="http://www.w3.org/1999/xlink" x="0px" y="0px"
	 viewBox="0 0 512 512" style="enable-background:new 0 0 512 512;" xml:space="preserve">
<g>
	<g>
		<path d="M55.07,317.628c-1.859-1.86-4.439-2.92-7.069-2.92c-2.63,0-5.21,1.06-7.07,2.92c-1.86,1.87-2.93,4.44-2.93,7.08
			c0,2.63,1.069,5.2,2.93,7.07c1.861,1.86,4.441,2.93,7.07,2.93c2.63,0,5.21-1.07,7.069-2.93c1.86-1.87,2.931-4.44,2.931-7.07
			C58.001,322.068,56.931,319.498,55.07,317.628z"/>
	</g>
</g>
<g>
	<g>
		<path d="M443.999,0H68.001c-16.542,0-30,13.458-30,30v194.514c0,0.017,0,0.034,0,0.051v65.101c0,5.523,4.478,10,10,10
			s10-4.477,10-10v-46.19l0.11,0.075c40.313,27.423,70.583,66.083,87.534,111.801c22.058,59.486,65.089,107.842,120.542,136.645
			H151.35l-8.477-9.005c-20.536-21.814-31.846-50.326-31.846-80.285c0-5.523-4.478-10-10-10s-10,4.477-10,10
			c0,32.96,11.695,64.424,33.056,89.289H68.001c-5.514,0-10-4.486-10-10V363.288c0-5.523-4.478-10-10-10s-10,4.477-10,10v118.709
			c0,16.542,13.458,30,30,30h248.955c0.023,0,0.046,0.003,0.069,0.003c0.025,0,0.05-0.003,0.076-0.003h126.898
			c16.542,0,30-13.458,30-30V30C473.999,13.458,460.541,0,443.999,0z M454,123.102c-9.99-5.667-21.171-8.683-32.803-8.683
			c-19.004,0-36.822,8.016-50.172,22.571c-27.019,29.46-27.019,77.396,0,106.856c13.35,14.555,31.168,22.572,50.172,22.572
			c11.631,0,22.813-3.017,32.803-8.683v96.402c-7.827,10.463-16.366,19.839-25.429,27.868c-4.134,3.662-4.517,9.982-0.854,14.116
			c1.977,2.231,4.727,3.369,7.489,3.369c2.357,0,4.724-0.829,6.627-2.515c4.166-3.69,8.225-7.632,12.167-11.795v96.817
			c-0.001,5.514-4.487,10-10.001,10H318.747l-13.58-4.817c-65.354-23.181-116.661-73.766-140.769-138.782
			c-18.404-49.637-51.269-91.61-95.038-121.385l-11.358-7.726V30c0-5.514,4.486-10,10-10h15.257
			c12.047,25.688,18.41,54.103,18.41,82.47v26.57c0,5.523,4.478,10,10,10s10-4.477,10-10v-26.57c0-28.193-5.703-56.429-16.549-82.47
			h106.082c-32.797,46.059-50.844,106.621-50.844,170.873c0,65.17,18.556,126.555,52.248,172.85
			c34.389,47.252,80.415,73.275,129.599,73.275c5.522,0,10-4.477,10-10c0-5.523-4.478-10-10-10c-42.62,0-82.901-23.1-113.428-65.044
			c-64.643-88.82-64.643-233.343,0.001-322.164c2.451-3.368,4.995-6.645,7.589-9.791H444c5.514,0,10,4.486,10,10V123.102z
			 M453.999,147.856v85.128c-9.148,8.683-20.661,13.436-32.803,13.436c-13.332,0-25.916-5.714-35.432-16.09
			c-20.183-22.006-20.183-57.813,0-79.82c9.516-10.376,22.1-16.09,35.432-16.09C433.338,134.421,444.851,139.173,453.999,147.856z"
			/>
	</g>
</g>
<g>
	<g>
		<path d="M350.614,51.182c-1.89-5.189-7.631-7.865-12.818-5.975c-20.275,7.384-38.94,20.554-53.977,38.085
			c-3.596,4.192-3.112,10.505,1.081,14.101c1.886,1.618,4.201,2.409,6.505,2.409c2.817,0,5.618-1.184,7.596-3.49
			C311.805,81.383,327.586,70.209,344.639,64C349.828,62.11,352.503,56.371,350.614,51.182z"/>
	</g>
</g>
<g>
	<g>
		<path d="M393.972,331.956c-0.315-5.514-5.004-9.719-10.557-9.411l-0.179,0.01c-5.514,0.316-9.727,5.042-9.41,10.556
			c0.305,5.319,4.714,9.428,9.975,9.428c0.192,0,0.387-0.006,0.582-0.017l0.179-0.01
			C390.076,342.196,394.289,337.47,393.972,331.956z"/>
	</g>
</g>
<g>
	<g>
		<path d="M350.531,318.779c-19.391-5.71-37.21-17.554-51.53-34.251c-32.486-37.878-42.281-94.546-24.953-144.369
			c1.813-5.216-0.944-10.916-6.16-12.73c-5.224-1.814-10.916,0.944-12.73,6.161c-19.622,56.42-8.371,120.777,28.662,163.959
			c16.842,19.637,37.956,33.612,61.062,40.417c0.943,0.278,1.894,0.41,2.829,0.41c4.321,0,8.307-2.823,9.589-7.178
			C358.859,325.899,355.829,320.339,350.531,318.779z"/>
	</g>
</g>
<g>
</g>
<g>
</g>
<g>
</g>
<g>
</g>
<g>
</g>
<g>
</g>
<g>
</g>
<g>
</g>
<g>
</g>
<g>
</g>
<g>
</g>
<g>
</g>
<g>
</g>
<g>
</g>
<g>
</g>
</svg>
