<svg width="16" height="12" viewBox="0 0 16 12" fill="none" xmlns="http://www.w3.org/2000/svg">
<path d="M9.45756 11.5379C9.38166 11.5383 9.30641 11.5238 9.23613 11.4951C9.16586 11.4664 9.10195 11.4241 9.04805 11.3706C8.99399 11.317 8.95108 11.2532 8.9218 11.1829C8.89252 11.1127 8.87744 11.0373 8.87744 10.9611C8.87744 10.885 8.89252 10.8096 8.9218 10.7393C8.95108 10.669 8.99399 10.6052 9.04805 10.5516L13.8353 5.77013L9.04805 0.988649C8.93944 0.88004 8.87843 0.732734 8.87843 0.579137C8.87843 0.42554 8.93944 0.278235 9.04805 0.169625C9.15666 0.0610161 9.30397 0 9.45756 0C9.61116 0 9.75846 0.0610161 9.86707 0.169625L15.0581 5.36062C15.1121 5.41424 15.155 5.47803 15.1843 5.54832C15.2136 5.6186 15.2287 5.69399 15.2287 5.77013C15.2287 5.84627 15.2136 5.92166 15.1843 5.99195C15.155 6.06223 15.1121 6.12602 15.0581 6.17964L9.86707 11.3706C9.81318 11.4241 9.74926 11.4664 9.67899 11.4951C9.60872 11.5238 9.53347 11.5383 9.45756 11.5379Z" fill="#C1237F"/>
<path d="M14.6479 6.34765H0.805293C0.652322 6.34765 0.505616 6.28688 0.39745 6.17871C0.289283 6.07055 0.228516 5.92384 0.228516 5.77087C0.228516 5.6179 0.289283 5.47119 0.39745 5.36303C0.505616 5.25486 0.652322 5.19409 0.805293 5.19409H14.6479C14.8009 5.19409 14.9476 5.25486 15.0558 5.36303C15.164 5.47119 15.2247 5.6179 15.2247 5.77087C15.2247 5.92384 15.164 6.07055 15.0558 6.17871C14.9476 6.28688 14.8009 6.34765 14.6479 6.34765Z" fill="#C1237F"/>
</svg>
