<svg width="15" height="12" viewBox="0 0 15 12" fill="none" xmlns="http://www.w3.org/2000/svg">
<path d="M9.22905 11.5379C9.15314 11.5383 9.07789 11.5238 9.00762 11.4951C8.93735 11.4664 8.87343 11.4241 8.81954 11.3706C8.76548 11.317 8.72257 11.2532 8.69328 11.1829C8.664 11.1127 8.64893 11.0373 8.64893 10.9611C8.64893 10.885 8.664 10.8096 8.69328 10.7393C8.72257 10.669 8.76548 10.6052 8.81954 10.5516L13.6068 5.77013L8.81954 0.988649C8.71093 0.88004 8.64991 0.732734 8.64991 0.579137C8.64991 0.42554 8.71093 0.278235 8.81954 0.169625C8.92815 0.0610161 9.07545 0 9.22905 0C9.38264 0 9.52995 0.0610161 9.63856 0.169625L14.8296 5.36062C14.8836 5.41424 14.9265 5.47803 14.9558 5.54832C14.9851 5.6186 15.0002 5.69399 15.0002 5.77013C15.0002 5.84627 14.9851 5.92166 14.9558 5.99195C14.9265 6.06223 14.8836 6.12602 14.8296 6.17964L9.63856 11.3706C9.58466 11.4241 9.52075 11.4664 9.45048 11.4951C9.3802 11.5238 9.30495 11.5383 9.22905 11.5379Z" fill="black"/>
<path d="M14.4194 6.34765H0.576777C0.423806 6.34765 0.277101 6.28688 0.168934 6.17871C0.0607674 6.07055 0 5.92384 0 5.77087C0 5.6179 0.0607674 5.47119 0.168934 5.36303C0.277101 5.25486 0.423806 5.19409 0.576777 5.19409H14.4194C14.5724 5.19409 14.7191 5.25486 14.8273 5.36303C14.9354 5.47119 14.9962 5.6179 14.9962 5.77087C14.9962 5.92384 14.9354 6.07055 14.8273 6.17871C14.7191 6.28688 14.5724 6.34765 14.4194 6.34765Z" fill="black"/>
</svg>
