<svg width="70" height="70" viewBox="0 0 70 70" fill="none" xmlns="http://www.w3.org/2000/svg">
<path d="M35.0001 0C19.5371 0 6.95703 12.5802 6.95703 28.0431V28.8183C6.95703 36.6386 11.4406 45.7517 20.2836 55.904C26.694 63.2639 33.0149 68.3957 33.2807 68.6107L35.0001 70L36.7195 68.6108C36.9854 68.3959 43.3063 63.264 49.7166 55.9042C58.5595 45.7517 63.0432 36.6387 63.0432 28.8184V28.0432C63.0432 12.5802 50.4631 0 35.0001 0ZM57.5714 28.8184C57.5714 42.0343 40.5429 58.0325 35.0001 62.889C29.4557 58.031 12.4288 42.0334 12.4288 28.8184V28.0432C12.4288 15.5974 22.5543 5.47189 35.0001 5.47189C47.4459 5.47189 57.5714 15.5974 57.5714 28.0432V28.8184Z" fill="#C1237F"/>
<path d="M34.9994 15.0476C27.8337 15.0476 22.0039 20.8774 22.0039 28.0431C22.0039 35.2088 27.8337 41.0387 34.9994 41.0387C42.1651 41.0387 47.995 35.2088 47.995 28.0431C47.995 20.8774 42.1653 15.0476 34.9994 15.0476ZM34.9994 35.5669C30.8508 35.5669 27.4757 32.1917 27.4757 28.0431C27.4757 23.8945 30.8508 20.5194 34.9994 20.5194C39.148 20.5194 42.5232 23.8945 42.5232 28.0431C42.5232 32.1917 39.148 35.5669 34.9994 35.5669Z" fill="#C1237F"/>
</svg>
