<svg width="52" height="52" viewBox="0 0 52 52" fill="none" xmlns="http://www.w3.org/2000/svg">
<path d="M26.0247 21.5484C28.5074 21.5393 30.4848 19.545 30.4757 17.0569C30.4667 14.5679 28.4851 12.5873 26.0013 12.5852C23.4968 12.5825 21.4966 14.5998 21.5158 17.1112C21.5344 19.5902 23.5341 21.5574 26.0247 21.5484Z" fill="#EE8208"/>
<path d="M26 0C11.6406 0 0 11.6411 0 26C0 40.3589 11.6406 52 26 52C40.3594 52 52 40.3589 52 26C52 11.6411 40.3594 0 26 0ZM26.0372 7.90666C31.1016 7.92049 35.1664 12.0629 35.1403 17.1831C35.1148 22.1852 30.9835 26.2394 25.9277 26.2224C20.9234 26.2053 16.8193 22.0565 16.8491 17.0443C16.8773 11.9773 20.9835 7.89283 26.0372 7.90666ZM36.2947 29.8206C35.1749 30.9702 33.8269 31.8022 32.3299 32.3826C30.9149 32.931 29.3642 33.2071 27.8289 33.3912C28.0614 33.6433 28.1704 33.7673 28.3151 33.912C30.3983 36.0063 32.4916 38.0901 34.5679 40.1903C35.2754 40.9063 35.4228 41.7936 35.0334 42.6251C34.6083 43.5348 33.6545 44.1327 32.7188 44.0683C32.1262 44.0274 31.6639 43.7332 31.2537 43.3199C29.6812 41.7378 28.0789 40.1839 26.5394 38.572C26.0899 38.1028 25.875 38.1922 25.4787 38.5997C23.8971 40.2286 22.2895 41.8314 20.6729 43.4257C19.9467 44.1418 19.0828 44.2716 18.2402 43.8619C17.3449 43.4289 16.7757 42.5145 16.8193 41.5947C16.8501 40.9744 17.1555 40.4988 17.5821 40.0743C19.6446 38.0161 21.7006 35.9515 23.7572 33.8886C23.8939 33.7519 24.0205 33.6066 24.219 33.3938C21.4139 33.1007 18.8844 32.4102 16.7187 30.717C16.4496 30.5063 16.1724 30.3031 15.9277 30.0669C14.9792 29.1567 14.884 28.1135 15.6335 27.04C16.2756 26.1208 17.3523 25.875 18.4721 26.4032C18.6891 26.5048 18.8955 26.6336 19.0934 26.7698C23.129 29.5429 28.6731 29.619 32.7246 26.8937C33.1257 26.5873 33.555 26.3351 34.0524 26.208C35.0185 25.959 35.9207 26.3149 36.4388 27.1608C37.032 28.1273 37.0251 29.07 36.2947 29.8206Z" fill="#EE8208"/>
</svg>
