<svg width="32" height="32" viewBox="0 0 32 32" fill="none" xmlns="http://www.w3.org/2000/svg">
<path d="M32 16V16.0473C31.9906 19.2078 31.0455 22.2947 29.2838 24.9186C27.5221 27.5425 25.0228 29.586 22.1011 30.7911C19.1794 31.9962 15.9663 32.3091 12.867 31.6902C9.76769 31.0714 6.9211 29.5485 4.68631 27.3137C2.45151 25.0789 0.928627 22.2323 0.309756 19.133C-0.309114 16.0337 0.00375402 12.8206 1.20889 9.89889C2.41403 6.97721 4.45746 4.47787 7.0814 2.71618C9.70533 0.954488 12.7922 0.0093516 15.9527 0H16C16.3854 0 16.7672 -4.06396e-08 17.1491 0.0436364C17.774 0.0873827 18.3957 0.168742 19.0109 0.287273C20.0184 0.478152 21.0049 0.766791 21.9563 1.14909C23.9531 1.95208 25.7679 3.14849 27.2928 4.66715C28.8177 6.18582 30.0216 7.9957 30.8327 9.98911C31.2261 10.9561 31.5221 11.9598 31.7164 12.9855V12.9855C31.8347 13.6068 31.916 14.2346 31.96 14.8655C32 15.2437 32 15.6364 32 16Z" fill="black"/>
<path d="M15.9527 15.5201C15.2853 15.5201 14.6328 15.3222 14.0779 14.9514C13.5229 14.5806 13.0904 14.0536 12.835 13.4369C12.5796 12.8203 12.5128 12.1418 12.643 11.4872C12.7732 10.8326 13.0946 10.2313 13.5665 9.75938C14.0384 9.28744 14.6397 8.96605 15.2943 8.83584C15.9489 8.70563 16.6274 8.77246 17.2441 9.02787C17.8607 9.28328 18.3877 9.71581 18.7585 10.2707C19.1293 10.8257 19.3272 11.4781 19.3272 12.1456C19.3263 13.0402 18.9704 13.898 18.3378 14.5307C17.7051 15.1633 16.8474 15.5191 15.9527 15.5201V15.5201ZM15.9527 10.4074C15.6089 10.4074 15.2728 10.5093 14.987 10.7003C14.7012 10.8913 14.4784 11.1628 14.3468 11.4804C14.2152 11.798 14.1808 12.1475 14.2479 12.4847C14.315 12.8218 14.4805 13.1315 14.7236 13.3746C14.9667 13.6177 15.2764 13.7833 15.6136 13.8503C15.9508 13.9174 16.3002 13.883 16.6179 13.7514C16.9355 13.6199 17.2069 13.3971 17.3979 13.1112C17.5889 12.8254 17.6909 12.4893 17.6909 12.1456C17.6899 11.6849 17.5065 11.2433 17.1807 10.9175C16.8549 10.5918 16.4134 10.4083 15.9527 10.4074Z" fill="white"/>
<path d="M20.5564 16.3638C20.4936 16.2552 20.4099 16.1601 20.3102 16.0839C20.2105 16.0077 20.0967 15.952 19.9754 15.9199C19.8541 15.8878 19.7277 15.88 19.6034 15.8969C19.479 15.9138 19.3593 15.9551 19.2509 16.0184C18.2736 16.6469 17.14 16.9895 15.9782 17.0075C14.8204 16.9706 13.6923 16.6322 12.7055 16.0257C12.4857 15.9201 12.2338 15.9024 12.0015 15.9763C11.7691 16.0502 11.5737 16.2101 11.4553 16.4233C11.3369 16.6364 11.3044 16.8867 11.3644 17.1231C11.4244 17.3594 11.5724 17.5639 11.7782 17.6948C12.3199 18.0008 12.8868 18.2599 13.4727 18.4693C13.7345 18.5597 13.9907 18.6653 14.24 18.7857L14.5527 18.942L12.2727 21.6984C12.1186 21.871 12.0334 22.0943 12.0334 22.3257C12.0334 22.5571 12.1186 22.7804 12.2727 22.9529C12.3612 23.052 12.4703 23.1305 12.5924 23.1829C12.7145 23.2352 12.8465 23.2602 12.9793 23.2561C13.112 23.2519 13.2423 23.2187 13.3608 23.1588C13.4794 23.0989 13.5834 23.0137 13.6655 22.9093L15.9527 20.1457L18.2437 22.9093C18.3948 23.0908 18.6107 23.2063 18.8455 23.2314C19.0803 23.2565 19.3157 23.1893 19.5018 23.0439C19.6922 22.8787 19.8096 22.6451 19.8287 22.3939C19.8477 22.1426 19.7669 21.894 19.6037 21.702L17.3055 18.9093L17.4037 18.862C17.6388 18.7558 17.882 18.6683 18.1309 18.6002C18.8655 18.3745 19.57 18.0607 20.2291 17.6657C20.4399 17.5364 20.5924 17.3304 20.6546 17.0911C20.6881 16.9695 20.6967 16.8424 20.6799 16.7174C20.663 16.5925 20.621 16.4722 20.5564 16.3638Z" fill="white"/>
</svg>
