<svg width="57" height="95" viewBox="0 0 57 95" fill="none" xmlns="http://www.w3.org/2000/svg">
<path d="M36.1001 85.3341C36.1001 84.0176 35.8571 82.7704 35.3726 81.5929C34.8876 80.4147 34.1943 79.393 33.2939 78.5264C32.3932 77.6603 31.3538 76.9674 30.1759 76.4482C28.998 75.928 27.7509 75.6682 26.4344 75.6682C25.1179 75.6682 23.8707 75.928 22.6928 76.4482C21.5149 76.9679 20.4929 77.6608 19.6268 78.5264C18.7606 79.393 18.0851 80.4145 17.6 81.5929C17.115 82.7709 16.8725 84.0176 16.8725 85.3341C16.8725 86.6507 17.115 87.8983 17.6 89.0757C18.0851 90.2539 18.7606 91.2756 19.6268 92.1419C20.4929 93.0084 21.5149 93.7013 22.6928 94.2204C23.8707 94.7406 25.1179 94.9999 26.4344 94.9999C27.7509 94.9999 28.9981 94.7406 30.1759 94.2204C31.3542 93.7007 32.3937 93.0079 33.2939 92.1419C34.1947 91.2756 34.8876 90.2541 35.3726 89.0757C35.8575 87.8978 36.1001 86.6506 36.1001 85.3341ZM27.1618 71.4069H26.3303C24.1131 71.1297 22.2942 70.125 20.8738 68.3928C19.4534 66.6611 18.8471 64.6858 19.0549 62.4686C19.4707 58.658 20.4234 54.968 21.9131 51.3996C23.4029 47.831 25.3256 44.661 27.6815 41.8894C28.4437 40.9194 29.275 40.0359 30.1757 39.2391C31.077 38.4423 31.9772 37.6628 32.878 36.9006C35.1646 34.9605 36.9146 33.2283 38.1267 31.7039C39.3387 30.1795 39.9455 28.3087 39.9455 26.0915C39.9455 24.1514 39.5471 22.5577 38.7503 21.3105C37.954 20.0633 36.9836 19.0759 35.8401 18.3484C34.6967 17.6208 33.5014 17.1012 32.2544 16.7894C31.0072 16.4776 29.8986 16.3217 28.9285 16.3217H28.7206C26.7805 16.3217 25.1869 16.5815 23.9397 17.1012C22.6925 17.6208 21.6358 18.3484 20.7697 19.2838C19.9036 20.2192 19.176 21.3451 18.5871 22.6616C17.9981 23.9781 17.3918 25.3986 16.7682 26.9229C15.9368 29.0709 14.9321 30.5779 13.7541 31.4441C12.5762 32.3102 11.3983 32.8125 10.2204 32.9511C8.90388 33.2283 7.55274 33.1243 6.16695 32.6393C4.78116 32.085 3.67253 31.2882 2.84106 30.2488C2.07888 29.3481 1.48992 28.1875 1.07418 26.767C0.658448 25.3466 0.797026 23.597 1.48992 21.5184C1.90566 20.2019 2.6332 18.3137 3.67254 15.8539C4.71188 13.3942 6.28821 10.9864 8.40154 8.63053C10.5149 6.27469 13.2345 4.23065 16.5604 2.49842C19.8863 0.766181 24.0436 -0.0652919 29.0323 0.00399747C32.3582 0.0732869 35.6321 0.679569 38.854 1.82284C42.076 2.96612 44.9688 4.64639 47.5325 6.86365C50.0968 9.08091 52.1749 11.8005 53.7691 15.0225C55.3628 18.2444 56.1591 21.9341 56.1591 26.0915C56.1591 29.1402 55.7438 31.8425 54.9119 34.1983C54.0804 36.5542 53.0237 38.6675 51.7419 40.5383C50.46 42.4091 49.0742 44.0374 47.5847 45.4232C46.095 46.809 44.7265 48.0562 43.4793 49.165C42.7864 49.7886 42.1281 50.3602 41.504 50.8799C40.8804 51.4001 40.3959 51.9024 40.0495 52.387C38.8022 53.9118 37.7456 55.6955 36.8795 57.7401C36.0128 59.7841 35.4764 61.9148 35.2685 64.132C35.0606 66.28 34.1772 68.0295 32.6185 69.3807C31.0592 70.7313 29.2405 71.4069 27.1618 71.4069Z" fill="#C1237F"/>
</svg>
