<svg width="52" height="52" viewBox="0 0 52 52" fill="none" xmlns="http://www.w3.org/2000/svg">
<g clip-path="url(#clip0_74_5)">
<path d="M26 52C40.3594 52 52 40.3594 52 26C52 11.6406 40.3594 0 26 0C11.6406 0 0 11.6406 0 26C0 40.3594 11.6406 52 26 52Z" fill="url(#paint0_linear_74_5)"/>
<path d="M9.6831 27.2718C12.7225 25.5976 16.1153 24.2003 19.2853 22.7959C24.739 20.4956 30.2144 18.2351 35.745 16.1306C36.8211 15.772 38.7545 15.4213 38.9441 17.016C38.8403 19.2732 38.4133 21.5173 38.1204 23.7613C37.3769 28.6961 36.5176 33.614 35.6796 38.5325C35.3909 40.1709 33.3385 41.019 32.0253 39.9705C28.8693 37.8388 25.6891 35.7278 22.5734 33.5466C21.5528 32.5095 22.4992 31.0203 23.4107 30.2797C26.0101 27.718 28.7668 25.5416 31.2303 22.8476C31.8948 21.2428 29.9313 22.5953 29.2837 23.0097C25.7252 25.4619 22.2537 28.0638 18.5019 30.219C16.5855 31.274 14.3519 30.3724 12.4364 29.7837C10.7188 29.0726 8.20201 28.3562 9.68292 27.2719L9.6831 27.2718Z" fill="white"/>
</g>
<defs>
<linearGradient id="paint0_linear_74_5" x1="19.503" y1="2.1684" x2="6.50303" y2="32.5" gradientUnits="userSpaceOnUse">
<stop stop-color="#37AEE2"/>
<stop offset="1" stop-color="#1E96C8"/>
</linearGradient>
<clipPath id="clip0_74_5">
<rect width="52" height="52" fill="white"/>
</clipPath>
</defs>
</svg>
