<svg width="32" height="32" viewBox="0 0 32 32" fill="none" xmlns="http://www.w3.org/2000/svg">
<path d="M32.0002 16V16.0473C31.9909 19.2078 31.0458 22.2947 29.2841 24.9186C27.5224 27.5425 25.023 29.586 22.1014 30.7911C19.1797 31.9962 15.9665 32.3091 12.8672 31.6902C9.76793 31.0714 6.92135 29.5485 4.68655 27.3137C2.45176 25.0789 0.928872 22.2323 0.310001 19.133C-0.30887 16.0337 0.00399816 12.8206 1.20914 9.89889C2.41428 6.97721 4.4577 4.47787 7.08164 2.71618C9.70558 0.954488 12.7925 0.0093516 15.9529 0H16.0002C16.3857 0 16.7675 -4.06396e-08 17.1493 0.0436364C17.7742 0.0873827 18.396 0.168742 19.0111 0.287273C20.0186 0.478152 21.0051 0.766791 21.9566 1.14909C23.9533 1.95208 25.7681 3.14849 27.293 4.66715C28.8179 6.18582 30.0218 7.9957 30.833 9.98911C31.2263 10.9561 31.5223 11.9598 31.7166 12.9855V12.9855C31.8349 13.6068 31.9163 14.2346 31.9602 14.8655C32.0002 15.2437 32.0002 15.6364 32.0002 16Z" fill="black"/>
<path d="M21.091 20.4981H23.1928C23.1928 20.4981 24.7165 20.3854 23.3056 18.9272C21.8947 17.469 20.611 16.8254 21.7819 15.6545C22.9528 14.4836 24.8947 11.9163 23.1601 11.9163H20.6147C20.5674 11.9163 20.2801 11.8363 20.0692 12.3163C19.6789 13.2252 19.213 14.0998 18.6765 14.9308C18.1783 15.6072 17.8874 16.0872 17.5019 15.8799C17.1165 15.6727 17.3856 12.6399 17.3856 12.6399C17.4115 12.5144 17.4099 12.3848 17.3807 12.26C17.3515 12.1352 17.2956 12.0182 17.2167 11.9172C17.1378 11.8162 17.0379 11.7335 16.9239 11.675C16.8099 11.6164 16.6845 11.5834 16.5565 11.5781C15.6328 11.4763 14.1892 11.3963 13.5383 11.7818C13.0365 12.0727 13.2219 12.1454 13.7165 12.3163C14.211 12.4872 14.3928 13.6399 14.3128 14.6072C14.2328 15.5745 14.0074 16.2654 13.4619 15.7999C12.9165 15.3345 11.731 13.1345 11.571 12.7272C11.411 12.3199 11.3165 11.909 10.4801 11.9236C9.64373 11.9381 8.87282 11.9236 8.61827 11.9563C8.36373 11.989 7.76736 11.9563 8.29827 12.9199C8.82918 13.8836 10.1128 16.7927 11.411 18.1818C12.7092 19.5709 14.091 20.4618 15.6146 20.4909C17.1383 20.52 17.2183 20.4909 17.2983 19.6727C17.3783 18.8545 17.6837 17.909 18.4547 18.7127C19.2256 19.5163 20.2437 20.5345 21.091 20.4981Z" fill="white"/>
</svg>
