<svg width="70" height="70" viewBox="0 0 70 70" fill="none" xmlns="http://www.w3.org/2000/svg">
<path d="M67.604 50.6797L58.886 41.8847C57.445 40.4428 55.4997 39.5778 53.6984 39.5778C51.7531 39.5778 50.0239 40.3708 48.5108 41.8847L43.4674 46.931C43.2512 46.7868 42.963 46.6426 42.7469 46.5705C42.7469 46.5705 42.6748 46.5705 42.6748 46.4985L42.6028 46.4264C41.9543 45.9938 41.2338 45.5613 40.3692 45.2008C35.9742 42.4614 31.8673 38.6406 27.6885 33.5221C25.7431 31.0711 24.3742 28.9083 23.2934 26.5294C24.4462 25.5922 25.3108 24.655 25.9593 23.9341L28.1928 21.6993C29.922 20.1133 30.7866 18.311 30.7866 16.4367C30.7866 14.4902 29.922 12.688 28.2648 10.9578L21.4201 4.10917C20.7717 3.46035 20.1232 2.81153 19.4027 2.16272C17.9617 0.792997 16.1605 0 14.2872 0C12.1977 0 10.4686 0.720906 8.88346 2.3069L3.62382 7.56952C1.53438 9.51596 0.309534 11.967 0.0213351 14.9949V15.0669C-0.122764 18.8157 0.45363 22.276 2.03873 26.6014C4.56047 33.378 8.37911 39.7219 14.071 46.7147C21.4922 55.0772 29.8499 61.5654 39.1444 66.035L39.3605 66.1071C42.0984 67.3326 47.286 69.6395 53.05 70H53.8425C57.6612 70 60.5432 68.7745 62.9208 66.1792C63.7854 65.1699 64.722 64.2328 65.5146 63.3677C66.163 62.863 66.5953 62.3584 67.0276 61.8538L67.604 61.277L67.7481 61.1329C70.7742 57.8167 70.7742 53.7796 67.604 50.6797ZM65.0823 58.6818L64.3618 59.4027L64.2897 59.5469C63.9295 59.9794 63.6413 60.3399 63.281 60.6282L63.0649 60.8445C62.2003 61.7096 61.1916 62.7188 60.1829 63.8723C58.5258 65.6746 56.6525 66.4676 53.8425 66.4676H53.2661C48.2226 66.1071 43.6115 64.0886 40.8736 62.863L40.7295 62.7909C31.8673 58.5376 23.8698 52.3378 16.881 44.4078C11.4052 37.7755 7.80271 31.7199 5.42507 25.3759C3.98407 21.4109 3.47972 18.5273 3.62382 15.2832C3.83997 13.1926 4.63252 11.5345 6.07352 10.2369L11.4052 4.90216C12.2698 4.03708 13.1344 3.67662 14.2151 3.67662C15.1518 3.67662 16.0164 4.10917 16.8089 4.83007L16.881 4.90216C17.5294 5.47889 18.1779 6.1277 18.8263 6.77652L25.6711 13.6251C26.968 14.9228 27.1841 15.932 27.1841 16.5088C27.1841 17.0855 27.04 17.9506 25.6711 19.1761L23.3655 21.483C22.5729 22.3481 21.6363 23.2853 20.4114 24.2945L20.2673 24.4387L20.1232 24.655C19.4748 25.5201 19.4027 26.3131 19.763 27.4665L19.835 27.7549L19.9071 28.0433C21.1319 30.7106 22.645 33.1617 24.8065 35.9011C29.2735 41.38 33.7406 45.4892 38.4959 48.4449L38.7121 48.5891C39.2885 48.8774 39.8649 49.1658 40.3692 49.4542C40.5854 49.6704 40.8736 49.8146 41.0897 49.8867C41.3779 50.0309 41.5941 50.103 41.7382 50.2472L42.2425 50.6076H42.3866L42.6028 50.6797C43.0351 50.8239 43.3233 50.8239 43.5394 50.8239C44.2599 50.8239 44.9084 50.5355 45.5568 49.8867L50.9605 44.4799C51.8251 43.6148 52.6177 43.2544 53.6264 43.2544C54.7071 43.2544 55.7158 43.9032 56.2922 44.4799L65.0823 53.275C66.8115 55.0052 66.8835 56.8074 65.0823 58.6818Z" fill="#C1237F"/>
</svg>
