<svg width="32" height="24" viewBox="0 0 32 24" fill="none" xmlns="http://www.w3.org/2000/svg">
<path d="M26.493 14.586C27.5721 13.693 28.2791 12.3163 28.2791 10.7907C28.2791 8.22326 26.1953 5.95349 23.814 5.95349C21.4326 5.95349 19.3488 8.22326 19.3488 10.7907C19.3488 12.3163 20.0558 13.693 21.1349 14.586C20.6512 14.7721 20.2047 14.9581 19.7581 15.2186C18.3442 13.5442 16.4837 12.2419 14.3256 11.6093C15.9628 10.4558 17.1163 8.48372 17.1163 6.32558C17.1163 2.93953 14.3256 0 11.1628 0C8 0 5.2093 2.93953 5.2093 6.32558C5.2093 8.48372 6.36279 10.4558 8 11.6093C3.38605 12.986 0 17.2651 0 22.3256C0 22.7349 0.334884 23.0698 0.744186 23.0698H31.2558C31.6651 23.0698 32 22.7349 32 22.3256C32 18.7535 29.693 15.7023 26.493 14.586ZM20.8372 10.7907C20.8372 9.22791 22.1395 7.44186 23.814 7.44186C25.4884 7.44186 26.7907 9.22791 26.7907 10.7907C26.7907 12.3535 25.4884 14.1395 23.814 14.1395C22.1395 14.1395 20.8372 12.3535 20.8372 10.7907ZM6.69767 6.32558C6.69767 4.05581 8.59535 1.48837 11.1628 1.48837C13.7302 1.48837 15.6279 4.05581 15.6279 6.32558C15.6279 8.59535 13.7302 11.1628 11.1628 11.1628C8.59535 11.1628 6.69767 8.59535 6.69767 6.32558ZM1.52558 21.5814C1.89767 16.5953 6.10233 12.6512 11.1628 12.6512C16.2605 12.6512 20.4279 16.5953 20.8 21.5814H1.52558ZM22.2884 21.5814C22.1767 19.7209 21.5814 17.9349 20.614 16.4465C21.5814 15.9256 22.6605 15.6279 23.814 15.6279C27.2744 15.6279 30.1023 18.2326 30.4744 21.5814H22.2884Z" fill="white"/>
</svg>
