<svg width="32" height="32" viewBox="0 0 32 32" fill="none" xmlns="http://www.w3.org/2000/svg">
<path d="M23.2225 8.77765C22.7136 8.26873 22.037 7.98853 21.3175 7.98853C20.5981 7.98853 19.9214 8.26873 19.4125 8.77765C18.9037 9.28645 18.6235 9.96301 18.6235 10.6825C18.6235 11.4021 18.9037 12.0786 19.4125 12.5875C19.9214 13.0963 20.5979 13.3764 21.3173 13.3765C21.3175 13.3765 21.3175 13.3765 21.3175 13.3765C22.037 13.3765 22.7136 13.0963 23.2225 12.5875C23.7313 12.0786 24.0115 11.402 24.0115 10.6825C24.0114 9.96301 23.7312 9.28649 23.2225 8.77765ZM22.1508 11.5159C21.9282 11.7386 21.6324 11.8613 21.3175 11.8613C21.0026 11.8612 20.7066 11.7386 20.4841 11.5159C20.2615 11.2934 20.1388 10.9975 20.1388 10.6825C20.1388 10.3678 20.2614 10.0718 20.4841 9.84917C20.7066 9.62657 21.0028 9.50397 21.3175 9.50397C21.6322 9.50397 21.9282 9.62649 22.1508 9.84917C22.6105 10.3087 22.6105 11.0564 22.1508 11.5159Z" fill="white"/>
<path d="M2.49151 25.0888C2.29763 25.0888 2.10379 25.0149 1.95583 24.8669C1.65991 24.571 1.65991 24.0911 1.95583 23.7953L6.33703 19.414C6.63295 19.1182 7.11271 19.1182 7.40863 19.414C7.70455 19.7099 7.70455 20.1898 7.40863 20.4857L3.02727 24.8669C2.87935 25.0149 2.68547 25.0888 2.49151 25.0888Z" fill="white"/>
<path d="M3.47112 29.2869C3.27712 29.2869 3.08328 29.2129 2.93532 29.0649C2.6394 28.769 2.6394 28.2893 2.93532 27.9935L7.50196 23.4268C7.79788 23.1309 8.27764 23.1309 8.57344 23.4268C8.86936 23.7227 8.86936 24.2025 8.57344 24.4984L4.00688 29.0649C3.85896 29.2129 3.66496 29.2869 3.47112 29.2869Z" fill="white"/>
<path d="M7.66887 30.2663C7.47491 30.2663 7.28103 30.1924 7.13307 30.0445C6.83715 29.7486 6.83715 29.2688 7.13307 28.9729L11.5144 24.5915C11.8102 24.2957 12.2901 24.2956 12.5859 24.5915C12.8818 24.8874 12.8818 25.3673 12.5859 25.6632L8.20467 30.0445C8.05671 30.1924 7.86283 30.2663 7.66887 30.2663Z" fill="white"/>
<path d="M30.0444 1.95572C29.8723 1.78372 29.6281 1.7046 29.3883 1.74328C29.3002 1.75756 27.2001 2.10248 24.3383 3.19592C22.6593 3.83728 21.0643 4.6054 19.5971 5.47896C17.7956 6.55152 16.1829 7.7878 14.8012 9.1538L9.07897 10.2678C8.93125 10.2965 8.79553 10.3688 8.68885 10.4749L3.50461 15.6425C3.26833 15.8779 3.21393 16.24 3.37021 16.5345C3.50341 16.7853 3.76293 16.9369 4.03921 16.9369C4.08729 16.9369 4.13581 16.9323 4.18433 16.923L10.0317 15.7845C9.65109 16.5314 9.29497 17.3067 8.96441 18.1102C8.84825 18.3931 8.91325 18.718 9.12941 18.9344L10.5619 20.3668L9.23105 21.6976C8.93513 21.9935 8.93513 22.4732 9.23105 22.7691C9.37901 22.917 9.57285 22.991 9.76693 22.991C9.96081 22.991 10.1547 22.917 10.3026 22.7692L11.6334 21.4384L13.0659 22.8709C13.2109 23.0156 13.4046 23.0928 13.6019 23.0928C13.6988 23.0928 13.7967 23.0741 13.8898 23.0358C14.6935 22.7053 15.4688 22.3492 16.2155 21.9686L15.0773 27.8161C15.0135 28.1434 15.1713 28.4738 15.4656 28.6302C15.5779 28.6897 15.6997 28.7187 15.8208 28.7187C16.0175 28.7187 16.2119 28.642 16.3575 28.4958L21.525 23.3116C21.6312 23.2051 21.7033 23.0692 21.7322 22.9215L22.846 17.1993C24.2119 15.8174 25.4484 14.2049 26.5211 12.4032C27.3944 10.9359 28.1627 9.34092 28.8041 7.66208C29.8973 4.80004 30.2425 2.70016 30.2567 2.61208C30.2953 2.37176 30.2162 2.1276 30.0444 1.95572ZM6.33561 14.9601L9.59517 11.7112L13.1021 11.0284C12.3415 11.964 11.6359 12.9738 10.9883 14.0543L6.33561 14.9601ZM20.2887 22.4049L17.0398 25.6645L17.9455 21.0118C19.0263 20.3642 20.0359 19.6586 20.9714 18.8979L20.2887 22.4049ZM27.3743 7.15752C26.4177 9.65236 24.6539 13.2496 21.6848 16.2188C20.3179 17.5855 18.7264 18.8004 16.9292 19.8523C16.897 19.8683 16.8658 19.8864 16.8363 19.9069C15.8743 20.4646 14.8537 20.976 13.7773 21.439L12.705 20.3666L14.8694 18.2024C15.1652 17.9065 15.1652 17.4267 14.8694 17.1308C14.5735 16.8349 14.0937 16.835 13.7978 17.1308L11.6335 19.295L10.5612 18.2227C11.0243 17.1462 11.5357 16.1254 12.0935 15.1632C12.1139 15.1339 12.1316 15.1032 12.1475 15.0714C13.1995 13.2738 14.4144 11.6821 15.7815 10.315C18.7505 7.346 22.3477 5.58224 24.8426 4.6256C26.3585 4.04412 27.6635 3.68156 28.5262 3.47372C28.3183 4.33656 27.9557 5.6416 27.3743 7.15752Z" fill="white"/>
</svg>
