<svg width="16" height="14" viewBox="0 0 16 14" fill="none" xmlns="http://www.w3.org/2000/svg">
<path d="M15.3654 3.0961C14.9424 2.67303 14.436 2.46153 13.8462 2.46153H7.38464V2.15384C7.38464 1.5641 7.17304 1.05767 6.75004 0.634704C6.32697 0.211636 5.82052 0 5.23077 0H2.15384C1.56396 0 1.05757 0.211602 0.63457 0.634704C0.211501 1.05767 0 1.5641 0 2.15384V11.3847C0 11.9743 0.211501 12.4808 0.63457 12.9037C1.05764 13.3269 1.5641 13.5385 2.15384 13.5385H13.8462C14.436 13.5385 14.9424 13.3269 15.3654 12.9037C15.7886 12.4807 16 11.9743 16 11.3847V4.6155C16 4.02572 15.7886 3.51933 15.3654 3.0961ZM14.7692 11.3847C14.7692 11.641 14.6796 11.8593 14.5001 12.0386C14.3207 12.218 14.1027 12.3076 13.8462 12.3076H2.15384C1.89741 12.3076 1.67951 12.218 1.50001 12.0386C1.3205 11.8593 1.23081 11.641 1.23081 11.3847V2.15397C1.23081 1.89765 1.3205 1.67965 1.50001 1.50014C1.67938 1.32073 1.89738 1.23095 2.15384 1.23095H5.23087C5.4873 1.23095 5.7053 1.32063 5.88481 1.50014C6.06421 1.67965 6.154 1.89765 6.154 2.15397V2.76941C6.154 3.02591 6.24372 3.24371 6.42322 3.42325C6.60263 3.60265 6.82056 3.69247 7.07706 3.69247H13.8462C14.1027 3.69247 14.3207 3.78226 14.5001 3.96167C14.6796 4.14104 14.7692 4.35904 14.7692 4.6155V11.3847Z" fill="black"/>
</svg>
