<svg width="42" height="42" viewBox="0 0 42 42" fill="none" xmlns="http://www.w3.org/2000/svg">
<path d="M40.8465 35.279L31.2111 25.6428C29.7754 27.8756 27.8754 29.7747 25.6426 31.2104L35.2788 40.8466C36.8171 42.3846 39.3113 42.3846 40.8464 40.8466C42.3848 39.3112 42.3848 36.8169 40.8465 35.279Z" fill="white"/>
<path d="M31.4998 15.75C31.4998 7.0523 24.4479 0 15.75 0C7.05229 0 0 7.0523 0 15.75C0 24.4477 7.05229 31.4997 15.75 31.4997C24.4479 31.4997 31.4998 24.4477 31.4998 15.75ZM15.75 27.5621C9.2362 27.5621 3.93761 22.2639 3.93761 15.7501C3.93761 9.23629 9.2362 3.9377 15.75 3.9377C22.2636 3.9377 27.5627 9.23629 27.5627 15.7501C27.5627 22.2639 22.2636 27.5621 15.75 27.5621Z" fill="white"/>
<path d="M6.5625 15.7501H9.18717C9.18717 12.1317 12.1314 9.18767 15.7498 9.18767V6.56274C10.6846 6.56274 6.5625 10.6848 6.5625 15.7501Z" fill="white"/>
</svg>
