<svg width="21" height="20" viewBox="0 0 21 20" fill="none" xmlns="http://www.w3.org/2000/svg">
<path d="M2.24892 18.2893L3.59282 19.6149C3.83287 19.8505 4.53575 19.9995 4.55677 19.9995C8.81107 20.0348 12.9069 18.387 15.9169 15.417C18.9356 12.4398 20.608 8.38354 20.5616 4.17468C20.5616 4.17222 20.4075 3.49843 20.168 3.26406L18.8242 1.93718C18.331 1.45136 17.3869 1.23164 16.7255 1.4489L16.4421 1.54289C15.7807 1.76015 15.0896 2.48035 14.9065 3.14316L14.2296 5.59304C14.0459 6.2571 14.2928 7.20186 14.7853 7.68768L15.6836 8.57389C14.8026 11.7953 12.2417 14.3208 8.97801 15.1911L8.07964 14.3049C7.58711 13.819 6.62688 13.5761 5.9537 13.7568L3.47015 14.4258C2.79946 14.6052 2.06938 15.2863 1.84786 15.9393L1.75382 16.2189C1.53373 16.8721 1.75643 17.8034 2.24892 18.2893ZM9.1587 9.99971H7.89158C7.89158 8.61912 9.02629 7.49979 10.4258 7.49979V8.74975C9.72734 8.74975 9.1587 9.31123 9.1587 9.99971ZM4.09022 9.99971C4.09022 6.54764 6.9264 3.74988 10.4258 3.74988V4.99987C7.63051 4.99987 5.35734 7.24346 5.35734 9.99971H4.09022ZM10.4258 0V1.24996C5.53554 1.24996 1.55598 5.17561 1.55598 9.99971H0.28886C0.28886 4.47741 4.82771 0 10.4258 0Z" fill="black"/>
</svg>
