<svg width="110" height="110" viewBox="0 0 110 110" fill="none" xmlns="http://www.w3.org/2000/svg">
<path d="M109.407 27.3402L109.269 26.1058L109.127 26.1499C108.152 20.0444 105.908 14.4333 102.653 9.96584C99.3974 5.49842 95.2646 2.35727 90.7326 0.90583C86.2005 -0.545607 81.4544 -0.248007 77.0433 1.7642C72.6323 3.77641 68.7365 7.42098 65.8069 12.2762C62.8773 17.1314 61.0335 22.9989 60.4889 29.1997C59.9443 35.4005 60.7212 41.6811 62.7296 47.315C64.738 52.9488 67.8959 57.7056 71.8378 61.0349C75.7798 64.3642 80.3447 66.1299 85.0044 66.1278C86.2273 66.1278 87.4007 65.878 88.5688 65.6503C88.1904 67.3549 87.8011 69.0889 87.1759 70.6466C86.5508 72.9096 85.5747 74.8714 84.6041 76.8479C83.7925 78.986 82.3613 80.4335 81.3085 82.263C80.2062 84.0411 78.7037 85.2241 77.5138 86.701C76.3458 88.2439 74.8158 89.0154 73.5985 90.1029C72.3263 91.0801 71.2186 92.1602 70.0341 92.6745L67.0785 94.3056L64.4792 95.7531L67.1333 110L70.407 108.942C71.4544 108.589 72.7321 108.178 74.1852 107.686C75.6713 107.318 77.2561 106.312 79.0218 105.393C80.7601 104.342 82.7835 103.644 84.6589 101.962C86.5453 100.36 88.7223 99.0228 90.6416 96.8773C92.5005 94.6657 94.7433 92.748 96.3994 89.9412C98.209 87.3108 99.9966 84.5481 101.384 81.4034C102.991 78.4056 104.082 75.1139 105.233 71.8589C106.275 68.604 107.114 65.2755 107.8 62.0426C109.099 55.5621 109.681 49.4049 109.906 44.1367C110.092 38.8611 109.982 34.4747 109.752 31.3005C109.675 29.9749 109.56 28.6538 109.407 27.3402ZM49.0867 27.3402L48.9496 26.1058L48.807 26.1499C47.8326 20.0444 45.588 14.4333 42.3328 9.96584C39.0775 5.49842 34.9448 2.35727 30.4128 0.90583C25.8807 -0.545607 21.1346 -0.248007 16.7235 1.7642C12.3124 3.77641 8.41671 7.42098 5.4871 12.2762C2.55748 17.1314 0.713709 22.9989 0.169121 29.1997C-0.375468 35.4005 0.401383 41.6811 2.40979 47.315C4.41819 52.9488 7.57606 57.7056 11.518 61.0349C15.46 64.3642 20.0249 66.1299 24.6846 66.1278C25.9074 66.1278 27.0809 65.878 28.249 65.6503C27.8706 67.3549 27.4812 69.0889 26.8561 70.6466C26.231 72.9096 25.2549 74.8714 24.2843 76.8479C23.4727 78.986 22.0415 80.4335 20.9886 82.263C19.8864 84.0411 18.3839 85.2241 17.194 86.701C16.026 88.2439 14.496 89.0154 13.2787 90.1029C12.0065 91.0801 10.8988 92.1602 9.71432 92.6745L6.75865 94.3056C5.10808 95.2094 4.1649 95.7384 4.1649 95.7384L6.81897 109.985L10.0927 108.927C11.1401 108.575 12.4177 108.163 13.8709 107.671C15.357 107.303 16.9417 106.297 18.7075 105.378C20.4458 104.328 22.4692 103.63 24.3446 101.947C26.231 100.345 28.408 99.0081 30.3272 96.8626C32.1862 94.651 34.429 92.7333 36.085 89.9265C37.8946 87.2961 39.6823 84.5334 41.0697 81.3887C42.6764 78.3909 43.7676 75.0992 44.9192 71.8442C45.961 68.5893 46.8 65.2608 47.4855 62.0279C48.7851 55.5474 49.3664 49.3902 49.5912 44.122C49.7776 38.8464 49.668 34.46 49.4377 31.2858C49.3558 29.9654 49.2387 28.6494 49.0867 27.3402Z" fill="#C1237F" fill-opacity="0.15"/>
</svg>
