<svg width="0" height="0" class="hidden">
  <symbol fill="none" xmlns="http://www.w3.org/2000/svg" viewBox="0 0 32 32" id="od">
    <path d="M32 16V16.0473C31.9906 19.2078 31.0455 22.2947 29.2838 24.9186C27.5221 27.5425 25.0228 29.586 22.1011 30.7911C19.1794 31.9962 15.9663 32.3091 12.867 31.6902C9.76769 31.0714 6.9211 29.5485 4.68631 27.3137C2.45151 25.0789 0.928627 22.2323 0.309756 19.133C-0.309114 16.0337 0.00375402 12.8206 1.20889 9.89889C2.41403 6.97721 4.45746 4.47787 7.0814 2.71618C9.70533 0.954488 12.7922 0.0093516 15.9527 0H16C16.3854 0 16.7672 -4.06396e-08 17.1491 0.0436364C17.774 0.0873827 18.3957 0.168742 19.0109 0.287273C20.0184 0.478152 21.0049 0.766791 21.9563 1.14909C23.9531 1.95208 25.7679 3.14849 27.2928 4.66715C28.8177 6.18582 30.0216 7.9957 30.8327 9.98911C31.2261 10.9561 31.5221 11.9598 31.7164 12.9855V12.9855C31.8347 13.6068 31.916 14.2346 31.96 14.8655C32 15.2437 32 15.6364 32 16Z" fill="black"></path>
    <path d="M15.9527 15.5201C15.2853 15.5201 14.6328 15.3222 14.0779 14.9514C13.5229 14.5806 13.0904 14.0536 12.835 13.4369C12.5796 12.8203 12.5128 12.1418 12.643 11.4872C12.7732 10.8326 13.0946 10.2313 13.5665 9.75938C14.0384 9.28744 14.6397 8.96605 15.2943 8.83584C15.9489 8.70563 16.6274 8.77246 17.2441 9.02787C17.8607 9.28328 18.3877 9.71581 18.7585 10.2707C19.1293 10.8257 19.3272 11.4781 19.3272 12.1456C19.3263 13.0402 18.9704 13.898 18.3378 14.5307C17.7051 15.1633 16.8474 15.5191 15.9527 15.5201V15.5201ZM15.9527 10.4074C15.6089 10.4074 15.2728 10.5093 14.987 10.7003C14.7012 10.8913 14.4784 11.1628 14.3468 11.4804C14.2152 11.798 14.1808 12.1475 14.2479 12.4847C14.315 12.8218 14.4805 13.1315 14.7236 13.3746C14.9667 13.6177 15.2764 13.7833 15.6136 13.8503C15.9508 13.9174 16.3002 13.883 16.6179 13.7514C16.9355 13.6199 17.2069 13.3971 17.3979 13.1112C17.5889 12.8254 17.6909 12.4893 17.6909 12.1456C17.6899 11.6849 17.5065 11.2433 17.1807 10.9175C16.8549 10.5918 16.4134 10.4083 15.9527 10.4074Z" fill="white"></path>
    <path d="M20.5564 16.3638C20.4936 16.2552 20.4099 16.1601 20.3102 16.0839C20.2105 16.0077 20.0967 15.952 19.9754 15.9199C19.8541 15.8878 19.7277 15.88 19.6034 15.8969C19.479 15.9138 19.3593 15.9551 19.2509 16.0184C18.2736 16.6469 17.14 16.9895 15.9782 17.0075C14.8204 16.9706 13.6923 16.6322 12.7055 16.0257C12.4857 15.9201 12.2338 15.9024 12.0015 15.9763C11.7691 16.0502 11.5737 16.2101 11.4553 16.4233C11.3369 16.6364 11.3044 16.8867 11.3644 17.1231C11.4244 17.3594 11.5724 17.5639 11.7782 17.6948C12.3199 18.0008 12.8868 18.2599 13.4727 18.4693C13.7345 18.5597 13.9907 18.6653 14.24 18.7857L14.5527 18.942L12.2727 21.6984C12.1186 21.871 12.0334 22.0943 12.0334 22.3257C12.0334 22.5571 12.1186 22.7804 12.2727 22.9529C12.3612 23.052 12.4703 23.1305 12.5924 23.1829C12.7145 23.2352 12.8465 23.2602 12.9793 23.2561C13.112 23.2519 13.2423 23.2187 13.3608 23.1588C13.4794 23.0989 13.5834 23.0137 13.6655 22.9093L15.9527 20.1457L18.2437 22.9093C18.3948 23.0908 18.6107 23.2063 18.8455 23.2314C19.0803 23.2565 19.3157 23.1893 19.5018 23.0439C19.6922 22.8787 19.8096 22.6451 19.8287 22.3939C19.8477 22.1426 19.7669 21.894 19.6037 21.702L17.3055 18.9093L17.4037 18.862C17.6388 18.7558 17.882 18.6683 18.1309 18.6002C18.8655 18.3745 19.57 18.0607 20.2291 17.6657C20.4399 17.5364 20.5924 17.3304 20.6546 17.0911C20.6881 16.9695 20.6967 16.8424 20.6799 16.7174C20.663 16.5925 20.621 16.4722 20.5564 16.3638Z" fill="white"></path>
  </symbol>
  <symbol xmlns="http://www.w3.org/2000/svg" viewBox="0 0 32 32" id="tg">
    <path d="M32.0002 16V16.0473C31.9909 19.2078 31.0458 22.2947 29.2841 24.9186C27.5224 27.5425 25.023 29.586 22.1014 30.7911C19.1797 31.9962 15.9665 32.3091 12.8672 31.6902C9.76793 31.0714 6.92135 29.5485 4.68655 27.3137C2.45176 25.0789 0.928872 22.2323 0.310001 19.133C-0.30887 16.0337 0.00399816 12.8206 1.20914 9.89889C2.41428 6.97721 4.4577 4.47787 7.08164 2.71618C9.70558 0.954488 12.7925 0.0093516 15.9529 0H16.0002C16.3857 0 16.7675 -4.06396e-08 17.1493 0.0436364C17.7742 0.0873827 18.396 0.168742 19.0111 0.287273C20.0186 0.478152 21.0051 0.766791 21.9566 1.14909C23.9533 1.95208 25.7681 3.14849 27.293 4.66715C28.8179 6.18582 30.0218 7.9957 30.833 9.98911C31.2263 10.9561 31.5223 11.9598 31.7166 12.9855V12.9855C31.8349 13.6068 31.9163 14.2346 31.9602 14.8655C32.0002 15.2437 32.0002 15.6364 32.0002 16Z"></path>
    <path d="M22.182 9.17822L7.53837 14.8291C6.942 15.0691 6.86928 15.7928 7.47655 16.0001L11.1856 17.3091L19.8838 11.8146C19.9183 11.795 19.9587 11.7886 19.9975 11.7965C20.0364 11.8045 20.071 11.8262 20.095 11.8578C20.119 11.8893 20.1307 11.9285 20.128 11.968C20.1253 12.0076 20.1083 12.0448 20.0802 12.0728L13.2366 18.2219L12.7747 21.8582C12.7671 21.9142 12.7772 21.9712 12.8038 22.0211C12.8303 22.071 12.8718 22.1112 12.9225 22.1362C12.9732 22.1611 13.0305 22.1695 13.0862 22.1601C13.1419 22.1506 13.1932 22.1239 13.2329 22.0837L15.4147 19.9237L19.0802 22.771C19.192 22.8286 19.315 22.8609 19.4407 22.8655C19.5663 22.87 19.6914 22.8469 19.8071 22.7975C19.9227 22.7482 20.0261 22.674 20.1098 22.5801C20.1934 22.4863 20.2553 22.3751 20.2911 22.2546L22.9093 9.76368C22.9307 9.66882 22.925 9.56988 22.893 9.47808C22.861 9.38628 22.8038 9.3053 22.7281 9.24433C22.6524 9.18336 22.561 9.14485 22.4645 9.13316C22.368 9.12148 22.2701 9.13709 22.182 9.17822V9.17822Z"></path>
  </symbol>
  <symbol fill="none" xmlns="http://www.w3.org/2000/svg" viewBox="0 0 32 32" id="vk">
    <path d="M32.0002 16V16.0473C31.9909 19.2078 31.0458 22.2947 29.2841 24.9186C27.5224 27.5425 25.023 29.586 22.1014 30.7911C19.1797 31.9962 15.9665 32.3091 12.8672 31.6902C9.76793 31.0714 6.92135 29.5485 4.68655 27.3137C2.45176 25.0789 0.928872 22.2323 0.310001 19.133C-0.30887 16.0337 0.00399816 12.8206 1.20914 9.89889C2.41428 6.97721 4.4577 4.47787 7.08164 2.71618C9.70558 0.954488 12.7925 0.0093516 15.9529 0H16.0002C16.3857 0 16.7675 -4.06396e-08 17.1493 0.0436364C17.7742 0.0873827 18.396 0.168742 19.0111 0.287273C20.0186 0.478152 21.0051 0.766791 21.9566 1.14909C23.9533 1.95208 25.7681 3.14849 27.293 4.66715C28.8179 6.18582 30.0218 7.9957 30.833 9.98911C31.2263 10.9561 31.5223 11.9598 31.7166 12.9855V12.9855C31.8349 13.6068 31.9163 14.2346 31.9602 14.8655C32.0002 15.2437 32.0002 15.6364 32.0002 16Z" fill="black"></path>
    <path d="M21.091 20.4981H23.1928C23.1928 20.4981 24.7165 20.3854 23.3056 18.9272C21.8947 17.469 20.611 16.8254 21.7819 15.6545C22.9528 14.4836 24.8947 11.9163 23.1601 11.9163H20.6147C20.5674 11.9163 20.2801 11.8363 20.0692 12.3163C19.6789 13.2252 19.213 14.0998 18.6765 14.9308C18.1783 15.6072 17.8874 16.0872 17.5019 15.8799C17.1165 15.6727 17.3856 12.6399 17.3856 12.6399C17.4115 12.5144 17.4099 12.3848 17.3807 12.26C17.3515 12.1352 17.2956 12.0182 17.2167 11.9172C17.1378 11.8162 17.0379 11.7335 16.9239 11.675C16.8099 11.6164 16.6845 11.5834 16.5565 11.5781C15.6328 11.4763 14.1892 11.3963 13.5383 11.7818C13.0365 12.0727 13.2219 12.1454 13.7165 12.3163C14.211 12.4872 14.3928 13.6399 14.3128 14.6072C14.2328 15.5745 14.0074 16.2654 13.4619 15.7999C12.9165 15.3345 11.731 13.1345 11.571 12.7272C11.411 12.3199 11.3165 11.909 10.4801 11.9236C9.64373 11.9381 8.87282 11.9236 8.61827 11.9563C8.36373 11.989 7.76736 11.9563 8.29827 12.9199C8.82918 13.8836 10.1128 16.7927 11.411 18.1818C12.7092 19.5709 14.091 20.4618 15.6146 20.4909C17.1383 20.52 17.2183 20.4909 17.2983 19.6727C17.3783 18.8545 17.6837 17.909 18.4547 18.7127C19.2256 19.5163 20.2437 20.5345 21.091 20.4981Z" fill="white"></path>
  </symbol>
  <symbol fill="none" xmlns="http://www.w3.org/2000/svg" viewBox="0 0 32 32" id="wa">
    <g clip-path="url(#clip0_218_273)">
      <path d="M16 32C24.8365 32 32 24.8365 32 16C32 7.16347 24.8365 0 16 0C7.16347 0 0 7.16347 0 16C0 24.8365 7.16347 32 16 32Z" fill="black"></path>
      <path fill-rule="evenodd" clip-rule="evenodd" d="M16.5274 24.9017H16.5235C14.9312 24.9012 13.3665 24.5016 11.9769 23.7436L6.93335 25.0667L8.28308 20.1366C7.45048 18.6937 7.01242 17.057 7.01308 15.3802C7.01522 10.1345 11.2832 5.8667 16.5273 5.8667C19.0724 5.8678 21.4612 6.85864 23.2575 8.65697C25.0538 10.4552 26.0424 12.8456 26.0414 15.3877C26.0394 20.6322 21.773 24.8996 16.5274 24.9017ZM12.2106 22.0213L12.4994 22.1926C13.7135 22.9132 15.1052 23.2944 16.5242 23.2949H16.5274C20.8859 23.2949 24.4333 19.7474 24.435 15.3872C24.4359 13.2742 23.6142 11.2874 22.1212 9.79271C20.6282 8.29797 18.6427 7.47437 16.5305 7.47364C12.1686 7.47364 8.62122 11.0208 8.61948 15.3808C8.61888 16.875 9.03695 18.3301 9.82848 19.5891L10.0166 19.8883L9.21768 22.8064L12.2106 22.0213ZM20.9949 17.436C21.1607 17.5162 21.2728 17.5703 21.3206 17.6501C21.38 17.7492 21.38 18.2252 21.182 18.7806C20.9838 19.3359 20.034 19.8427 19.5773 19.9109C19.1678 19.9722 18.6494 19.9977 18.08 19.8167C17.7347 19.7072 17.2919 19.5609 16.7247 19.316C14.4961 18.3536 12.99 16.1936 12.7054 15.7854C12.6854 15.7568 12.6715 15.7368 12.6637 15.7264L12.6618 15.7238C12.536 15.556 11.693 14.4312 11.693 13.2672C11.693 12.1722 12.2309 11.5982 12.4785 11.334C12.4955 11.316 12.5111 11.2993 12.525 11.284C12.743 11.046 13.0005 10.9865 13.1589 10.9865C13.3174 10.9865 13.4761 10.988 13.6146 10.995C13.6317 10.9958 13.6495 10.9957 13.6678 10.9956C13.8063 10.9948 13.9791 10.9938 14.1495 11.403C14.215 11.5605 14.3109 11.794 14.4121 12.0403C14.6166 12.5383 14.8427 13.0886 14.8824 13.1682C14.9419 13.2872 14.9815 13.426 14.9022 13.5846C14.8904 13.6084 14.8793 13.6309 14.8688 13.6524C14.8093 13.7739 14.7656 13.8632 14.6645 13.9812C14.6248 14.0276 14.5837 14.0776 14.5427 14.1276C14.4609 14.2272 14.3792 14.3268 14.308 14.3977C14.1889 14.5162 14.065 14.6448 14.2037 14.8828C14.3424 15.1208 14.8195 15.8993 15.5262 16.5297C16.2859 17.2073 16.9462 17.4937 17.2808 17.6388C17.3462 17.6672 17.3991 17.6902 17.438 17.7096C17.6756 17.8286 17.8142 17.8087 17.9529 17.6501C18.0916 17.4914 18.5472 16.9559 18.7056 16.718C18.8641 16.4801 19.0226 16.5197 19.2405 16.599C19.4585 16.6784 20.6272 17.2534 20.8649 17.3724C20.9113 17.3956 20.9547 17.4166 20.9949 17.436Z" fill="white"></path>
    </g>
    <defs>
      <clipPath id="clip0_218_273">
        <rect width="32" height="32" fill="white"></rect>
      </clipPath>
    </defs>
  </symbol>
</svg>