<svg width="18" height="18" viewBox="0 0 18 18" fill="none" xmlns="http://www.w3.org/2000/svg">
<path d="M8.50366 0.500025C8.59686 0.305962 8.78913 0.183105 8.9997 0.183105C9.21027 0.183068 9.40258 0.305925 9.49578 0.499988L11.6534 4.99298C11.8563 5.41545 12.2485 5.70835 12.7021 5.77607L17.5263 6.49688C17.7347 6.52803 17.9078 6.67803 17.9729 6.88388C18.0379 7.08969 17.9837 7.31566 17.8329 7.46674L14.3424 10.9644C14.0141 11.2934 13.8644 11.7672 13.9418 12.2315L14.7654 17.1693C14.801 17.3826 14.7157 17.5982 14.5453 17.7253C14.375 17.8526 14.1492 17.8693 13.9628 17.7686L9.64784 15.4373C9.24211 15.2181 8.7574 15.2181 8.35159 15.4374L4.03704 17.7685C3.85065 17.8692 3.62481 17.8524 3.45449 17.7252C3.28412 17.598 3.19885 17.3824 3.23442 17.1692L4.0584 12.2317C4.13593 11.7673 3.98613 11.2934 3.65782 10.9643L0.167068 7.46678C0.0163167 7.3157 -0.0379873 7.08973 0.0270898 6.88392C0.0921669 6.6781 0.265268 6.52811 0.473646 6.49692L5.29768 5.77614C5.75132 5.70835 6.1435 5.41549 6.3464 4.99295L8.50366 0.500025Z" fill="#C1237F"/>
</svg>
