<svg width="32" height="32" viewBox="0 0 32 32" fill="none" xmlns="http://www.w3.org/2000/svg">
<path d="M32.0002 16V16.0473C31.9909 19.2078 31.0458 22.2947 29.2841 24.9186C27.5224 27.5425 25.023 29.586 22.1014 30.7911C19.1797 31.9962 15.9665 32.3091 12.8672 31.6902C9.76793 31.0714 6.92135 29.5485 4.68655 27.3137C2.45176 25.0789 0.928872 22.2323 0.310001 19.133C-0.30887 16.0337 0.00399816 12.8206 1.20914 9.89889C2.41428 6.97721 4.4577 4.47787 7.08164 2.71618C9.70558 0.954488 12.7925 0.0093516 15.9529 0H16.0002C16.3857 0 16.7675 -4.06396e-08 17.1493 0.0436364C17.7742 0.0873827 18.396 0.168742 19.0111 0.287273C20.0186 0.478152 21.0051 0.766791 21.9566 1.14909C23.9533 1.95208 25.7681 3.14849 27.293 4.66715C28.8179 6.18582 30.0218 7.9957 30.833 9.98911C31.2263 10.9561 31.5223 11.9598 31.7166 12.9855V12.9855C31.8349 13.6068 31.9163 14.2346 31.9602 14.8655C32.0002 15.2437 32.0002 15.6364 32.0002 16Z" fill="black"/>
<path d="M22.182 9.17822L7.53837 14.8291C6.942 15.0691 6.86928 15.7928 7.47655 16.0001L11.1856 17.3091L19.8838 11.8146C19.9183 11.795 19.9587 11.7886 19.9975 11.7965C20.0364 11.8045 20.071 11.8262 20.095 11.8578C20.119 11.8893 20.1307 11.9285 20.128 11.968C20.1253 12.0076 20.1083 12.0448 20.0802 12.0728L13.2366 18.2219L12.7747 21.8582C12.7671 21.9142 12.7772 21.9712 12.8038 22.0211C12.8303 22.071 12.8718 22.1112 12.9225 22.1362C12.9732 22.1611 13.0305 22.1695 13.0862 22.1601C13.1419 22.1506 13.1932 22.1239 13.2329 22.0837L15.4147 19.9237L19.0802 22.771C19.192 22.8286 19.315 22.8609 19.4407 22.8655C19.5663 22.87 19.6914 22.8469 19.8071 22.7975C19.9227 22.7482 20.0261 22.674 20.1098 22.5801C20.1934 22.4863 20.2553 22.3751 20.2911 22.2546L22.9093 9.76368C22.9307 9.66882 22.925 9.56988 22.893 9.47808C22.861 9.38628 22.8038 9.3053 22.7281 9.24433C22.6524 9.18336 22.561 9.14485 22.4645 9.13316C22.368 9.12148 22.2701 9.13709 22.182 9.17822V9.17822Z" fill="white"/>
</svg>
