<svg width="23" height="22" viewBox="0 0 23 22" fill="none" xmlns="http://www.w3.org/2000/svg">
<path fill-rule="evenodd" clip-rule="evenodd" d="M6.75886 0.066C7.98518 0.012 8.37618 0 11.5 0C14.6238 0 15.0148 0.013 16.2401 0.066C17.4654 0.119 18.3017 0.306 19.0335 0.577C19.7999 0.854 20.4951 1.287 21.0701 1.847C21.6555 2.396 22.1072 3.06 22.3957 3.794C22.6801 4.494 22.8745 5.294 22.931 6.464C22.9875 7.639 23 8.013 23 11C23 13.988 22.9864 14.362 22.931 15.535C22.8756 16.705 22.6801 17.505 22.3957 18.205C22.1072 18.9391 21.6548 19.6042 21.0701 20.154C20.4951 20.714 19.7999 21.146 19.0335 21.422C18.3017 21.694 17.4654 21.88 16.2422 21.934C15.0148 21.988 14.6238 22 11.5 22C8.37618 22 7.98518 21.987 6.75886 21.934C5.53568 21.881 4.69932 21.694 3.9675 21.422C3.20005 21.146 2.50472 20.7133 1.92991 20.154C1.34485 19.6047 0.892102 18.9399 0.603227 18.206C0.319909 17.506 0.125455 16.706 0.069 15.536C0.0125454 14.361 0 13.987 0 11C0 8.012 0.0135909 7.638 0.069 6.466C0.124409 5.294 0.319909 4.494 0.603227 3.794C0.892528 3.06008 1.34562 2.39531 1.93095 1.846C2.50495 1.2865 3.19958 0.853443 3.96645 0.577C4.69827 0.306 5.53464 0.12 6.75782 0.066H6.75886ZM16.147 2.046C14.9343 1.993 14.5705 1.982 11.5 1.982C8.4295 1.982 8.06568 1.993 6.85295 2.046C5.73118 2.095 5.12273 2.274 4.71709 2.425C4.18077 2.625 3.79709 2.862 3.39459 3.247C3.01305 3.60205 2.71942 4.03428 2.53523 4.512C2.37736 4.9 2.19023 5.482 2.139 6.555C2.08359 7.715 2.07209 8.063 2.07209 11C2.07209 13.937 2.08359 14.285 2.139 15.445C2.19023 16.518 2.37736 17.1 2.53523 17.488C2.71923 17.965 3.013 18.398 3.39459 18.753C3.76573 19.118 4.21841 19.399 4.71709 19.575C5.12273 19.726 5.73118 19.905 6.85295 19.954C8.06568 20.007 8.42845 20.018 11.5 20.018C14.5715 20.018 14.9343 20.007 16.147 19.954C17.2688 19.905 17.8773 19.726 18.2829 19.575C18.8192 19.375 19.2029 19.138 19.6054 18.753C19.987 18.398 20.2808 17.965 20.4648 17.488C20.6226 17.1 20.8098 16.518 20.861 15.445C20.9164 14.285 20.9279 13.937 20.9279 11C20.9279 8.063 20.9164 7.715 20.861 6.555C20.8098 5.482 20.6226 4.9 20.4648 4.512C20.2557 3.999 20.0079 3.632 19.6054 3.247C19.2342 2.88207 18.7823 2.60121 18.2829 2.425C17.8773 2.274 17.2688 2.095 16.147 2.046ZM10.0311 14.391C10.8515 14.7176 11.7649 14.7617 12.6154 14.5157C13.466 14.2697 14.2008 13.7489 14.6945 13.0422C15.1882 12.3356 15.4101 11.4869 15.3222 10.6411C15.2344 9.79534 14.8423 9.00497 14.213 8.405C13.8117 8.02148 13.3266 7.72781 12.7925 7.54515C12.2584 7.36248 11.6886 7.29536 11.1242 7.34862C10.5597 7.40187 10.0146 7.57418 9.52807 7.85313C9.04157 8.13208 8.62578 8.51074 8.31063 8.96185C7.99549 9.41296 7.78883 9.92529 7.70554 10.462C7.62224 10.9986 7.66439 11.5463 7.82893 12.0655C7.99347 12.5847 8.27632 13.0626 8.65712 13.4647C9.03791 13.8668 9.50718 14.1832 10.0311 14.391ZM7.32027 7.002C7.86916 6.47697 8.52079 6.0605 9.23795 5.77636C9.95511 5.49222 10.7238 5.34597 11.5 5.34597C12.2762 5.34597 13.0449 5.49222 13.7621 5.77636C14.4792 6.0605 15.1308 6.47697 15.6797 7.002C16.2286 7.52702 16.664 8.15032 16.9611 8.8363C17.2581 9.52228 17.411 10.2575 17.411 11C17.411 11.7425 17.2581 12.4777 16.9611 13.1637C16.664 13.8497 16.2286 14.473 15.6797 14.998C14.5712 16.0583 13.0677 16.654 11.5 16.654C9.9323 16.654 8.4288 16.0583 7.32027 14.998C6.21174 13.9377 5.58897 12.4995 5.58897 11C5.58897 9.50046 6.21174 8.06234 7.32027 7.002ZM18.722 6.188C18.858 6.06527 18.9669 5.91768 19.0422 5.75397C19.1175 5.59027 19.1578 5.41377 19.1605 5.23493C19.1632 5.05609 19.1284 4.87855 19.0581 4.71281C18.9878 4.54707 18.8835 4.39651 18.7512 4.27004C18.619 4.14357 18.4616 4.04376 18.2883 3.97652C18.1151 3.90928 17.9294 3.87598 17.7425 3.87858C17.5555 3.88119 17.371 3.91965 17.1998 3.9917C17.0287 4.06374 16.8744 4.1679 16.7461 4.298C16.4966 4.55103 16.3599 4.88712 16.3652 5.23493C16.3705 5.58274 16.5173 5.91488 16.7745 6.16084C17.0316 6.40681 17.3789 6.54723 17.7425 6.5523C18.1061 6.55737 18.4575 6.42669 18.722 6.188Z" fill="#06578F"/>
</svg>
