<svg width="27" height="27" viewBox="0 0 27 27" fill="none" xmlns="http://www.w3.org/2000/svg">
<path d="M5.97956 2.17327C5.88295 2.049 5.76102 1.94672 5.62185 1.8732C5.48268 1.79968 5.32946 1.75662 5.17237 1.74687C5.01528 1.73712 4.85791 1.7609 4.71071 1.81665C4.56352 1.87239 4.42987 1.95881 4.31865 2.07018L2.62665 3.76381C1.83628 4.55581 1.54501 5.67672 1.89028 6.66018C3.32331 10.7308 5.6544 14.4265 8.71065 17.4733C11.7574 20.5295 15.4532 22.8606 19.5237 24.2936C20.5072 24.6389 21.6281 24.3476 22.4201 23.5573L24.1121 21.8653C24.2235 21.754 24.3099 21.6204 24.3656 21.4732C24.4214 21.326 24.4452 21.1686 24.4354 21.0115C24.4257 20.8545 24.3826 20.7012 24.3091 20.5621C24.2356 20.4229 24.1333 20.301 24.009 20.2044L20.2339 17.2687C20.1012 17.1658 19.9468 17.0943 19.7823 17.0597C19.6179 17.0251 19.4478 17.0283 19.2848 17.0691L15.7012 17.9642C15.2228 18.0837 14.7217 18.0774 14.2465 17.9458C13.7714 17.8141 13.3384 17.5617 12.9897 17.2131L8.97083 13.1925C8.6219 12.8441 8.36918 12.4111 8.23727 11.936C8.10536 11.4608 8.09875 10.9596 8.2181 10.4811L9.11483 6.89745C9.15559 6.73446 9.15879 6.56434 9.12421 6.39994C9.08963 6.23553 9.01816 6.08112 8.91519 5.94836L5.97956 2.17327ZM3.08319 0.836359C3.36955 0.549913 3.71356 0.327664 4.0924 0.184369C4.47124 0.0410737 4.87622 -0.0199878 5.28047 0.00523888C5.68472 0.0304655 6.07897 0.141403 6.43705 0.330685C6.79513 0.519967 7.10885 0.783262 7.35737 1.10309L10.293 4.87654C10.8314 5.56872 11.0212 6.47036 10.8085 7.32127L9.91337 10.9049C9.86709 11.0905 9.86959 11.2849 9.92063 11.4693C9.97167 11.6537 10.0695 11.8217 10.2046 11.9571L14.2252 15.9776C14.3607 16.113 14.5291 16.211 14.7137 16.2621C14.8984 16.3131 15.0932 16.3155 15.279 16.2689L18.861 15.3738C19.2809 15.2688 19.7192 15.2607 20.1427 15.35C20.5663 15.4393 20.964 15.6237 21.3057 15.8893L25.0792 18.8249C26.4357 19.8804 26.5601 21.8849 25.3459 23.0975L23.6539 24.7895C22.443 26.0004 20.6332 26.5322 18.9461 25.9382C14.628 24.4189 10.7075 21.9468 7.47519 18.7055C4.23403 15.4737 1.762 11.5537 0.242464 7.23618C-0.349899 5.55072 0.181919 3.73927 1.39283 2.52836L3.08483 0.836359H3.08319Z" fill="#06578F"/>
</svg>
