<svg width="23" height="22" viewBox="0 0 23 22" fill="none" xmlns="http://www.w3.org/2000/svg">
<path d="M4.26755 0C3.13708 0.00421365 2.05417 0.435633 1.2548 1.20025C0.455435 1.96486 0.00440518 3.00068 0 4.082V17.918C0.00440518 18.9993 0.455435 20.0351 1.2548 20.7998C2.05417 21.5644 3.13708 21.9958 4.26755 22H18.7325C19.8629 21.9958 20.9458 21.5644 21.7452 20.7998C22.5446 20.0351 22.9956 18.9993 23 17.918V4.082C22.9956 3.00068 22.5446 1.96486 21.7452 1.20025C20.9458 0.435633 19.8629 0.00421365 18.7325 0H4.26755ZM4.26755 2H18.7325C19.9452 2 20.9091 2.922 20.9091 4.082V17.918C20.9091 19.078 19.9452 20 18.7325 20H4.26755C3.9812 20.0017 3.69735 19.9491 3.43245 19.845C3.16755 19.741 2.92689 19.5877 2.72441 19.394C2.52193 19.2004 2.36167 18.9702 2.25292 18.7168C2.14417 18.4634 2.0891 18.1919 2.09091 17.918V4.082C2.09091 2.922 3.05482 2 4.26755 2ZM11.2062 7.23C10.4378 7.223 9.78441 7.23 9.41745 7.402C9.17177 7.516 8.98464 7.773 9.09859 7.785C9.24182 7.805 9.56382 7.871 9.73632 8.094C9.95586 8.379 9.94854 9.024 9.94854 9.024C9.94854 9.024 10.0709 10.797 9.64954 11.02C9.35995 11.172 8.96373 10.863 8.10645 9.453C7.66945 8.727 7.33909 7.926 7.33909 7.926C7.33909 7.926 7.27636 7.777 7.16345 7.699C7.02441 7.602 6.83205 7.57 6.83205 7.57L4.78609 7.582C4.78609 7.582 4.47977 7.594 4.37 7.719C4.26755 7.836 4.36164 8.066 4.36164 8.066C4.36164 8.066 5.96223 11.648 7.77505 13.453C9.43732 15.11 11.3244 15 11.3244 15H12.1816C12.1816 15 12.4388 14.973 12.5695 14.84C12.6929 14.715 12.6887 14.48 12.6887 14.48C12.6887 14.48 12.672 13.383 13.203 13.219C13.73 13.062 14.399 14.281 15.1141 14.75C15.6578 15.105 16.0697 15.027 16.0697 15.027L17.9818 15C17.9818 15 18.9781 14.941 18.5045 14.187C18.468 14.129 18.2306 13.633 17.088 12.617C15.8867 11.555 16.0467 11.727 17.4915 9.887C18.3697 8.766 18.721 8.082 18.6101 7.785C18.5056 7.508 17.8595 7.582 17.8595 7.582L15.7069 7.594C15.7069 7.594 15.548 7.574 15.4299 7.641C15.3486 7.6987 15.2839 7.77505 15.2417 7.863C15.2417 7.863 14.8988 8.73 14.445 9.469C13.4895 11.023 13.1016 11.109 12.9469 11.012C12.5831 10.785 12.673 10.105 12.673 9.625C12.673 8.113 12.9135 7.488 12.2078 7.325C11.9746 7.27 11.8032 7.235 11.2073 7.23H11.2062Z" fill="#06578F"/>
</svg>
