<svg width="27" height="19" viewBox="0 0 27 19" fill="none" xmlns="http://www.w3.org/2000/svg">
<path d="M26.3864 9.5779C26.3864 9.63914 26.3864 9.70872 26.3835 9.78943C26.3806 10.0149 26.3749 10.2681 26.3691 10.5381C26.3461 11.3146 26.3058 12.0884 26.2425 12.8176C26.1563 13.8223 26.0297 14.66 25.8571 15.289C25.675 15.9455 25.318 16.5441 24.8218 17.0252C24.3256 17.5063 23.7076 17.8529 23.0296 18.0305C22.2156 18.242 20.622 18.3728 18.3784 18.4535C17.3113 18.4925 16.1693 18.5176 15.0274 18.5315C14.6276 18.537 14.2565 18.5398 13.9228 18.5426H13.0772C12.7435 18.5398 12.3725 18.537 11.9726 18.5315C10.8307 18.5176 9.68875 18.4925 8.6216 18.4535C6.37799 18.37 4.78158 18.2392 3.97043 18.0305C3.29217 17.8534 2.67394 17.5069 2.17768 17.0257C1.68143 16.5446 1.32458 15.9457 1.14291 15.289C0.967447 14.66 0.843761 13.8223 0.757468 12.8176C0.694187 12.0884 0.653917 11.3146 0.630906 10.5381C0.622277 10.2681 0.6194 10.0149 0.616524 9.78943C0.616524 9.70872 0.613647 9.63914 0.613647 9.5779V9.42205C0.613647 9.36082 0.613647 9.29123 0.616524 9.21052C0.6194 8.98508 0.625153 8.73181 0.630906 8.46184C0.653917 7.68533 0.694187 6.9116 0.757468 6.1824C0.843761 5.17766 0.970324 4.33992 1.14291 3.71091C1.51109 2.37776 2.59262 1.32571 3.97043 0.969456C4.78158 0.757933 6.37799 0.627123 8.6216 0.546412C9.68875 0.507446 10.8307 0.482395 11.9726 0.468479C12.3725 0.462914 12.7435 0.460129 13.0772 0.457346H13.9228C14.2565 0.460129 14.6276 0.462914 15.0274 0.468479C16.1693 0.482395 17.3113 0.507446 18.3784 0.546412C20.622 0.629908 22.2184 0.760715 23.0296 0.969456C24.4074 1.32571 25.4889 2.37497 25.8571 3.71091C26.0326 4.33992 26.1563 5.17766 26.2425 6.1824C26.3058 6.9116 26.3461 7.68533 26.3691 8.46184C26.3777 8.73181 26.3806 8.98508 26.3835 9.21052C26.3835 9.29123 26.3864 9.36082 26.3864 9.42205V9.5779ZM24.3153 9.43318C24.3153 9.37473 24.3153 9.31072 24.3125 9.23557C24.3096 9.01848 24.3038 8.77913 24.2981 8.52029C24.278 7.77995 24.2377 7.03962 24.1773 6.35217C24.0996 5.45598 23.9903 4.72121 23.8551 4.22859C23.6768 3.58567 23.1533 3.07634 22.4917 2.90656C21.8876 2.75071 20.366 2.62546 18.2979 2.55032C17.2509 2.51135 16.1233 2.4863 14.9986 2.47239C14.6046 2.46682 14.2392 2.46404 13.9113 2.46404H13.0887L12.0014 2.47239C10.8767 2.4863 9.75203 2.51135 8.70214 2.55032C6.63399 2.62825 5.10949 2.75071 4.50832 2.90656C3.84674 3.07912 3.32324 3.58567 3.1449 4.22859C3.00971 4.72121 2.9004 5.45598 2.82274 6.35217C2.76233 7.03962 2.72494 7.77995 2.70193 8.52029C2.6933 8.77913 2.69042 9.02126 2.68755 9.23557C2.68755 9.31072 2.68467 9.37751 2.68467 9.43318V9.56677C2.68467 9.62522 2.68467 9.68923 2.68755 9.76438C2.69042 9.98147 2.69618 10.2208 2.70193 10.4797C2.72206 11.22 2.76233 11.9603 2.82274 12.6478C2.9004 13.544 3.00971 14.2787 3.1449 14.7714C3.32324 15.4143 3.84674 15.9236 4.50832 16.0934C5.11237 16.2492 6.63399 16.3745 8.70214 16.4496C9.74916 16.4886 10.8767 16.5136 12.0014 16.5276C12.3955 16.5331 12.7608 16.5359 13.0887 16.5359H13.9113L14.9986 16.5276C16.1233 16.5136 17.248 16.4886 18.2979 16.4496C20.366 16.3717 21.8905 16.2492 22.4917 16.0934C23.1533 15.9208 23.6768 15.4143 23.8551 14.7714C23.9903 14.2787 24.0996 13.544 24.1773 12.6478C24.2377 11.9603 24.2751 11.22 24.2981 10.4797C24.3067 10.2208 24.3096 9.97869 24.3125 9.76438C24.3125 9.68923 24.3153 9.62244 24.3153 9.56677V9.43318ZM10.94 5.77048L17.6133 9.52781L10.94 13.2295V5.77048Z" fill="#06578F"/>
</svg>
