<svg width="47" height="45" viewBox="0 0 47 45" fill="none" xmlns="http://www.w3.org/2000/svg">
<path d="M45.6311 10.3151H33.3641C36.0431 9.42207 38.2991 8.24707 39.1451 6.79007L39.1921 6.74307C39.6151 5.89707 39.8971 4.76907 38.6281 2.74807C37.3591 0.727067 36.1841 0.492065 35.3851 0.492065C31.7191 0.492065 26.4081 7.26007 24.3401 10.1741L24.2461 10.3151H23.2591L23.1651 10.2211C21.0971 7.30707 15.8331 0.492065 12.1201 0.492065C11.0391 0.492065 9.95809 1.24407 8.97109 2.74807C8.59509 3.40607 7.4671 5.33307 8.4541 6.79007L8.54808 6.88407C9.44108 8.38807 11.6501 9.51607 14.0471 10.3151H1.92109C1.26309 10.3151 0.746094 10.8321 0.746094 11.4901V19.2451C0.746094 19.9031 1.26309 20.4201 1.92109 20.4201H3.23709V43.5441C3.23709 44.2021 3.75409 44.7191 4.41209 44.7191H43.1401C43.7981 44.7191 44.3151 44.2021 44.3151 43.5441V20.4201H45.6311C46.2891 20.4201 46.8061 19.9031 46.8061 19.2451V11.4901C46.8061 10.8791 46.2891 10.3151 45.6311 10.3151ZM35.3851 2.88907C35.5261 2.88907 35.9491 2.88907 36.6541 4.01707C37.3121 5.09807 37.2181 5.42707 37.1241 5.66207C36.4191 6.83707 32.9411 8.34107 28.0061 9.28107C31.4371 4.91007 34.1631 2.88907 35.3851 2.88907ZM10.5221 5.66207L10.4281 5.52107L10.3811 5.47407C10.3811 5.33307 10.4281 4.91007 10.9451 4.01707C11.5561 3.07707 11.9791 2.88907 12.0731 2.88907C13.2951 2.88907 16.0211 4.91007 19.4991 9.37507C14.3291 8.34107 11.1331 6.83707 10.5221 5.66207ZM3.09609 17.8821V12.9471C3.09609 12.8061 3.19009 12.7121 3.33109 12.7121H22.6011V18.1171H3.33109C3.19009 18.1171 3.09609 18.0231 3.09609 17.8821ZM5.58709 20.4671H22.6011V42.4161H5.58709V20.4671ZM41.9651 42.4161H24.9511V20.4671H41.9651V42.4161ZM44.2211 18.1171H24.9041V12.7121H44.2211C44.3621 12.7121 44.4561 12.8061 44.4561 12.9471V17.8821C44.4561 18.0231 44.3621 18.1171 44.2211 18.1171Z" fill="#D72626"/>
</svg>
