<svg width="137" height="189" viewBox="0 0 137 189" fill="none" xmlns="http://www.w3.org/2000/svg">
<path d="M84.1567 141.746H48.7183C47.1451 141.746 45.7662 142.34 44.585 143.52C43.4027 144.702 42.8126 146.079 42.8126 147.654V183.094C42.8126 184.669 43.4048 186.048 44.585 187.228C45.7662 188.407 47.1435 189 48.7183 189H84.1567C85.7299 189 87.1124 188.408 88.2889 187.228C89.4733 186.048 90.0644 184.669 90.0644 183.094V147.654C90.0644 146.079 89.4748 144.702 88.2889 143.52C87.1124 142.337 85.7299 141.746 84.1567 141.746Z" fill="white"/>
<path d="M114.707 17.2221L114.707 17.2221C121.054 22.2993 126.227 28.5194 130.233 35.8988L130.673 35.6602L130.233 35.8988C134.228 43.2566 136.226 50.9756 136.227 59.0596C136.227 64.3264 135.472 69.2447 133.962 73.8156L133.962 73.816C132.445 78.4169 130.738 82.139 128.85 84.994L128.85 84.9943C126.965 87.8472 124.294 90.7414 120.825 93.6739C117.336 96.6198 114.531 98.7461 112.394 100.053L112.393 100.054C110.233 101.379 107.239 103.121 103.405 105.285C99.2906 107.591 95.8625 110.851 93.1144 115.048L93.1143 115.048C90.4003 119.194 88.9743 122.6 88.9743 125.215C88.9743 126.759 88.429 128.254 87.3072 129.702L87.3067 129.703C86.1956 131.141 84.9537 131.8 83.5681 131.8H48.1303C46.9032 131.8 45.786 131.06 44.799 129.321L44.7988 129.321C43.8013 127.567 43.3147 125.806 43.3147 124.03V117.386C43.3147 109.359 46.4523 101.77 52.7871 94.6084L52.7872 94.6082C59.1424 87.4184 66.1279 82.1239 73.7302 78.712L73.7336 78.7105C79.5684 76.0398 83.7801 73.2484 86.3092 70.3147C88.8662 67.3495 90.1207 63.4823 90.1207 58.7663C90.1207 54.4139 87.7022 50.6358 83.0407 47.427L83.0404 47.4268C78.3712 44.2173 72.981 42.6159 66.8838 42.6159C60.4109 42.6159 54.993 44.0594 50.6581 46.9815L50.658 46.9813L50.6468 46.9893C47.138 49.4973 41.8314 55.2103 34.7493 64.063C33.5477 65.5393 32.1585 66.2403 30.5606 66.2403C29.4994 66.2403 28.3653 65.8894 27.1513 65.1475L2.95674 46.7055C2.95641 46.7053 2.95608 46.705 2.95575 46.7047C1.76856 45.7912 1.08007 44.6691 0.85547 43.3292C0.629848 41.972 0.87704 40.7165 1.60073 39.5399L1.60327 39.5356C17.2665 13.4966 39.9433 0.5 69.6869 0.5C77.4975 0.5 85.3608 2.01366 93.2821 5.04301C101.208 8.07567 108.353 12.1377 114.707 17.2221Z" fill="white" stroke="#0796DC"/>
</svg>
