<svg width="28" height="28" viewBox="0 0 28 28" fill="none" xmlns="http://www.w3.org/2000/svg">
<path d="M23.8995 17.9159C22.3747 16.4066 20.5597 15.2894 18.5795 14.613C20.7004 13.1671 22.0938 10.7474 22.0938 8.01122C22.0938 3.59384 18.4629 0 14 0C9.53712 0 5.90625 3.59384 5.90625 8.01122C5.90625 10.7474 7.29963 13.1671 9.42058 14.613C7.44034 15.2894 5.62538 16.4066 4.10052 17.9159C1.45627 20.5332 0 24.0131 0 27.7145H2.1875C2.1875 21.2675 7.48656 16.0224 14 16.0224C20.5134 16.0224 25.8125 21.2675 25.8125 27.7145H28C28 24.0131 26.5437 20.5332 23.8995 17.9159ZM14 13.8572C10.7433 13.8572 8.09375 11.2348 8.09375 8.01122C8.09375 4.78768 10.7433 2.16519 14 2.16519C17.2567 2.16519 19.9062 4.78768 19.9062 8.01122C19.9062 11.2348 17.2567 13.8572 14 13.8572Z" fill="#0092CA"/>
</svg>
