<svg width="21" height="27" viewBox="0 0 21 27" fill="none" xmlns="http://www.w3.org/2000/svg">
<path d="M10.4995 3.04883C6.33095 3.04883 2.93945 6.56536 2.93945 10.8875C2.93945 15.2097 6.33095 18.7262 10.4995 18.7262C14.668 18.7262 18.0595 15.2097 18.0595 10.8875C18.0595 6.56536 14.668 3.04883 10.4995 3.04883ZM10.4995 17.8553C9.17036 17.8553 7.87112 17.4466 6.76602 16.681C5.66092 15.9154 4.7996 14.8272 4.29098 13.554C3.78236 12.2808 3.64928 10.8798 3.90858 9.52819C4.16787 8.17658 4.80789 6.93505 5.7477 5.9606C6.6875 4.98614 7.88489 4.32253 9.18845 4.05368C10.492 3.78483 11.8432 3.92281 13.0711 4.45018C14.299 4.97755 15.3485 5.87063 16.0869 7.01646C16.8253 8.1623 17.2195 9.50944 17.2195 10.8875C17.2175 12.7349 16.5088 14.5059 15.249 15.8122C13.9892 17.1184 12.2811 17.8532 10.4995 17.8553Z" fill="#FFC652"/>
<path d="M10.5 0C4.7103 0 0 4.88395 0 10.8871C0 13.384 1.72778 16.8423 5.1345 21.1661C6.72244 23.1679 8.41734 25.0757 10.2112 26.8808C10.2893 26.9573 10.3926 27 10.5 27C10.6074 27 10.7107 26.9573 10.7887 26.8808C12.5827 25.0757 14.2776 23.1679 15.8655 21.1661C19.2722 16.8423 21 13.384 21 10.8871C21 4.88395 16.2897 0 10.5 0ZM10.5 25.9575C8.86305 24.2913 0.84 15.8701 0.84 10.8871C0.84 5.36407 5.17335 0.870967 10.5 0.870967C15.8266 0.870967 20.16 5.36407 20.16 10.8871C20.16 15.8679 12.1369 24.2913 10.5 25.9575Z" fill="#FFC652"/>
</svg>
