<svg width="21" height="17" viewBox="0 0 21 17" fill="none" xmlns="http://www.w3.org/2000/svg">
<path d="M19.25 0H1.75001C0.784834 0 0 0.847122 0 1.8889V15.1111C0 16.1529 0.784834 17 1.75001 17H19.25C20.2152 17 21 16.1529 21 15.1111V1.8889C21 0.847122 20.2152 0 19.25 0ZM1.75001 0.94443H19.25C19.3145 0.94443 19.3713 0.969797 19.4318 0.984141C17.9167 2.4808 12.893 7.44144 11.1349 9.15114C10.9974 9.28488 10.7756 9.44443 10.5 9.44443C10.2245 9.44443 10.0027 9.28488 9.86471 9.15069C8.10682 7.44126 3.08278 2.48036 1.56795 0.984229C1.62857 0.969885 1.6855 0.94443 1.75001 0.94443ZM0.874986 15.1111V1.8889C0.874986 1.79638 0.900826 1.71244 0.923959 1.62788C2.08355 2.77343 5.58891 6.23471 7.86183 8.46565C5.59629 10.5662 2.09003 14.1542 0.921211 15.3572C0.90058 15.2769 0.874986 15.1984 0.874986 15.1111ZM19.25 16.0556H1.75001C1.68012 16.0556 1.61798 16.0293 1.55273 16.0124C2.76052 14.7697 6.28909 11.161 8.5148 9.1058C8.80495 9.38989 9.06999 9.64892 9.27892 9.85212C9.63953 10.2035 10.0616 10.3889 10.5 10.3889C10.9384 10.3889 11.3605 10.2035 11.7206 9.85256C11.9296 9.64927 12.1949 9.39002 12.4852 9.1058C14.711 11.1608 18.2391 14.7692 19.4473 16.0124C19.382 16.0293 19.32 16.0556 19.25 16.0556ZM20.125 15.1111C20.125 15.1984 20.0994 15.2769 20.0788 15.3572C18.9096 14.1536 15.4037 10.5659 13.1382 8.46569C15.4112 6.23475 18.916 2.77379 20.076 1.62779C20.0992 1.71235 20.125 1.79633 20.125 1.88886V15.1111Z" fill="#FFC652"/>
</svg>
