<svg width="18" height="17" viewBox="0 0 18 17" fill="none" xmlns="http://www.w3.org/2000/svg">
<g clip-path="url(#clip0)">
<path d="M16.5557 11.1586C15.4537 11.1586 14.3716 10.9958 13.3462 10.6757C12.835 10.5111 12.2529 10.6389 11.9194 10.9598L9.8955 12.4028C7.54833 11.2195 6.10252 9.85442 4.8667 7.65429L6.34959 5.79262C6.73486 5.42924 6.87305 4.89844 6.70748 4.40039C6.36717 3.42687 6.1943 2.40541 6.1943 1.36416C6.19434 0.611956 5.54639 0 4.74998 0H1.44431C0.647953 0 0 0.611956 0 1.36407C0 9.98586 7.42678 17 16.5557 17C17.3521 17 18 16.388 18 15.6359V12.5226C18 11.7705 17.352 11.1586 16.5557 11.1586ZM17 15.6359C17 15.8674 16.8008 16.0556 16.5557 16.0556C7.97803 16.0556 1.00003 9.46519 1.00003 1.36412C1.00003 1.13262 1.19925 0.944474 1.44436 0.944474H4.75003C4.99514 0.944474 5.19436 1.13262 5.19436 1.36412C5.19436 2.50639 5.3843 3.62746 5.75588 4.68952C5.80762 4.84633 5.76562 5.00862 5.59767 5.17376L3.87891 7.32359C3.76369 7.46791 3.74559 7.66116 3.83203 7.82208C5.23486 10.4262 6.93947 12.0361 9.7163 13.3799C9.88523 13.4634 10.0923 13.4459 10.2456 13.3366L12.5742 11.6705C12.6919 11.5593 12.8682 11.5197 13.0274 11.5708C14.1597 11.9241 15.3467 12.103 16.5557 12.103C16.8008 12.103 17 12.2912 17 12.5227V15.6359Z" fill="#FFC652"/>
</g>
<defs>
<clipPath id="clip0">
<rect width="18" height="17" fill="white"/>
</clipPath>
</defs>
</svg>
