<svg width="144" height="139" viewBox="0 0 144 139" fill="none" xmlns="http://www.w3.org/2000/svg">
<g clip-path="url(#clip0)">
<path d="M125.791 82.7446L125.688 81.3845C124.039 60.6564 114.04 47.6623 105.219 36.2009C97.0517 25.5879 89.9973 16.4229 89.9973 2.89996C89.9973 1.81406 89.3674 0.821551 88.3684 0.323667C87.3663 -0.176931 86.1624 -0.0949461 85.2514 0.544376C72.0039 9.69523 60.9506 25.1185 57.0895 39.8346C54.409 50.08 54.0544 61.5979 54.0046 69.2048C41.7707 66.6823 38.9993 49.0167 38.9701 48.8244C38.8323 47.9082 38.2523 47.1106 37.4086 46.6752C36.5562 46.2454 35.5541 46.2142 34.6899 46.6271C34.0484 46.9268 18.9433 54.3359 18.0644 83.9209C18.0028 84.905 18 85.8891 18 86.8759C18 115.616 42.2246 138.999 71.998 138.999C101.771 138.999 125.996 115.616 125.996 86.8759C125.996 85.4338 125.894 84.0879 125.791 82.7446ZM71.998 133.208C62.0725 133.208 53.9987 124.905 53.9987 114.699C53.9987 114.352 53.9959 114.001 54.022 113.571C54.1421 109.267 54.9889 106.329 55.9176 104.375C57.6579 107.983 60.7718 111.3 65.8225 111.3C67.4807 111.3 68.8225 110.005 68.8225 108.404C68.8225 104.281 68.9106 99.525 69.9739 95.2322C70.9203 91.4231 73.1817 87.3762 76.047 84.13C77.3213 88.3435 79.8058 91.7538 82.2315 95.0823C85.7031 99.8445 89.2917 104.768 89.9217 113.164C89.9596 113.661 89.9979 114.162 89.9979 114.699C89.9973 124.905 81.9235 133.208 71.998 133.208ZM90.9569 129.424C94.0708 125.325 95.9973 120.258 95.9973 114.699C95.9973 114.018 95.9534 113.384 95.8654 112.2C95.1536 102.746 90.8967 96.9036 87.1383 91.7486C83.9363 87.3597 81.1737 83.5677 81.1737 78.189C81.1737 77.089 80.5291 76.0851 79.5096 75.5959C78.496 75.1037 77.2715 75.2142 76.3662 75.8788C70.6126 80.0752 65.8138 87.1392 64.1382 93.8837C63.2827 97.3423 62.984 101.084 62.8785 104.16C60.7985 102 60.1539 97.9955 60.1483 97.9417C60.0135 97.0114 59.4218 96.1997 58.5576 95.7672C57.6992 95.3375 56.671 95.3261 55.8068 95.7558C55.0508 96.1291 48.4096 99.8054 48.0288 113.328C48.0024 113.786 47.9995 114.244 47.9995 114.7C47.9995 120.259 49.926 125.325 53.0399 129.424C35.9788 122.313 24.0005 105.925 24.0005 86.8764C24.0005 86.0083 23.9977 85.1431 24.059 84.1785C24.5745 66.821 30.3284 58.2131 34.0841 54.4155C36.703 63.4645 43.5641 75.2935 56.9992 75.2935C58.6574 75.2935 59.9992 73.9983 59.9992 72.3976C59.9992 62.7066 60.2248 51.5082 62.9083 41.2544C65.955 29.6375 74.3014 17.0932 84.3762 8.60119C86.049 21.0043 93.0477 30.0987 100.404 39.6538C109.149 51.0161 118.19 62.7657 119.704 81.7917L119.807 83.1773C119.9 84.3821 119.997 85.584 119.997 86.8762C119.996 105.924 108.018 122.313 90.9569 129.424Z" fill="#F8B712"/>
</g>
<defs>
<clipPath id="clip0">
<rect width="144" height="139" fill="white"/>
</clipPath>
</defs>
</svg>
