<svg width="151" height="139" viewBox="0 0 151 139" fill="none" xmlns="http://www.w3.org/2000/svg">
<path d="M83.0492 69.4998C83.0492 65.6617 79.6687 62.5498 75.4992 62.5498C71.3298 62.5498 67.9492 65.6617 67.9492 69.4998C67.9492 73.3379 71.3298 76.4498 75.4992 76.4498C79.6687 76.4498 83.0492 73.3379 83.0492 69.4998ZM75.4992 71.8165C74.1094 71.8165 72.9826 70.7792 72.9826 69.4998C72.9826 68.2204 74.1094 67.1831 75.4992 67.1831C76.889 67.1831 78.0159 68.2204 78.0159 69.4998C78.0159 70.7792 76.889 71.8165 75.4992 71.8165Z" fill="#F8B712"/>
<path d="M131.569 91.2766L93.0647 70.8022C93.1003 70.3757 93.1274 69.9447 93.1274 69.4934C93.1138 65.5727 91.5594 61.7889 88.749 58.8433C91.6306 53.5188 93.1261 47.6491 93.1151 41.7002C93.1151 25.9473 82.3185 11.5835 70.4651 11.5835C69.0752 11.5835 67.9484 12.6208 67.9484 13.9002V54.8841C63.6634 56.763 60.38 60.1487 58.8378 64.2809C52.3937 64.6395 46.1291 66.3747 40.5391 69.3497C40.4457 69.3984 40.3585 69.456 40.2651 69.5069C40.2626 57.6058 47.3407 46.6581 58.7075 40.9864L56.3039 36.9164C43.3187 43.3981 35.2317 55.9033 35.2317 69.5002C35.2317 70.5329 35.3092 71.5499 35.4001 72.5623C32.9338 74.3575 30.6998 76.4083 28.7435 78.6741C23.7937 57.4282 36.4434 36.0397 58.5158 28.3375L56.7291 24.0073C30.6346 33.1439 16.75 59.3795 25.0188 83.9262C24.7522 84.3888 24.4708 84.8526 24.2287 85.3164C20.9698 91.7291 20.7179 97.9789 23.5369 102.459C24.2311 103.567 25.7709 103.947 26.9752 103.307L34.0213 99.5569C50.2322 118.582 79.1776 123.733 101.923 111.64L99.4067 107.632C79.0633 118.434 53.2085 114.027 38.4157 97.2357L45.0698 93.6996C55.8271 105.203 73.1231 109.495 88.7035 104.528L87.0544 100.147C73.7571 104.396 58.9877 100.932 49.5182 91.3445L65.5497 82.821C68.4707 84.692 71.9397 85.7021 75.4984 85.7168C76.6486 85.7044 77.7951 85.589 78.9207 85.3741C82.4819 90.3389 87.2474 94.4733 92.841 97.4529C98.9644 100.748 105.916 102.515 113.009 102.579C114.016 102.579 115.023 102.543 116.029 102.464C123.692 101.854 129.698 98.9336 132.506 94.4484C132.841 93.9134 132.931 93.2788 132.755 92.6838C132.579 92.0877 132.153 91.582 131.569 91.2766ZM72.9817 16.5551C80.4408 18.5154 88.0817 28.8103 88.0817 41.7002C88.0928 46.5382 86.977 51.322 84.8106 55.7302C84.1937 55.3841 83.5559 55.0753 82.8973 54.8027C82.7363 54.7337 82.5753 54.6692 82.4143 54.6036C81.7581 54.3423 81.0859 54.1172 80.4015 53.9294H80.3757C79.6765 53.7507 78.965 53.6115 78.2461 53.5154C78.0691 53.4894 77.8897 53.4656 77.7103 53.4453C76.9779 53.3491 76.2382 53.2948 75.4984 53.2835C74.6566 53.2835 73.8149 53.3389 72.9817 53.4498V16.5551ZM26.9641 97.9721C26.3976 95.3081 26.6298 92.5514 27.6363 90.0006C28.6439 91.996 29.7978 93.9258 31.0893 95.7776L26.9641 97.9721ZM35.4431 93.4643C33.4364 90.6182 31.7947 87.5674 30.5511 84.373C32.1695 82.0122 34.1147 79.8562 36.3389 77.958C37.4252 82.2475 39.3361 86.3231 41.9818 89.9938L35.4431 93.4643ZM46.3355 87.6726C43.4699 83.7746 41.5664 79.346 40.7603 74.6991C41.5074 74.2353 42.273 73.7919 43.0558 73.3688C47.6 70.9447 52.6555 69.4447 57.8817 68.9696V69.5002C57.8891 70.3101 57.9641 71.1178 58.1029 71.9164C58.1337 72.1041 58.1631 72.2874 58.2012 72.4729C58.3548 73.2478 58.5687 74.0125 58.8402 74.759C58.8734 74.8473 58.9189 74.931 58.9533 75.0181C59.2224 75.6934 59.5394 76.3495 59.9032 76.9852C59.9929 77.1447 60.0789 77.3053 60.1748 77.4626C60.5913 78.1424 61.0595 78.794 61.5756 79.4127C61.6064 79.4501 61.626 79.4919 61.6567 79.5292L46.3355 87.6726ZM67.3217 78.303C64.5285 76.1006 62.92 72.8858 62.9151 69.5002C62.9151 68.6676 63.0146 67.8362 63.2124 67.024C64.1476 63.1078 67.2172 59.9168 71.3253 58.5865C71.9176 58.3953 72.5234 58.246 73.1403 58.1419C73.4217 58.0933 73.7068 58.0673 73.9906 58.0367C74.3126 58.0005 74.6382 57.9723 74.9675 57.9587C75.2969 57.9451 75.6643 57.9587 76.0121 57.9587C76.3586 57.9587 76.6314 58.0051 76.9411 58.0367C77.6526 58.1137 78.3567 58.246 79.0448 58.4315C79.2562 58.4869 79.47 58.5288 79.6765 58.5955C80.0181 58.7041 80.345 58.8455 80.6829 58.9801C81.0196 59.1148 81.3342 59.2629 81.6488 59.427C81.9007 59.5503 82.1354 59.677 82.3689 59.8161C82.9403 60.1532 83.4797 60.5333 83.9823 60.9518C86.5936 63.144 88.0817 66.2469 88.0817 69.5002C88.0879 70.2117 88.0178 70.9209 87.8728 71.62C87.0507 75.6889 83.9332 79.0451 79.6937 80.4229C75.4542 81.8018 70.7379 80.9941 67.3217 78.303ZM115.584 97.8443C108.517 98.2696 101.474 96.7357 95.3626 93.4428C90.8135 91.021 86.8787 87.7326 83.8213 83.7983C83.9823 83.718 84.1175 83.606 84.276 83.5235C84.8609 83.2124 85.4262 82.8719 85.9681 82.5009C86.1967 82.3459 86.4253 82.1932 86.6452 82.0382C87.2916 81.5518 87.8999 81.0247 88.4664 80.4602C88.5266 80.4003 88.5979 80.3494 88.6556 80.286C89.2713 79.6424 89.8304 78.9546 90.3293 78.2295C90.4571 78.044 90.5628 77.8517 90.6844 77.6639C91.0445 77.0961 91.3677 76.509 91.6503 75.9061C91.7105 75.776 91.799 75.6629 91.8567 75.5328L126.549 93.9733C123.458 96.342 119.603 97.704 115.584 97.8465V97.8443Z" fill="#F8B712"/>
<path d="M75.5 0C33.803 0 0 31.1166 0 69.5C0 107.883 33.803 139 75.5 139C117.197 139 151 107.883 151 69.5C150.953 31.1347 117.177 0.0429852 75.5 0ZM75.5 134.367C36.5826 134.367 5.03333 105.325 5.03333 69.5C5.03333 33.6754 36.5826 4.63333 75.5 4.63333C114.417 4.63333 145.967 33.6754 145.967 69.5C145.922 105.308 114.399 134.326 75.5 134.367Z" fill="#F8B712"/>
<path d="M123.315 69.4999C123.315 72.4806 122.989 75.4522 122.343 78.3729L127.276 79.2993C131.834 58.7695 121.625 37.855 101.923 27.3599L99.4062 31.3677C114.176 39.2588 123.28 53.7798 123.315 69.4999Z" fill="#F8B712"/>
<path d="M110.734 69.5001H115.767C115.761 58.9541 110.881 48.9069 102.345 41.8721L98.9883 45.3233C106.457 51.4804 110.727 60.2708 110.734 69.5001Z" fill="#F8B712"/>
</svg>
