<svg width="128" height="127" viewBox="0 0 128 127" fill="none" xmlns="http://www.w3.org/2000/svg">
<path d="M72.5 127H55.5C52.7432 127 50.5 124.774 50.5 122.039V114.634C45.7959 113.414 41.3066 111.567 37.1094 109.124L31.8271 114.365C29.877 116.299 26.7051 116.299 24.7559 114.365L12.7344 102.438C10.7852 100.504 10.7852 97.3565 12.7344 95.4225L18.0166 90.1805C15.5547 86.0161 13.6934 81.5619 12.4639 76.8945H5C2.24316 76.8945 0 74.6689 0 71.9336V55.0664C0 52.3311 2.24316 50.1055 5 50.1055H12.4473C13.6729 45.4304 15.5322 40.9684 17.9941 36.7962L12.7344 31.5775C10.7852 29.6435 10.7852 26.4964 12.7344 24.5625L24.7559 12.6349C26.7051 10.7009 29.877 10.7009 31.8271 12.6349L37.0684 17.8361C41.2773 15.3818 45.7803 13.5273 50.5 12.3035V4.96094C50.5 2.22564 52.7432 0 55.5 0H72.5C75.2568 0 77.5 2.22564 77.5 4.96094V12.287C82.2266 13.5069 86.7383 15.3595 90.9541 17.8129L96.1738 12.6349C98.123 10.7009 101.295 10.7009 103.244 12.6349L115.266 24.5625C117.215 26.4964 117.215 29.6435 115.266 31.5785L110.047 36.7565C112.52 40.9394 114.387 45.4158 115.616 50.1055H123C125.757 50.1055 128 52.3311 128 55.0664V71.9336C128 74.6689 125.757 76.8945 123 76.8945H115.6C114.366 81.5774 112.496 86.0451 110.023 90.2212L115.265 95.4225C117.214 97.3565 117.214 100.504 115.265 102.438L103.244 114.365C101.295 116.299 98.123 116.299 96.1729 114.365L90.9141 109.146C86.708 111.589 82.2109 113.434 77.5 114.65V122.039C77.5 124.774 75.2568 127 72.5 127ZM36.7344 103.507C37.1992 103.507 37.665 103.635 38.0791 103.897C42.8359 106.91 48.0381 109.051 53.54 110.259C54.6855 110.511 55.5 111.517 55.5 112.681V122.039H72.5V112.695C72.5 111.53 73.3164 110.522 74.4629 110.272C79.9727 109.069 85.1826 106.931 89.9473 103.92C90.9355 103.295 92.2295 103.436 93.0586 104.258L99.709 110.857L111.729 98.93L105.094 92.3461C104.264 91.5225 104.123 90.2367 104.756 89.2552C107.804 84.5268 109.97 79.3527 111.191 73.8782C111.444 72.7417 112.46 71.9336 113.632 71.9336H123V55.0664H113.646C112.472 55.0664 111.456 54.2564 111.204 53.1189C109.988 47.6366 107.826 42.4548 104.778 37.7186C104.147 36.7371 104.289 35.4533 105.118 34.6297L111.729 28.07L99.709 16.1434L93.0977 22.7031C92.2686 23.5257 90.9736 23.6662 89.9844 23.0403C85.2109 20.0162 79.9883 17.872 74.4629 16.6647C73.3164 16.4147 72.5 15.407 72.5 14.2423V4.96094H55.5V14.2559C55.5 15.4196 54.6855 16.4263 53.541 16.6782C48.0225 17.8904 42.8076 20.0385 38.042 23.0625C37.0537 23.6904 35.7568 23.5509 34.9277 22.7273L28.291 16.1434L16.2705 28.07L22.9209 34.6694C23.75 35.4911 23.8916 36.7749 23.2617 37.7554C20.2266 42.4829 18.0723 47.6521 16.8594 53.1189C16.6074 54.2564 15.5918 55.0664 14.418 55.0664H5V71.9336H14.4316C15.6045 71.9336 16.6191 72.7427 16.873 73.8782C18.0908 79.3382 20.249 84.4987 23.2852 89.2184C23.916 90.1999 23.7754 91.4847 22.9453 92.3074L16.2705 98.93L28.291 110.858L34.9658 104.234C35.4492 103.755 36.0889 103.507 36.7344 103.507Z" fill="#F8B712"/>
<path d="M64.0027 99.6981C54.656 99.6981 45.3093 96.1673 38.1931 89.1076C23.9617 74.9874 23.9617 52.012 38.1931 37.8918C43.9333 32.1973 51.2117 28.6355 59.241 27.593C67.0154 26.5833 75.0417 28.1123 81.8445 31.897C83.0486 32.5665 83.4773 34.078 82.8025 35.2727C82.1267 36.4684 80.6033 36.8938 79.3992 36.2233C67.157 29.4117 51.6658 31.5404 41.7292 41.4003C29.447 53.5856 29.447 73.4138 41.7292 85.6001C47.8699 91.6918 55.9373 94.7381 64.0027 94.7391C72.0701 94.7401 80.1355 91.6937 86.2771 85.6001C95.8796 76.0726 98.2576 61.5783 92.1931 49.5335C91.5759 48.3078 92.0769 46.8176 93.3123 46.2052C94.5466 45.5928 96.0486 46.0909 96.6658 47.3166C103.693 61.2731 100.939 78.0686 89.8123 89.1076C82.696 96.1673 73.3494 99.6981 64.0027 99.6981Z" fill="#F8B712"/>
<path d="M88.5898 42.667C87.9297 42.667 87.2871 42.4034 86.8193 41.9393C86.3545 41.4781 86.0898 40.8406 86.0898 40.1865C86.0898 39.5335 86.3545 38.894 86.8193 38.4328C87.2842 37.9706 87.9297 37.7061 88.5898 37.7061C89.2471 37.7061 89.8916 37.9706 90.3574 38.4328C90.8223 38.894 91.0898 39.5335 91.0898 40.1865C91.0898 40.8406 90.8223 41.4781 90.3574 41.9393C89.8896 42.4034 89.2471 42.667 88.5898 42.667Z" fill="#F8B712"/>
<path d="M60.4736 81.7733C59.8105 81.7733 59.1748 81.5117 58.7061 81.0466L42.8965 65.3595C41.9199 64.3916 41.9199 62.8209 42.8965 61.852L51.8633 52.9543C52.332 52.4892 52.9678 52.2286 53.6309 52.2286C54.2939 52.2286 54.9307 52.4892 55.3994 52.9543L60.4736 57.9898L72.6055 45.9538C73.581 44.9848 75.1641 44.9848 76.1406 45.9538L85.1084 54.8515C86.084 55.8194 86.084 57.3901 85.1084 58.359L62.2422 81.0466C61.7725 81.5117 61.1367 81.7733 60.4736 81.7733ZM48.1992 63.6058L60.4736 75.7843L79.8047 56.6052L74.373 51.216L62.2422 63.2521C61.7734 63.7172 61.1367 63.9788 60.4736 63.9788C59.8105 63.9788 59.1748 63.7172 58.7061 63.2521L53.6309 58.2166L48.1992 63.6058Z" fill="#F8B712"/>
</svg>
