<svg width="147" height="150" viewBox="0 0 147 150" fill="none" xmlns="http://www.w3.org/2000/svg">
<path d="M73.5032 4.6875H73.5001C65.4505 4.68928 57.5426 6.8489 50.5683 10.9501C43.5939 15.0513 37.7978 20.9502 33.7603 28.0561C29.7228 35.162 27.5856 43.2255 27.5627 51.4393C27.5398 59.6531 29.632 67.729 33.6298 74.8582C37.4948 81.718 42.9886 87.4756 49.6057 91.6011C50.5949 92.2312 51.4101 93.1085 51.974 94.1501C52.538 95.1916 52.832 96.3628 52.8282 97.5527V98.8418C51.7611 99.2261 50.8033 99.8729 50.0396 100.725C49.2759 101.577 48.7298 102.608 48.4496 103.727C48.1694 104.845 48.1638 106.017 48.4334 107.139C48.7029 108.26 49.2391 109.297 49.9947 110.156C48.8614 111.444 48.2344 113.113 48.2344 114.844C48.2344 116.574 48.8614 118.244 49.9947 119.531C49.2389 120.391 48.7024 121.427 48.4327 122.549C48.1631 123.67 48.1686 124.843 48.4488 125.962C48.7289 127.08 49.2752 128.112 50.039 128.964C50.8029 129.816 51.7609 130.463 52.8282 130.847V133.594C52.8316 136.701 54.0427 139.679 56.1957 141.876C58.3487 144.073 61.2678 145.309 64.3126 145.312H82.6876C85.7324 145.309 88.6515 144.073 90.8045 141.876C92.9575 139.679 94.1685 136.701 94.1719 133.594V130.847C95.2392 130.463 96.1972 129.816 96.9611 128.964C97.725 128.112 98.2712 127.08 98.5514 125.962C98.8316 124.843 98.8371 123.67 98.5674 122.549C98.2978 121.427 97.7613 120.391 97.0054 119.531C98.1388 118.244 98.7657 116.574 98.7657 114.844C98.7657 113.113 98.1388 111.444 97.0054 110.156C97.7613 109.297 98.2978 108.26 98.5674 107.139C98.8371 106.017 98.8316 104.845 98.5514 103.726C98.2712 102.607 97.725 101.576 96.9611 100.724C96.1972 99.8717 95.2392 99.2248 94.1719 98.8406V97.5516C94.171 96.3423 94.4763 95.1533 95.0582 94.0999C95.6401 93.0464 96.4789 92.1643 97.4932 91.539C104.2 87.351 109.74 81.4755 113.583 74.4755C117.425 67.4755 119.441 59.5858 119.438 51.5625C119.438 25.7174 98.8314 4.68926 73.5032 4.6875ZM55.1251 103.125H91.8751C92.4842 103.125 93.0685 103.372 93.4992 103.811C93.93 104.251 94.1719 104.847 94.1719 105.469C94.1719 106.09 93.93 106.686 93.4992 107.126C93.0685 107.566 92.4842 107.812 91.8751 107.812H55.1251C54.5159 107.812 53.9317 107.566 53.5009 107.126C53.0702 106.686 52.8282 106.09 52.8282 105.469C52.8282 104.847 53.0702 104.251 53.5009 103.811C53.9317 103.372 54.5159 103.125 55.1251 103.125ZM66.6094 75H64.3126C63.8583 75 63.4142 74.8625 63.0365 74.605C62.6588 74.3475 62.3644 73.9814 62.1905 73.5532C62.0167 73.1249 61.9712 72.6536 62.0598 72.199C62.1485 71.7444 62.3672 71.3267 62.6884 70.999C63.0097 70.6712 63.4189 70.448 63.8645 70.3575C64.31 70.2671 64.7718 70.3135 65.1915 70.4909C65.6112 70.6683 65.97 70.9687 66.2224 71.3541C66.4747 71.7396 66.6094 72.1927 66.6094 72.6562V75ZM71.2032 79.6875H75.7969V98.4375H71.2032V79.6875ZM94.1719 114.844C94.1713 115.465 93.9291 116.061 93.4985 116.5C93.0679 116.94 92.484 117.187 91.8751 117.188H55.1251C54.5159 117.188 53.9317 116.941 53.5009 116.501C53.0702 116.061 52.8282 115.465 52.8282 114.844C52.8282 114.222 53.0702 113.626 53.5009 113.186C53.9317 112.747 54.5159 112.5 55.1251 112.5H91.8751C92.484 112.501 93.0679 112.748 93.4985 113.187C93.9291 113.627 94.1713 114.222 94.1719 114.844ZM82.6876 140.625H64.3126C62.4857 140.623 60.7342 139.881 59.4424 138.563C58.1506 137.245 57.424 135.458 57.4219 133.594V131.25H89.5782V133.594C89.5761 135.458 88.8495 137.245 87.5577 138.563C86.2659 139.881 84.5144 140.623 82.6876 140.625ZM91.8751 126.562H55.1251C54.5159 126.562 53.9317 126.316 53.5009 125.876C53.0702 125.436 52.8282 124.84 52.8282 124.219C52.8282 123.597 53.0702 123.001 53.5009 122.561C53.9317 122.122 54.5159 121.875 55.1251 121.875H91.8751C92.4842 121.875 93.0685 122.122 93.4992 122.561C93.93 123.001 94.1719 123.597 94.1719 124.219C94.1719 124.84 93.93 125.436 93.4992 125.876C93.0685 126.316 92.4842 126.562 91.8751 126.562ZM95.0907 87.544C93.4048 88.5863 92.0115 90.0554 91.0456 91.8088C90.0798 93.5622 89.5743 95.5405 89.5782 97.5518V98.4375H80.3907V79.6875H82.6876C84.0504 79.6875 85.3826 79.2751 86.5158 78.5025C87.6489 77.7299 88.5321 76.6318 89.0537 75.347C89.5752 74.0622 89.7117 72.6484 89.4458 71.2845C89.1799 69.9206 88.5236 68.6677 87.56 67.6844C86.5963 66.7011 85.3685 66.0314 84.0319 65.7601C82.6952 65.4888 81.3097 65.628 80.0506 66.1602C78.7915 66.6924 77.7154 67.5936 76.9582 68.7499C76.2011 69.9062 75.7969 71.2656 75.7969 72.6562V75H71.2032V72.6562C71.2032 71.2656 70.7991 69.9062 70.0419 68.7499C69.2848 67.5936 68.2086 66.6924 66.9495 66.1602C65.6904 65.628 64.3049 65.4888 62.9683 65.7601C61.6316 66.0314 60.4038 66.7011 59.4402 67.6844C58.4765 68.6677 57.8202 69.9206 57.5543 71.2845C57.2885 72.6484 57.4249 74.0622 57.9465 75.347C58.468 76.6318 59.3512 77.7299 60.4843 78.5025C61.6175 79.2751 62.9497 79.6875 64.3126 79.6875H66.6094V98.4375H57.4219V97.5527C57.4231 95.5598 56.9256 93.5995 55.9764 91.8577C55.0272 90.1159 53.6579 88.6503 51.9982 87.5997C44.2895 82.8169 38.3258 75.5921 35.0171 67.0276C31.7083 58.4632 31.2361 49.0293 33.6726 40.1654C36.109 31.3016 41.3203 23.4944 48.5113 17.935C55.7023 12.3757 64.4783 9.36945 73.5001 9.375H73.5032C96.2983 9.37676 114.844 28.3008 114.844 51.5625C114.868 58.7883 113.062 65.8979 109.601 72.202C106.14 78.5061 101.142 83.7909 95.0907 87.544ZM80.3907 75V72.6562C80.3907 72.1927 80.5254 71.7396 80.7778 71.3541C81.0302 70.9687 81.3889 70.6683 81.8086 70.4909C82.2283 70.3135 82.6901 70.2671 83.1357 70.3575C83.5812 70.448 83.9905 70.6712 84.3117 70.999C84.6329 71.3267 84.8517 71.7444 84.9403 72.199C85.0289 72.6536 84.9834 73.1249 84.8096 73.5532C84.6358 73.9814 84.3414 74.3475 83.9636 74.605C83.5859 74.8625 83.1418 75 82.6876 75H80.3907Z" fill="#F8B712"/>
<path d="M73.5 14.0625H71.2031C70.594 14.0625 70.0097 14.3094 69.579 14.749C69.1482 15.1885 68.9062 15.7846 68.9062 16.4062C68.9062 17.0279 69.1482 17.624 69.579 18.0635C70.0097 18.5031 70.594 18.75 71.2031 18.75H73.5C82.0254 18.7598 90.1989 22.22 96.2272 28.3714C102.256 34.5228 105.647 42.8631 105.656 51.5625V53.9062C105.656 54.5279 105.898 55.124 106.329 55.5635C106.76 56.0031 107.344 56.25 107.953 56.25C108.562 56.25 109.147 56.0031 109.577 55.5635C110.008 55.124 110.25 54.5279 110.25 53.9062V51.5625C110.239 41.6203 106.364 32.0886 99.474 25.0584C92.5844 18.0282 83.2433 14.0737 73.5 14.0625Z" fill="#F8B712"/>
</svg>
