<svg width="123" height="129" viewBox="0 0 123 129" fill="none" xmlns="http://www.w3.org/2000/svg">
<g clip-path="url(#clip0)">
<path d="M100.133 100.605L88.3834 44.1242C87.5745 40.2359 85.5013 36.7201 82.5462 34.2235C79.5908 31.7278 75.8733 30.353 72.0789 30.353H49.9085C41.9812 30.353 35.099 36.2703 33.5444 44.4229L22.8277 100.62C17.9719 102.377 14.4727 107.215 14.4727 112.897V129H108.531V112.897C108.531 107.198 105.012 102.348 100.133 100.605ZM40.6391 45.9109C41.5199 41.293 45.4183 37.9413 49.9085 37.9413H72.0789C76.49 37.9413 80.3741 41.2219 81.3145 45.7417L92.5837 99.9119H65.1197V90.6454C72.6956 88.9034 78.3844 81.8137 78.3844 73.353C78.3844 63.5898 70.8112 55.6472 61.5021 55.6472C52.1931 55.6472 44.6197 63.5898 44.6197 73.353C44.6197 81.8137 50.3086 88.9034 57.8844 90.6454V99.9119H30.3413L40.6391 45.9109ZM61.5021 83.4707C56.1827 83.4707 51.855 78.9319 51.855 73.353C51.855 67.7742 56.1827 63.2354 61.5021 63.2354C66.8215 63.2354 71.1491 67.7742 71.1491 73.353C71.1491 78.9319 66.8215 83.4707 61.5021 83.4707ZM101.296 121.412H21.708V112.897C21.708 109.921 24.0163 107.5 26.8535 107.5H96.1507C98.9879 107.5 101.296 109.921 101.296 112.897V121.412Z" fill="#F8B712"/>
<path d="M57.8828 0H65.1181V22.7647H57.8828V0Z" fill="#F8B712"/>
<path d="M99.8398 47.8667L121.133 43.4048L122.551 50.8489L101.258 55.3108L99.8398 47.8667Z" fill="#F8B712"/>
<path d="M87.8711 25.1489L103.217 9.05427L108.333 14.4192L92.9865 30.5138L87.8711 25.1489Z" fill="#F8B712"/>
<path d="M0.511719 50.8037L1.92988 43.3594L23.2234 47.8213L21.8052 55.2656L0.511719 50.8037Z" fill="#F8B712"/>
<path d="M14.6523 14.4106L19.7677 9.04576L35.1138 25.1404L29.9984 30.5053L14.6523 14.4106Z" fill="#F8B712"/>
</g>
<defs>
<clipPath id="clip0">
<rect width="123" height="129" fill="white"/>
</clipPath>
</defs>
</svg>
