<svg width="123" height="114" viewBox="0 0 123 114" fill="none" xmlns="http://www.w3.org/2000/svg">
<mask id="path-1-inside-1" fill="white">
<path d="M121.723 27.4197C120.932 26.9848 119.952 26.9678 119.144 27.3763L90.9226 41.6584V33.089C90.9145 26.4225 85.0857 21.0202 77.8929 21.0127H13.0297C5.83688 21.0202 0.00814354 26.4225 0 33.089V80.7714C0.00814354 87.4379 5.83688 92.8401 13.0297 92.8476H77.8929C85.0857 92.8401 90.9145 87.4379 90.9226 80.7714V72.3576L119.145 86.6397C119.952 87.0482 120.933 87.0322 121.723 86.5972C122.515 86.1613 123 85.3717 123 84.5197V29.4963C123 28.6434 122.514 27.8547 121.723 27.4197ZM85.7087 80.7723C85.7046 84.7726 82.207 88.0134 77.8909 88.0181H13.0297C8.71358 88.0134 5.21695 84.7726 5.21186 80.7723V33.089C5.21695 29.0896 8.71358 25.8479 13.0297 25.8432H77.8929C82.208 25.8479 85.7056 29.0896 85.7107 33.089L85.7087 80.7723ZM117.788 80.4496L90.9226 66.8544V47.1616L117.788 33.5673V80.4496Z"/>
</mask>
<path d="M119.144 27.3763L114.633 18.4515L114.629 18.4538L119.144 27.3763ZM90.9226 41.6584H80.9226V57.9268L95.438 50.5809L90.9226 41.6584ZM90.9226 33.089H100.923L100.923 33.0768L90.9226 33.089ZM77.8929 21.0127L77.9034 11.0127H77.8929V21.0127ZM13.0297 21.0127V11.0127L13.0192 11.0127L13.0297 21.0127ZM0 33.089L-10 33.0768V33.089H0ZM0 80.7714H-10L-9.99999 80.7836L0 80.7714ZM13.0297 92.8476L13.0192 102.848H13.0297V92.8476ZM77.8929 92.8476V102.848L77.9034 102.848L77.8929 92.8476ZM90.9226 80.7714L100.923 80.7836V80.7714H90.9226ZM90.9226 72.3576L95.4379 63.435L80.9226 56.0895V72.3576H90.9226ZM119.145 86.6397L123.66 77.7172L123.66 77.7171L119.145 86.6397ZM121.723 86.5972L126.542 95.3598L126.545 95.358L121.723 86.5972ZM85.7087 80.7723L95.7087 80.7825V80.7727L85.7087 80.7723ZM77.8909 88.0181V98.0181L77.9018 98.0181L77.8909 88.0181ZM13.0297 88.0181L13.0187 98.0181H13.0297V88.0181ZM5.21186 80.7723H-4.78814L-4.78813 80.785L5.21186 80.7723ZM5.21186 33.089L-4.78814 33.0762V33.089H5.21186ZM13.0297 25.8432V15.8432L13.0187 15.8432L13.0297 25.8432ZM77.8929 25.8432L77.9039 15.8432H77.8929V25.8432ZM85.7107 33.089L95.7107 33.0894L95.7107 33.0762L85.7107 33.089ZM117.788 80.4496L113.273 89.3722L127.788 96.7176V80.4496H117.788ZM90.9226 66.8544H80.9226V73.0014L86.4073 75.777L90.9226 66.8544ZM90.9226 47.1616L86.4076 38.2389L80.9226 41.0144V47.1616H90.9226ZM117.788 33.5673H127.788V17.2998L113.273 24.6446L117.788 33.5673ZM126.537 18.6546C122.852 16.6305 118.384 16.5559 114.633 18.4515L123.655 36.3011C121.521 37.3797 119.011 37.3391 116.91 36.1849L126.537 18.6546ZM114.629 18.4538L86.4072 32.7359L95.438 50.5809L123.659 36.2988L114.629 18.4538ZM100.923 41.6584V33.089H80.9226V41.6584H100.923ZM100.923 33.0768C100.907 20.1967 89.8835 11.0253 77.9034 11.0127L77.8824 31.0127C78.9636 31.0138 79.7948 31.4157 80.3044 31.888C80.8012 32.3485 80.9222 32.7816 80.9226 33.1012L100.923 33.0768ZM77.8929 11.0127H13.0297V31.0127H77.8929V11.0127ZM13.0192 11.0127C1.03905 11.0253 -9.98426 20.1967 -9.99999 33.0768L9.99999 33.1012C10.0004 32.7816 10.1214 32.3485 10.6182 31.888C11.1278 31.4157 11.959 31.0138 13.0402 31.0127L13.0192 11.0127ZM-10 33.089V80.7714H10V33.089H-10ZM-9.99999 80.7836C-9.98426 93.6636 1.03905 102.835 13.0192 102.848L13.0402 82.8476C11.959 82.8465 11.1278 82.4446 10.6182 81.9723C10.1214 81.5119 10.0004 81.0787 9.99999 80.7592L-9.99999 80.7836ZM13.0297 102.848H77.8929V82.8476H13.0297V102.848ZM77.9034 102.848C89.8835 102.835 100.907 93.6636 100.923 80.7836L80.9226 80.7592C80.9222 81.0787 80.8012 81.5119 80.3044 81.9723C79.7948 82.4446 78.9636 82.8465 77.8824 82.8476L77.9034 102.848ZM100.923 80.7714V72.3576H80.9226V80.7714H100.923ZM86.4073 81.2802L114.63 95.5622L123.66 77.7171L95.4379 63.435L86.4073 81.2802ZM114.63 95.5622C118.374 97.4572 122.848 97.3912 126.542 95.3598L116.905 77.8347C119.017 76.6731 121.53 76.6392 123.66 77.7172L114.63 95.5622ZM126.545 95.358C130.298 93.2927 133 89.2766 133 84.5197H113C113 81.4667 114.733 79.03 116.902 77.8365L126.545 95.358ZM133 84.5197V29.4963H113V84.5197H133ZM133 29.4963C133 24.7316 130.29 20.7182 126.542 18.6572L116.905 36.1823C114.739 34.9911 113 32.5552 113 29.4963H133ZM75.7087 80.7621C75.7097 79.7475 76.1728 78.9729 76.6195 78.5589C77.0531 78.1571 77.5237 78.0185 77.88 78.0181L77.9018 98.0181C87.0025 98.0081 95.6983 91 95.7087 80.7825L75.7087 80.7621ZM77.8909 78.0181H13.0297V98.0181H77.8909V78.0181ZM13.0406 78.0181C13.3971 78.0185 13.8681 78.1572 14.3018 78.5592C14.7484 78.9731 15.2106 79.7469 15.2119 80.7596L-4.78813 80.785C-4.77513 90.9984 3.91559 98.0081 13.0187 98.0181L13.0406 78.0181ZM15.2119 80.7723V33.089H-4.78814V80.7723H15.2119ZM15.2119 33.1017C15.2106 34.1153 14.7481 34.8887 14.3021 35.3021C13.8688 35.7037 13.3979 35.8428 13.0406 35.8432L13.0187 15.8432C3.91471 15.8532 -4.77513 22.8647 -4.78813 33.0762L15.2119 33.1017ZM13.0297 35.8432H77.8929V15.8432H13.0297V35.8432ZM77.882 35.8432C77.5238 35.8428 77.0531 35.7034 76.6204 35.3024C76.175 34.8896 75.712 34.1162 75.7107 33.1017L95.7107 33.0762C95.6977 22.8638 87.006 15.8532 77.9039 15.8432L77.882 35.8432ZM75.7107 33.0885L75.7087 80.7719L95.7087 80.7727L95.7107 33.0894L75.7107 33.0885ZM122.303 71.5271L95.4379 57.9318L86.4073 75.777L113.273 89.3722L122.303 71.5271ZM100.923 66.8544V47.1616H80.9226V66.8544H100.923ZM95.4376 56.0843L122.303 42.49L113.273 24.6446L86.4076 38.2389L95.4376 56.0843ZM107.788 33.5673V80.4496H127.788V33.5673H107.788Z" fill="#F8B712" mask="url(#path-1-inside-1)"/>
</svg>
