<svg width="151" height="139" viewBox="0 0 151 139" fill="none" xmlns="http://www.w3.org/2000/svg">
<g clip-path="url(#clip0)">
<path d="M23.4569 117.183L23.4567 117.183C9.59528 104.424 2 87.4941 2 69.5C2 32.4341 34.8138 2 75.5 2C95.2049 2 113.674 9.05204 127.543 21.8173C141.405 34.5758 149 51.5059 149 69.5C149 106.566 116.183 137 75.5 137C55.795 137 37.3224 129.948 23.4569 117.183ZM34.3126 112.886L32.5489 114.509L34.4622 115.953C46.0278 124.684 60.3787 129.417 75.5 129.417C111.137 129.417 140.417 102.692 140.417 69.5C140.417 55.4578 135.227 42.1707 125.723 31.5023L124.371 29.9843L122.875 31.3612L34.3126 112.886ZM116.684 26.1143L118.448 24.491L116.535 23.0467C104.972 14.3162 90.6181 9.58333 75.5 9.58333C39.8629 9.58333 10.5833 36.308 10.5833 69.5C10.5833 83.5422 15.7734 96.8293 25.2769 107.498L26.6292 109.016L28.1249 107.639L116.684 26.1143Z" stroke="#F8B712" stroke-width="4"/>
</g>
<defs>
<clipPath id="clip0">
<rect width="151" height="139" fill="white"/>
</clipPath>
</defs>
</svg>
