<svg width="116" height="115" viewBox="0 0 116 115" fill="none" xmlns="http://www.w3.org/2000/svg">
<path d="M101.326 15.2408H91.5425V5.54223C91.5427 2.49383 89.0267 0 85.9534 0H14.6752C11.6005 0 9.08496 2.49383 9.08496 5.54223V94.2167C9.08496 97.2649 11.6005 99.7589 14.6754 99.7589H24.4586V109.458C24.4586 112.506 26.9729 115 30.049 115H77.5656C80.6389 115 84.9882 113.29 87.2258 111.202L102.842 96.6292C105.083 94.5413 106.914 90.3375 106.914 87.2893L106.916 20.7835C106.916 17.7349 104.4 15.2408 101.326 15.2408ZM24.4581 20.7833V95.6023H14.6752C13.9178 95.6023 13.2777 94.9678 13.2777 94.2169V5.54223C13.2777 4.79136 13.9178 4.15684 14.6752 4.15684H85.9536C86.7097 4.15684 87.3511 4.79136 87.3511 5.54223V15.2411H30.0485C26.9725 15.2411 24.4581 17.7349 24.4581 20.7833ZM99.9688 93.6029L84.3521 108.175C84.0322 108.473 83.6155 108.765 83.1556 109.043V96.295C83.1556 95.3431 83.5428 94.4867 84.1815 93.8495C84.8258 93.2163 85.6894 92.8313 86.6496 92.8313H100.633C100.416 93.1233 100.194 93.3922 99.9688 93.6029ZM102.72 87.2889C102.72 87.7004 102.645 88.177 102.53 88.6743H86.6494C82.4079 88.6826 78.9712 92.0897 78.9626 96.2948V110.675C78.4637 110.775 77.9829 110.843 77.5652 110.843H30.0485V110.843C29.2895 110.843 28.6511 110.208 28.6511 109.458V20.7831C28.6511 20.0322 29.2898 19.3977 30.0485 19.3977H101.325C102.083 19.3977 102.723 20.0322 102.723 20.7831L102.72 87.2889Z" fill="#FFC652"/>
<path d="M85.9535 34.6387H45.4235C44.2649 34.6387 43.3271 35.5683 43.3271 36.717C43.3271 37.8656 44.2651 38.7953 45.4235 38.7953H85.9535C87.1107 38.7953 88.0498 37.8656 88.0498 36.717C88.0498 35.5683 87.1107 34.6387 85.9535 34.6387Z" fill="#FFC652"/>
<path d="M85.9535 62.3491H45.4235C44.2649 62.3491 43.3271 63.2788 43.3271 64.4274C43.3271 65.5761 44.2651 66.5057 45.4235 66.5057H85.9535C87.1107 66.5057 88.0498 65.5761 88.0498 64.4274C88.0498 63.2786 87.1107 62.3491 85.9535 62.3491Z" fill="#FFC652"/>
<path d="M67.7848 76.2046H45.4235C44.2649 76.2046 43.3271 77.1342 43.3271 78.2829C43.3271 79.4315 44.2649 80.3612 45.4235 80.3612H67.7848C68.942 80.3612 69.8798 79.4315 69.8798 78.2829C69.8798 77.1342 68.942 76.2046 67.7848 76.2046Z" fill="#FFC652"/>
<path d="M85.9535 48.4937H45.4235C44.2649 48.4937 43.3271 49.4233 43.3271 50.572C43.3271 51.7206 44.2651 52.6503 45.4235 52.6503H85.9535C87.1107 52.6503 88.0498 51.7206 88.0498 50.572C88.0498 49.4233 87.1107 48.4937 85.9535 48.4937Z" fill="#FFC652"/>
</svg>
