<svg width="136" height="125" viewBox="0 0 136 125" fill="none" xmlns="http://www.w3.org/2000/svg">
<path d="M81.4326 33.9839H34.42C33.0297 33.9839 31.9014 35.0164 31.9014 36.291C31.9014 37.5657 33.0297 38.5982 34.42 38.5982H81.4323C82.8226 38.5982 83.951 37.5657 83.951 36.291C83.951 35.0161 82.8226 33.9839 81.4326 33.9839Z" fill="#FFC652"/>
<path d="M61.2841 49.3638H34.42C33.0297 49.3638 31.9014 50.3962 31.9014 51.6709C31.9014 52.9456 33.0297 53.978 34.42 53.978H61.2841C62.6744 53.978 63.8027 52.9456 63.8027 51.6709C63.8027 50.396 62.6744 49.3638 61.2841 49.3638Z" fill="#FFC652"/>
<path d="M86.4692 66.4141C80.4397 66.4141 75.5557 70.8894 75.5557 76.4126C75.5557 81.9327 80.44 86.4095 86.4692 86.4095C92.4983 86.4095 97.3827 81.9341 97.3827 76.4126C97.3827 70.8894 92.4983 66.4141 86.4692 66.4141ZM86.4692 81.7937C83.2285 81.7937 80.5927 79.3784 80.5927 76.4112C80.5927 73.4422 83.2285 71.0286 86.4692 71.0286C89.7098 71.0286 92.3456 73.4422 92.3456 76.4112C92.3456 79.3784 89.7098 81.7937 86.4692 81.7937Z" fill="#FFC652"/>
<path d="M129.284 6.17334H6.71608C3.02202 6.17334 0 8.94044 0 12.3247V94.1537C0 97.5366 3.02202 100.305 6.71608 100.305H65.134L61.2907 109.575L61.2939 109.567C61.1311 109.956 61.0235 110.386 61.0219 110.862C61.0049 111.592 61.3444 112.495 62.0645 113.084C62.7748 113.686 63.6694 113.897 64.4065 113.891C64.6618 113.891 64.9085 113.868 65.1455 113.829L71.4251 112.798L71.6634 112.857L71.7726 112.914L75.7251 117.51C76.0138 117.845 76.3716 118.158 76.8364 118.406C77.2946 118.653 77.8809 118.827 78.5088 118.826C79.3046 118.835 80.0954 118.528 80.6229 118.101C81.1619 117.675 81.4862 117.169 81.6942 116.67L86.931 104.037L92.1678 116.67C92.3761 117.167 92.6985 117.672 93.2372 118.101C93.7642 118.527 94.5553 118.835 95.3513 118.826C95.9809 118.828 96.5652 118.653 97.0256 118.406C97.4872 118.159 97.845 117.847 98.1319 117.514L98.1351 117.509L102.084 112.92L102.259 112.833L102.435 112.798L108.716 113.829C108.953 113.868 109.2 113.891 109.455 113.891C110.191 113.897 111.087 113.684 111.797 113.084C112.517 112.491 112.855 111.59 112.838 110.862C112.836 110.388 112.731 109.962 112.573 109.578L112.571 109.574L108.728 100.304H129.284C132.978 100.304 136 97.5358 136 94.1533V12.3247C136 8.94044 132.978 6.17334 129.284 6.17334ZM77.9701 112.663L75.7017 110.029L75.6998 110.025C75.1239 109.368 74.449 108.956 73.7387 108.655C73.0252 108.363 72.2645 108.186 71.4166 108.181C71.1497 108.181 70.8726 108.201 70.5839 108.249L66.9825 108.841L72.8236 94.7526C76.0356 96.748 79.7982 98.0551 83.8598 98.4518L77.9701 112.663ZM86.4693 93.9699C75.821 93.9699 67.1608 86.0348 67.1608 76.2814C67.1608 66.5297 75.821 58.5946 86.4693 58.5946C97.1177 58.5946 105.778 66.5297 105.778 76.2814C105.778 86.0346 97.1175 93.9699 86.4693 93.9699ZM62.9044 81.7939H20.1482V23.0901H115.852V81.7939H110.034C110.526 80.027 110.815 78.1874 110.815 76.2814C110.815 63.9667 99.9198 53.9803 86.4691 53.9803C73.0183 53.9803 62.1232 63.9667 62.1232 76.2814C62.1234 78.1891 62.4122 80.0282 62.9044 81.7939ZM103.276 108.249C102.989 108.203 102.712 108.183 102.445 108.183C101.597 108.188 100.838 108.363 100.123 108.657C99.4125 108.956 98.7391 109.37 98.1617 110.029L98.1598 110.03L95.8932 112.663L89.9512 98.331C93.9858 97.8002 97.6931 96.371 100.833 94.2617L106.879 108.842L103.276 108.249ZM130.963 94.1535C130.963 94.9868 130.194 95.6906 129.284 95.6906H106.817L104.829 90.8988C106.124 89.5363 107.237 88.0317 108.142 86.4081H119.21C120.134 86.4081 120.889 85.7167 120.889 84.871V20.0147C120.889 19.169 120.134 18.4759 119.21 18.4759H16.7902C15.8666 18.4759 15.1112 19.1687 15.1112 20.0147V84.8698C15.1112 85.7155 15.8666 86.4069 16.7902 86.4069H64.7967C65.8512 88.2973 67.1892 90.0256 68.7606 91.5566L67.0463 95.6909H6.71608C5.80604 95.6909 5.03706 94.987 5.03706 94.1537V12.3247C5.03706 11.4915 5.80604 10.7859 6.71608 10.7859H129.284C130.194 10.7859 130.963 11.491 130.963 12.3247V94.1535Z" fill="#FFC652"/>
</svg>
