<svg width="136" height="134" viewBox="0 0 136 134" fill="none" xmlns="http://www.w3.org/2000/svg">
<path d="M67.9999 0C30.5055 0 0 30.0569 0 66.9999C0 103.943 30.5055 134 67.9999 134C105.494 134 136 103.943 136 66.9999C136 30.0569 105.495 0 67.9999 0ZM67.9999 128.174C33.7634 128.174 5.91295 100.733 5.91295 66.9999C5.91295 33.2668 33.7634 5.82599 67.9999 5.82599C102.236 5.82599 130.087 33.2668 130.087 66.9999C130.087 100.733 102.236 128.174 67.9999 128.174Z" fill="#FFC652"/>
<path d="M96.7015 91.1611L70.9562 65.7941V20.3916C70.9562 18.7836 69.6316 17.4785 67.9996 17.4785C66.3676 17.4785 65.043 18.7836 65.043 20.3916V67.0004C65.043 67.7752 65.3565 68.5153 65.9064 69.0628L92.515 95.2802C93.0946 95.8452 93.8513 96.1309 94.6083 96.1309C95.3652 96.1309 96.1219 95.8455 96.7015 95.2802C97.8545 94.1438 97.8545 92.2972 96.7015 91.1611Z" fill="#FFC652"/>
</svg>
