<svg width="137" height="128" viewBox="0 0 137 128" fill="none" xmlns="http://www.w3.org/2000/svg">
<path d="M68.5001 124.541C68.1838 124.541 67.8728 124.465 67.5966 124.321C35.4146 107.489 16.2031 80.4325 16.2031 51.9248V24.7767C16.2029 24.5384 16.2554 24.3026 16.3574 24.0841C16.4593 23.8656 16.6085 23.6692 16.7956 23.5071C16.9821 23.3439 17.2033 23.2191 17.4447 23.1407C17.6861 23.0624 17.9424 23.0322 18.197 23.0522C39.6727 24.6089 55.6351 18.4217 67.0153 4.15487C67.1953 3.95055 67.4214 3.786 67.6775 3.67303C67.9335 3.56006 68.2132 3.50146 68.4964 3.50146C68.7796 3.50146 69.0593 3.56006 69.3153 3.67303C69.5714 3.786 69.7976 3.95055 69.9775 4.15487C81.367 18.4217 97.3516 24.6055 118.803 23.0522C119.058 23.0338 119.314 23.0649 119.556 23.1435C119.797 23.2222 120.018 23.3467 120.205 23.5092C120.393 23.6717 120.542 23.8686 120.644 24.0877C120.746 24.3067 120.798 24.5431 120.797 24.7819V51.9248C120.65 66.4378 115.909 80.5855 107.171 92.5856C97.4299 105.793 84.4899 116.665 69.4036 124.319C69.1276 124.464 68.8166 124.54 68.5001 124.541ZM19.9058 26.6258V51.9248C19.9058 78.8896 38.0491 104.585 68.5001 120.823C82.6973 113.477 94.8784 103.156 104.087 90.6707C112.42 79.2378 116.946 65.7565 117.094 51.9248V26.6258C96.1741 27.7155 80.221 21.6096 68.5001 8.01389C56.7829 21.6061 40.8465 27.7155 19.9058 26.6258Z" fill="#FFC652"/>
<path d="M68.4994 112.458C68.1479 112.458 67.8037 112.365 67.5071 112.189C41.9584 97.0119 27.3105 75.0461 27.3105 51.9248V35.2865C27.3098 34.8437 27.4908 34.4176 27.8163 34.0958C28.1418 33.774 28.5869 33.5811 29.0601 33.5568C43.1878 33.1386 56.7087 28.0942 67.259 19.3055C67.5992 19.0187 68.0412 18.8599 68.4994 18.8599C68.9577 18.8599 69.3996 19.0187 69.7398 19.3055C80.2886 28.0931 93.8074 33.1374 107.933 33.5568C108.406 33.5811 108.851 33.774 109.177 34.0958C109.502 34.4176 109.683 34.8437 109.683 35.2865V51.9213C109.533 64.3901 105.438 76.5387 97.9137 86.8376C90.4163 97.032 80.7388 105.664 69.4917 112.189C69.1951 112.365 68.8509 112.458 68.4994 112.458ZM31.0133 36.9107V51.9248C31.0133 73.5464 44.6577 94.17 68.4994 108.672C78.8983 102.494 87.8556 94.4187 94.8349 84.9297C101.955 75.1979 105.835 63.7156 105.986 51.9282V36.9142C92.1926 36.1657 79.0348 31.2442 68.4994 22.893C57.9636 31.2429 44.8058 36.1632 31.0133 36.9107Z" fill="#FFC652"/>
<path d="M60.6802 76.3018C60.1892 76.3017 59.7184 76.1194 59.3713 75.795L48.6779 65.8041C48.3407 65.4779 48.1541 65.041 48.1583 64.5874C48.1625 64.1339 48.3572 63.7001 48.7005 63.3793C49.0437 63.0586 49.5081 62.8767 49.9935 62.8728C50.4789 62.8688 50.9465 63.0432 51.2957 63.3583L60.6802 72.1297L85.7049 48.7455C86.0533 48.4212 86.5253 48.2394 87.0171 48.2402C87.5089 48.241 87.9802 48.4244 88.3274 48.7498C88.6745 49.0753 88.869 49.5163 88.8682 49.9758C88.8673 50.4353 88.6711 50.8757 88.3227 51.2L61.9891 75.795C61.642 76.1194 61.1712 76.3017 60.6802 76.3018Z" fill="#FFC652"/>
</svg>
