<svg width="144" height="115" viewBox="0 0 144 115" fill="none" xmlns="http://www.w3.org/2000/svg">
<path d="M144 29.5732C143.997 26.934 143.354 24.2575 141.932 22.0512L130.522 4.42681C128.611 1.49733 125.703 0.00577203 122.797 0C121.068 0 119.307 0.535102 117.751 1.70648L106.626 10.0624C105.456 10.9631 103.45 11.5814 101.513 11.5655C100.007 11.5733 98.5528 11.2096 97.5923 10.6368L86.6978 4.26621C84.9406 3.2449 82.9817 2.82626 81.0118 2.82219C78.1827 2.83814 75.3176 3.67747 73.0153 5.60363L71.7441 6.68028C70.7279 6.06811 69.1751 5.13541 67.4162 4.07879C65.3068 2.83033 62.8265 2.32681 60.3211 2.31696C58.0579 2.32477 55.7952 2.74579 53.8085 3.75895L46.388 7.5814C45.1803 8.2136 43.2593 8.62648 41.3513 8.61629C39.4433 8.62614 37.5258 8.21326 36.3181 7.5814L28.8909 3.75692C27.5361 3.05952 26.0879 2.76141 24.6527 2.75937C23.0001 2.76141 21.3573 3.15459 19.8304 3.90122C18.3054 4.65192 16.8899 5.76015 15.7627 7.28091L2.24017 25.5633C0.741385 27.5839 -0.00308415 30.1283 9.60244e-06 32.633C-0.00308415 35.6199 1.05554 38.6163 3.09742 40.7163L15.7115 53.7081L9.7276 61.244C8.07807 63.3223 7.25682 66.0168 7.25682 68.6811C7.25373 71.5158 8.18635 74.3781 10.0336 76.4855L11.2475 77.878C12.3913 79.1879 13.7658 80.0211 15.2041 80.4655C14.4827 82.0675 14.0884 83.8239 14.0915 85.5836C14.0884 88.4204 15.021 91.2806 16.8649 93.3905L16.8618 93.3885L18.0793 94.787C19.8124 96.7702 22.059 97.7579 24.2724 97.7562C25.4621 97.7582 26.6532 97.4696 27.7726 96.9046C28.1655 98.8288 28.9769 100.658 30.2532 102.119L31.4708 103.518C33.2038 105.501 35.4468 106.489 37.6639 106.487C39.3969 106.489 41.1379 105.873 42.6367 104.676C43.0751 106.379 43.8263 107.992 44.9699 109.304L46.1874 110.703C47.9168 112.686 50.1635 113.673 52.3775 113.672C54.7352 113.674 57.1162 112.556 58.8749 110.339L64.1635 103.672L71.3486 111.7C73.0685 113.626 75.276 114.584 77.4551 114.578C79.8491 114.584 82.2642 113.427 84.0265 111.149L85.1735 109.666C86.1635 108.382 86.8098 106.862 87.1847 105.276L89.9679 108.378C91.6909 110.296 93.8953 111.25 96.0713 111.248C98.4684 111.25 100.89 110.092 102.654 107.813L103.795 106.331C105.112 104.632 105.853 102.528 106.082 100.379C106.817 100.607 107.561 100.761 108.312 100.761C110.709 100.761 113.124 99.6049 114.89 97.3277L116.034 95.846C117.633 93.7775 118.428 91.1248 118.425 88.5094C118.425 87.6976 118.328 86.8898 118.179 86.0916C120.167 85.7734 122.095 84.7029 123.561 82.8025L124.708 81.3191C126.306 79.2507 127.098 76.5979 127.098 73.9805C127.101 71.1006 126.139 68.1945 124.241 66.0772L122.096 63.6852L141.457 37.8435C143.195 35.517 143.997 32.5224 144 29.5732ZM17.4414 74.9668C16.4157 74.9631 15.4125 74.5203 14.6287 73.6236L13.4128 72.2312C12.5716 71.271 12.1562 69.9934 12.1528 68.6814C12.1562 67.451 12.521 66.2497 13.2722 65.3034L25.5279 49.8639C26.3264 48.8582 27.3918 48.3547 28.4847 48.353C29.5073 48.355 30.5072 48.7995 31.2975 49.6982L32.5083 51.0927C32.5083 51.0927 33.7618 53.3305 33.7649 54.6442C33.7618 55.6278 33.5163 56.586 33.0401 57.4158C32.9993 57.465 19.8124 74.0562 19.8124 74.0562C19.1121 74.6545 18.2841 74.9624 17.4414 74.9668ZM27.2295 90.367C26.4327 91.3686 25.369 91.8701 24.2761 91.8741C23.2504 91.8721 22.2503 91.4277 21.4633 90.5309L20.2458 89.1341L20.2427 89.1321C19.4082 88.176 18.9892 86.8942 18.9892 85.5823C18.9892 84.3518 19.3573 83.1506 20.1049 82.2043C20.1049 82.2043 36.4416 61.6745 36.5791 61.4766C37.3599 60.57 38.3659 60.1018 39.4048 60.0998C40.4305 60.1018 41.4307 60.5442 42.2176 61.443L43.4351 62.8415C44.2727 63.7976 44.6887 65.0776 44.6918 66.3913C44.6884 67.6217 44.3205 68.8247 43.5724 69.771L27.2295 90.367ZM40.619 99.0956C39.8239 100.1 38.7605 100.602 37.6673 100.606C36.6415 100.603 35.6414 100.159 34.8545 99.2603L33.6336 97.8635C32.796 96.9053 32.3769 95.6256 32.3769 94.3137C32.3769 93.2156 32.6863 92.1505 33.2783 91.2637L44.6555 76.9283C45.423 76.0927 46.3849 75.6524 47.3816 75.6524C48.4073 75.6544 49.4075 76.0968 50.1944 76.9955L51.4153 78.3941C52.2498 79.3502 52.6688 80.6302 52.6719 81.9418C52.6686 83.1747 52.2973 84.3776 51.5526 85.3215L40.619 99.0956ZM62.2364 97.5827L55.3328 106.281C54.5375 107.284 53.4724 107.786 52.3794 107.79C51.3537 107.788 50.3536 107.344 49.5667 106.445L48.3491 105.048C47.5147 104.092 47.0956 102.81 47.0925 101.498C47.0956 100.265 47.4638 99.0623 48.2119 98.1201L55.1123 89.4224C55.9108 88.4191 56.9762 87.9152 58.0691 87.9132C59.0918 87.9152 60.095 88.3576 60.8819 89.2584L62.1028 90.6552C62.9373 91.6113 63.353 92.8914 63.3563 94.203C63.3524 95.4355 62.9843 96.6384 62.2364 97.5827ZM122.21 73.9883C122.208 75.1964 121.85 76.3796 121.123 77.3198L119.979 78.8015C119.181 79.8327 118.097 80.3542 116.988 80.3562C115.982 80.3542 114.997 79.9274 114.215 79.0548L94.9393 57.535L91.6062 61.8433L112.238 84.9175C113.097 85.8777 113.529 87.1815 113.536 88.5128C113.529 89.7256 113.174 90.9068 112.449 91.8473L111.309 93.329C110.51 94.3602 109.427 94.8797 108.318 94.8837C107.311 94.88 106.323 94.4512 105.547 93.584L86.2667 72.0645L82.937 76.3728L100.048 95.4749C100.872 96.4289 101.295 97.6991 101.295 99.0026C101.295 100.212 100.939 101.395 100.215 102.333L99.0709 103.815C98.2755 104.846 97.189 105.367 96.0767 105.371C95.067 105.367 94.0821 104.939 93.3033 104.071L76.2269 85.0387H76.2238L76.2207 85.035L72.8975 89.3511L72.9008 89.3548L72.9647 89.4278L81.5175 98.9571C82.2752 99.8973 82.6678 101.102 82.6709 102.349C82.6678 103.552 82.3157 104.729 81.5909 105.668L80.4471 107.151C79.6486 108.182 78.5686 108.7 77.4624 108.704C76.4561 108.7 75.4709 108.273 74.6921 107.402L67.2455 99.078C67.8935 97.5433 68.2552 95.8779 68.2552 94.2067C68.2582 91.372 67.3256 88.5138 65.4818 86.4022L64.2608 85.0037C62.5314 83.0222 60.2879 82.0328 58.0742 82.0366C57.9023 82.0366 57.7291 82.0841 57.5606 82.096C57.5606 82.0467 57.5702 81.9951 57.5702 81.9459C57.5733 79.1112 54.7968 74.1374 54.7968 74.1374L53.5793 72.7429C52.2849 71.2612 50.7057 70.337 49.0632 69.9655C49.4018 68.8081 49.5934 67.6031 49.5934 66.396C49.5934 63.5613 48.6638 60.7007 46.82 58.5916L45.6024 57.193C43.8694 55.2098 41.6264 54.2201 39.4124 54.2221C39.1539 54.2221 38.8988 54.2853 38.6418 54.3131C38.5715 51.5911 37.6633 48.8711 35.8962 46.8445V46.8424L34.6821 45.45C32.949 43.4648 30.706 42.475 28.492 42.4771C26.1307 42.475 23.7533 43.5931 21.9946 45.8096L19.1017 49.4541L6.28623 36.2586C5.36513 35.3065 4.90529 33.9908 4.90192 32.6398C4.90501 31.5078 5.22423 30.3996 5.90485 29.4795L19.4271 11.1974C19.9637 10.4705 20.7574 9.8128 21.6869 9.35613C22.6164 8.8998 23.6717 8.64922 24.6583 8.65092C25.5175 8.65092 26.3239 8.83868 26.9688 9.17448L34.3927 12.9986C36.4854 14.0634 38.9152 14.5 41.357 14.5095C43.8016 14.4997 46.2282 14.0631 48.3213 12.9986L55.7418 9.17618C56.8856 8.57385 58.6117 8.20036 60.3281 8.20817C62.2263 8.19425 64.1275 8.66858 65.2303 9.34798C65.9306 9.76866 66.5949 10.1679 67.2117 10.5411L59.6438 16.9633C57.2122 19.0277 55.9015 22.3106 55.9049 25.6234C55.9018 27.8161 56.4775 30.0482 57.6492 31.9424L57.6461 31.9384L58.6457 33.56C60.5438 36.6062 63.5037 38.1725 66.4622 38.1803C68.1328 38.1803 69.8347 37.6707 71.3514 36.5723L75.8773 33.2911C76.8004 32.6096 78.1942 32.1791 79.6357 32.1869C81.3293 32.175 83.036 32.7797 84.062 33.69L96.5829 44.5268C99.3696 46.9368 103.908 51.4071 106.424 54.2201L120.916 70.3964C121.774 71.3569 122.206 72.655 122.21 73.9883ZM137.823 33.911L118.516 59.6835L109.751 49.9016C107.005 46.8418 102.478 42.3796 99.4407 39.7462L86.9231 28.9094C84.8008 27.0943 82.2023 26.3096 79.6334 26.2981C77.4473 26.3059 75.2448 26.881 73.3435 28.2477L68.821 31.5289C68.1272 32.0324 67.3093 32.2894 66.4597 32.2915C64.9409 32.2976 63.421 31.442 62.5736 30.0492L61.5772 28.4296L61.5738 28.4256C61.0436 27.5625 60.7967 26.5945 60.793 25.6146C60.7995 24.1329 61.3657 22.695 62.4622 21.7606L75.8438 10.41C77.0009 9.39891 79.0594 8.68963 81.0146 8.70728C82.3728 8.69947 83.6702 9.02916 84.5587 9.55883L95.4529 15.9295C97.3102 17.0061 99.4064 17.4465 101.515 17.4526C104.225 17.4366 106.964 16.7257 109.221 15.0524L120.349 6.69488C121.059 6.15978 121.912 5.88306 122.8 5.88306C124.303 5.87933 125.808 6.70099 126.66 8.04214L138.07 25.6665C138.728 26.676 139.109 28.1 139.109 29.5759C139.111 31.2264 138.628 32.8503 137.823 33.911Z" fill="#FFC652"/>
</svg>
